<svg width="31" height="31" viewBox="0 0 31 31" fill="none" xmlns="http://www.w3.org/2000/svg">
<path d="M15.532 3.3183e-05C18.5986 0.00637397 21.5943 0.922167 24.1402 2.63153C26.6861 4.3409 28.6677 6.76703 29.8344 9.60294C31.001 12.4388 31.3003 15.5571 30.6943 18.5631C30.0883 21.5691 28.6043 24.3279 26.43 26.4902C24.2557 28.6526 21.4888 30.1215 18.4795 30.7109C15.4701 31.3004 12.3536 30.984 9.52414 29.8017C6.6947 28.6194 4.27952 26.6245 2.58419 24.0692C0.888859 21.514 -0.0104398 18.5133 9.14468e-05 15.4468C0.0141967 11.3396 1.65784 7.40595 4.57004 4.50974C7.48224 1.61352 11.4249 -0.00845946 15.532 3.3183e-05ZM15.532 15.5213V15.8835C15.532 18.3337 15.532 20.7732 15.532 23.2127C15.532 23.5574 15.669 23.888 15.9127 24.1317C16.1564 24.3755 16.487 24.5124 16.8317 24.5124C17.1764 24.5124 17.507 24.3755 17.7507 24.1317C17.9944 23.888 18.1314 23.5574 18.1314 23.2127V15.4681C18.1449 14.8888 17.9536 14.3232 17.5912 13.8711C17.2287 13.419 16.7183 13.1093 16.1499 12.9966C15.4445 12.8936 14.7296 12.8722 14.0193 12.9327C13.7333 12.9759 13.4705 13.1149 13.2736 13.3268C13.089 13.498 12.9645 13.7241 12.9185 13.9716C12.8724 14.2192 12.9073 14.4749 13.018 14.7011C13.1161 14.9464 13.2873 15.1556 13.5083 15.3005C13.7294 15.4453 13.9896 15.5187 14.2537 15.5107C14.6585 15.532 15.0633 15.5213 15.5107 15.5213H15.532ZM17.4815 8.39453C17.4794 8.00942 17.3633 7.63357 17.1478 7.31439C16.9323 6.9952 16.6271 6.74697 16.2707 6.60105C15.9143 6.45513 15.5227 6.41806 15.1452 6.49448C14.7678 6.5709 14.4214 6.75742 14.1498 7.03048C13.8783 7.30353 13.6936 7.65089 13.6193 8.02876C13.5449 8.40663 13.5841 8.79808 13.732 9.15368C13.8799 9.50928 14.1297 9.81312 14.4501 10.0269C14.7705 10.2406 15.1469 10.3547 15.532 10.3547C16.0463 10.3463 16.5367 10.1361 16.8975 9.76939C17.2582 9.4027 17.4603 8.90891 17.4602 8.39453H17.4815Z" fill="#B7B7B7"/>
</svg>
