<svg width="381" height="285" viewBox="0 0 381 285" fill="none" xmlns="http://www.w3.org/2000/svg">
<path d="M0 0H381V265C381 276.046 372.046 285 361 285H20C8.95431 285 0 276.046 0 265V0Z" fill="#871727"/>
<path d="M88.8718 202.956C88.8718 194.199 88.8718 185.428 88.8718 176.671C88.8718 174.388 88.8024 172.091 88.6083 169.822C88.4973 168.429 88.6083 167.176 88.4002 165.868C88.1922 163.974 88.1229 162.067 87.901 160.188C87.6791 158.308 87.4849 156.303 87.1936 154.368C87.055 153.352 86.8331 152.349 86.7637 151.347C86.7637 150.553 86.9995 150.303 87.7762 150.122C88.955 149.871 90.1477 149.829 91.3266 149.635C93.0325 149.356 94.7245 148.98 96.4026 148.59C97.677 148.203 98.9802 147.919 100.3 147.741C101.118 147.741 101.382 147.88 101.617 148.66C101.855 149.339 102.009 150.045 102.075 150.762C102.075 152.252 102.477 153.714 102.38 155.203C102.376 155.806 102.455 156.405 102.616 156.985C102.713 157.403 102.921 157.417 103.198 157.139C103.693 156.708 104.156 156.243 104.585 155.746C105.96 154.16 107.483 152.71 109.134 151.417C110.943 149.961 112.952 148.775 115.098 147.894C116.556 147.243 118.112 146.838 119.702 146.697C120.789 146.574 121.882 146.514 122.975 146.516C124.926 146.574 126.862 146.864 128.745 147.379C130.67 147.922 132.53 148.673 134.292 149.621C135.458 150.28 136.571 151.029 137.621 151.862C139.004 152.924 140.273 154.127 141.407 155.454C142.896 157.132 144.22 158.95 145.36 160.884C146.745 163.253 147.826 165.788 148.577 168.429C148.966 169.84 149.272 171.271 149.493 172.717C149.865 175.2 150.008 177.712 149.923 180.222C149.858 182.162 149.64 184.094 149.271 185.999C148.941 187.813 148.477 189.6 147.884 191.345C147.121 193.545 146.131 195.659 144.93 197.652C143.217 200.508 141.142 203.128 138.758 205.448C136.298 207.796 133.386 209.615 130.201 210.795C126.906 212.051 123.389 212.615 119.869 212.451C117.063 212.352 114.319 211.599 111.853 210.252C110.259 209.381 108.785 208.304 107.47 207.049C106.305 205.964 105.209 204.822 104.1 203.694C103.448 203.054 103.254 203.11 103.004 203.973C102.943 204.185 102.914 204.406 102.921 204.627C102.921 210.001 102.782 215.375 102.921 220.735C103.018 223.519 102.921 226.304 103.074 229.088C103.048 229.692 102.95 230.29 102.782 230.87C102.729 231.089 102.614 231.287 102.452 231.443C102.29 231.598 102.087 231.704 101.867 231.747C101.266 231.887 100.653 231.971 100.036 231.998C97.4428 231.998 94.8354 231.998 92.2419 231.998C91.4616 232.015 90.6825 231.926 89.9258 231.733C89.6126 231.676 89.3338 231.498 89.1477 231.239C88.9616 230.979 88.8826 230.658 88.9273 230.341C88.9273 228.058 88.9273 225.761 88.9273 223.478V202.956H88.8718ZM103.06 179.47C102.97 181.338 103.124 183.21 103.517 185.039C103.845 186.571 104.31 188.072 104.904 189.522C105.463 190.856 106.195 192.111 107.082 193.253C108.157 194.753 109.486 196.053 111.007 197.095C113.009 198.481 115.347 199.299 117.775 199.462C119.916 199.594 122.059 199.237 124.043 198.418C126.66 197.276 128.908 195.425 130.534 193.072C133.026 189.761 134.614 185.855 135.138 181.739C135.457 179.37 135.415 176.967 135.014 174.611C134.787 173.208 134.406 171.836 133.876 170.518C132.733 167.64 130.96 165.056 128.689 162.958C127.637 162.006 126.461 161.2 125.194 160.563C123.153 159.627 120.917 159.202 118.676 159.324C116.318 159.333 114.006 159.988 111.991 161.218C109.701 162.725 107.78 164.733 106.374 167.093C104.479 170.256 103.335 173.814 103.032 177.493C103.018 178.203 103.06 178.941 103.06 179.47Z" fill="white"/>
<path d="M149.007 112.337C149.014 110.657 148.916 108.979 148.716 107.311C148.383 105.084 147.995 103.413 147.523 101.227C146.691 97.4126 140.201 87.0545 135.138 83.8246C132.661 82.3052 129.924 81.2618 127.067 80.7478C123.98 80.2535 120.834 80.2535 117.747 80.7478C117.566 80.7478 115.597 81.249 114.973 81.4578C110.852 82.6831 107.185 85.1052 104.433 88.4189C103.864 89.1011 103.337 89.8111 102.768 90.4654C102.366 90.9249 102.117 90.8553 101.853 90.3123C101.7 89.9622 101.633 89.5801 101.659 89.1985C101.659 85.9547 101.659 82.6969 101.825 79.453C102.047 75.6801 101.825 71.9072 102.089 68.1343C102.214 66.2409 102.089 64.3336 102.283 62.4262C102.491 60.312 102.588 58.1883 102.574 56.0638C102.505 54.0451 102.144 53.7667 100.133 54.1426C98.7464 54.4071 97.3595 54.7134 95.9726 54.964C94.5857 55.2146 92.8383 55.3259 91.2711 55.5069C90.0738 55.5597 88.8822 55.7039 87.7068 55.9385C87.4433 55.9385 87.1382 56.0221 87.0688 56.384C86.8649 56.5898 86.7111 56.8401 86.6197 57.1155C86.5282 57.3908 86.5016 57.6837 86.5418 57.9712C86.5418 59.2938 86.6389 60.6164 86.7637 61.939C86.944 63.7906 86.7637 65.6562 86.9856 67.5078C87.2075 69.3595 86.9856 71.1554 87.2352 72.9792C87.4849 74.803 87.3185 76.3066 87.4571 77.9773C87.6513 80.0795 87.5404 82.1539 87.7345 84.3397C87.8871 85.9825 87.8039 87.6253 87.9426 89.2681C88.1367 91.6071 88.1506 93.9599 88.1783 96.3127C88.28 105.371 88.3032 114.435 88.2477 123.503C88.2477 127.582 88.3725 131.647 88.0674 135.726C87.9287 137.731 87.998 139.736 87.8039 141.741C87.7847 142.783 87.7106 143.824 87.582 144.859C87.4017 145.709 87.7068 146.043 88.6082 146.029C89.9951 146.029 91.285 145.903 92.6164 145.862C95.1128 145.75 97.5953 145.555 100.092 145.528C100.373 145.549 100.656 145.549 100.938 145.528C101.12 145.525 101.297 145.46 101.438 145.344C101.579 145.228 101.677 145.067 101.714 144.887C102.018 143.642 102.19 142.368 102.227 141.086C102.254 140.208 102.398 139.337 102.657 138.497C102.782 138.121 102.921 137.982 103.282 138.274C104.1 138.97 104.96 139.666 105.778 140.321C107.35 141.761 109.15 142.927 111.104 143.773C113.113 144.659 115.246 145.232 117.428 145.472C121.361 145.875 125.335 145.399 129.064 144.08C132.127 142.987 134.952 141.314 137.385 139.151C138.625 138.048 139.775 136.847 140.825 135.559C143.147 132.718 145.018 129.534 146.372 126.12C146.594 126.037 146.608 125.8 146.677 125.633C147.358 123.944 147.883 122.197 148.244 120.412C148.508 119.284 148.577 118.115 148.799 116.973C149.028 115.439 149.098 113.886 149.007 112.337ZM134.819 114.815C134.511 117.905 133.567 120.896 132.046 123.6C130.377 126.861 127.727 129.511 124.473 131.174C123.365 131.741 122.177 132.136 120.95 132.343C119.929 132.592 118.881 132.719 117.83 132.719C115.57 132.674 113.342 132.167 111.284 131.229C108.386 129.723 105.979 127.413 104.349 124.575C103.61 123.339 103.014 122.021 102.574 120.649C102.154 119.387 101.866 118.086 101.714 116.764C101.59 115.623 101.52 114.495 101.506 113.27C101.503 111.161 101.812 109.064 102.422 107.047C103.174 104.471 104.396 102.059 106.028 99.9325C107.546 97.8274 109.537 96.1105 111.839 94.9205C114.705 93.4458 117.962 92.9195 121.145 93.4169C123.519 93.7547 125.763 94.7151 127.649 96.2014C129.504 97.6938 131.054 99.533 132.212 101.617C133.267 103.43 134.017 105.406 134.431 107.464C134.942 109.879 135.073 112.36 134.819 114.815Z" fill="white"/>
<path d="M64.1574 67.4104C66.9312 68.8026 69.5386 67.7027 70.8561 64.8209C71.2842 63.5704 71.9221 62.4027 72.7422 61.3682C72.8913 61.2215 73.069 61.1074 73.2641 61.033C73.4592 60.9587 73.6676 60.9257 73.8761 60.9361C74.0845 60.9466 74.2886 61.0003 74.4754 61.0938C74.6621 61.1873 74.8276 61.3187 74.9613 61.4795C75.2766 61.9064 75.503 62.3927 75.627 62.9094C75.7509 63.4261 75.7698 63.9625 75.6825 64.4867C75.6825 64.8905 75.6825 65.2942 75.6825 65.6979C75.6825 66.1017 75.9183 66.4358 76.4175 66.3801L78.1928 66.1295C79.3023 65.9625 79.4825 65.7815 79.4687 64.6538C79.4932 62.8051 79.0645 60.9788 78.2205 59.3355C77.9199 58.6652 77.4653 58.0759 76.8939 57.6161C76.3225 57.1563 75.6507 56.839 74.9336 56.6903C74.0892 56.4721 73.2018 56.4862 72.3648 56.7312C71.5277 56.9762 70.7718 57.443 70.1765 58.0825C69.484 58.8898 68.9138 59.7952 68.4845 60.7695C68.1632 61.5284 67.7485 62.244 67.2502 62.8996C67.1083 63.0967 66.9112 63.247 66.684 63.3313C66.4568 63.4156 66.2097 63.4301 65.9743 63.373C65.749 63.3279 65.5415 63.2186 65.3767 63.0581C65.2119 62.8975 65.0967 62.6926 65.045 62.468C64.8431 61.5505 64.7041 60.6202 64.629 59.6836C64.5319 58.9457 64.3932 58.7926 63.6859 59.0432C62.9786 59.2938 62.299 59.5304 61.661 59.8089C61.475 59.8824 61.3156 60.011 61.2041 60.1776C61.0926 60.3442 61.0343 60.541 61.037 60.7417C61.0426 61.7644 61.2112 62.7796 61.5362 63.7488C61.6774 64.5153 61.9856 65.241 62.4388 65.874C62.8919 66.5069 63.4788 67.0316 64.1574 67.4104Z" fill="white"/>
<path d="M62.5209 98.3036C61.9939 98.3871 61.7026 98.6099 61.7442 99.2225C61.8413 100.392 62.0494 101.547 62.2435 102.717C62.3129 103.135 62.6041 103.121 62.9231 103.023C63.6165 102.8 64.31 102.564 64.9895 102.397C67.1949 101.917 69.4456 101.679 71.7021 101.687C74.0043 101.687 76.2927 101.45 78.6365 101.436C79.1358 101.436 79.3577 101.213 79.33 100.698C79.3022 100.183 79.33 99.6123 79.33 99.0693C79.33 98.5264 79.33 97.9834 79.33 97.4404C79.33 96.8975 79.1219 96.6608 78.5533 96.7026C76.7642 96.8696 74.9613 96.981 73.1722 97.1759C71.6197 97.3383 70.0568 97.3756 68.4984 97.2873C68.0484 97.3028 67.6048 97.1771 67.2294 96.9275C66.854 96.6779 66.5656 96.317 66.4042 95.8951C65.9666 94.8592 65.8272 93.7209 66.002 92.6095C66.0724 92.1489 66.1002 91.6829 66.0852 91.2172C66.0971 91.1264 66.0894 91.0341 66.0628 90.9464C66.0361 90.8588 65.991 90.778 65.9305 90.7094C65.87 90.6407 65.7956 90.5859 65.7122 90.5487C65.6289 90.5114 65.5385 90.4925 65.4472 90.4933C64.615 90.3794 63.7768 90.3143 62.937 90.2984C61.9939 90.2984 61.8413 90.4654 61.7997 91.4261C61.7324 93.3129 62.2457 95.1747 63.2698 96.7582C63.9494 97.8859 63.8384 98.0948 62.5209 98.3036Z" fill="white"/>
<path d="M78.0402 128.946C77.2497 129.113 76.4592 129.308 75.6825 129.531C75.1971 129.656 75.1277 129.935 75.3496 130.394C76.0018 131.599 76.2955 132.967 76.1956 134.334C76.154 134.804 76.0751 135.269 75.9599 135.726C75.5437 137.291 74.5526 138.639 73.1861 139.499C72.1366 140.091 70.9294 140.339 69.7327 140.209C68.4553 140.01 67.2852 139.375 66.419 138.411C65.5528 137.448 65.0431 136.215 64.9757 134.919C64.9087 133.514 65.1848 132.113 65.7801 130.84C65.8911 130.561 66.0297 130.241 65.7801 130.102C64.9833 129.742 64.1446 129.485 63.2837 129.336C63.166 129.309 63.0425 129.323 62.9339 129.376C62.8253 129.429 62.7383 129.518 62.6873 129.628C61.9841 130.997 61.5597 132.493 61.4391 134.028C61.3937 134.926 61.4449 135.827 61.5917 136.715C61.8332 138.644 62.6503 140.454 63.9356 141.908C64.6002 142.762 65.439 143.463 66.3958 143.965C67.3526 144.467 68.4052 144.757 69.4831 144.817C70.2269 144.858 70.9722 144.858 71.716 144.817C72.6839 144.741 73.6269 144.471 74.4898 144.024C75.493 143.484 76.4018 142.783 77.1803 141.95C78.1434 140.991 78.9039 139.847 79.4162 138.586C79.9286 137.325 80.1823 135.974 80.1621 134.613C80.1 132.978 79.8058 131.361 79.2884 129.809C78.9555 129.225 78.7475 128.793 78.0402 128.946Z" fill="white"/>
<path d="M64.0187 86.5812C65.3266 87.7536 66.9547 88.5053 68.6925 88.7391C70.7864 89.0824 72.934 88.6837 74.7671 87.6114C78.0541 85.6345 79.3855 82.4463 79.7044 78.7708C79.7807 77.7716 79.7388 76.7669 79.5796 75.7776C79.3528 73.9201 78.6662 72.1491 77.5825 70.6264C77.4135 70.223 77.1522 69.8653 76.8197 69.5822C76.7008 69.4543 76.5397 69.374 76.3664 69.3561C76.193 69.3382 76.019 69.3839 75.8766 69.4848C75.2664 69.8607 74.6562 70.2505 74.0737 70.6542C73.8379 70.8213 73.5882 71.0441 73.6992 71.3503C73.9766 72.0743 75.0029 73.7589 75.0861 73.9677C75.8135 75.5752 76.0407 77.3657 75.7379 79.105C75.5092 80.7237 74.6579 82.1881 73.3664 83.1842C73.1445 83.3373 72.9226 83.6018 72.6313 83.4626C72.3401 83.3234 72.2984 82.9753 72.3123 82.683C72.3955 81.1098 71.6605 74.6081 71.5634 72.9375C71.5149 72.3227 71.4175 71.7128 71.2721 71.1137C71.2668 70.9712 71.2291 70.8319 71.1618 70.7064C71.0944 70.5809 70.9993 70.4726 70.8838 70.3897C70.7626 70.161 70.5803 69.9708 70.3574 69.8405C70.1344 69.7101 69.8797 69.6448 69.6217 69.6518C68.0274 69.5588 66.45 70.0211 65.156 70.9605C63.3934 72.1441 62.0599 73.8687 61.355 75.8763C60.65 77.884 60.6114 80.0667 61.245 82.0982C61.7211 83.8291 62.6842 85.3855 64.0187 86.5812ZM66.5151 75.2068C66.8993 74.991 67.3164 74.8405 67.7495 74.7613C68.1655 74.6499 68.3458 74.9144 68.4984 75.2625C68.7543 76.0447 68.8899 76.8616 68.9006 77.6849C69.1118 78.9593 69.2139 80.2495 69.2057 81.5413C69.2057 82.321 69.2057 82.9336 69.2057 83.4487C69.2057 83.9638 68.9283 84.3397 68.2626 84.2562C67.4648 84.1348 66.7124 83.8064 66.0799 83.3033C65.4474 82.8003 64.9568 82.1401 64.6567 81.3882C64.2022 80.3017 64.1391 79.0901 64.4783 77.9619C64.8174 76.8337 65.5377 75.8595 66.5151 75.2068Z" fill="white"/>
<path d="M62.7012 181.92C62.7705 183.312 62.8676 183.312 64.2129 183.312C64.5147 183.31 64.8159 183.287 65.1144 183.243C65.2554 183.235 65.388 183.173 65.4839 183.069C65.5798 182.965 65.6314 182.827 65.6276 182.686C65.6276 182.157 65.7107 181.725 65.7385 181.294C65.7385 181.074 65.8242 180.864 65.9773 180.708C66.1303 180.551 66.3385 180.462 66.5567 180.458C67.3057 180.458 72.77 180.291 75.7102 180.291C78.6504 180.291 79.649 178.676 79.968 176.309C80.0925 174.672 80.0086 173.025 79.7183 171.409C79.6678 170.892 79.527 170.387 79.3022 169.919C79.2496 169.789 79.1646 169.675 79.0553 169.587C78.9461 169.499 78.8162 169.441 78.6781 169.418C78.1917 169.299 77.6946 169.229 77.1942 169.209C76.154 169.209 75.9737 169.432 76.2095 170.462C76.4708 171.486 76.6151 172.537 76.6395 173.595C76.6105 174.097 76.4228 174.577 76.1036 174.965C75.7843 175.353 75.3502 175.629 74.8642 175.753C74.2584 175.928 73.6351 176.035 73.0058 176.073C71.6189 176.073 69.2057 176.17 69.2057 176.17H66.0436C65.7246 176.003 65.7801 175.488 65.7801 175.223C65.7801 173.748 65.7801 172.286 65.7801 170.824C65.7801 170.337 65.5998 170.128 65.1144 170.128C64.629 170.128 63.8662 170.128 63.2559 170.128C62.3683 170.128 62.3684 170.128 62.3684 171.033C62.3684 172.425 62.3684 173.817 62.3684 175.126C62.3684 176.017 62.1465 176.184 61.2866 176.17C60.0939 176.17 58.9011 176.17 57.6946 176.17C56.488 176.17 56.5157 176.17 56.4047 177.312C56.3356 178.111 56.2245 178.905 56.0719 179.692C55.8638 180.723 56.0719 181.085 57.1675 181.015C58.5544 181.015 59.9413 180.764 61.4253 180.806C62.41 180.764 62.6735 180.987 62.7012 181.92Z" fill="white"/>
<path d="M77.3606 111.028C77.0694 110.555 77.1526 110.36 77.6519 110.235C78.1511 110.11 78.4147 110.012 78.803 109.929C79.1913 109.845 79.538 109.441 79.5519 108.884C79.5519 107.896 79.3438 106.935 79.2884 105.961C79.2884 105.654 79.1081 105.543 78.8168 105.529C78.3809 105.534 77.9474 105.595 77.527 105.71C75.1898 106.282 72.7898 106.553 70.3846 106.518C68.0643 106.543 65.7457 106.384 63.4501 106.044C62.9508 105.905 62.6873 106.156 62.5903 106.601C62.3779 107.52 62.2158 108.449 62.1048 109.386C62.0847 109.48 62.085 109.577 62.1058 109.671C62.1266 109.765 62.1674 109.853 62.2253 109.93C62.2832 110.007 62.357 110.07 62.4415 110.115C62.5261 110.161 62.6194 110.187 62.7151 110.193C62.901 110.2 63.0862 110.219 63.2698 110.249C64.4348 110.569 64.4209 110.569 63.6165 111.516C62.7803 112.455 62.1601 113.567 61.7997 114.774C61.3744 116.213 61.2655 117.729 61.4807 119.215C61.691 121.07 62.4221 122.828 63.5888 124.282C64.7482 125.754 66.4072 126.745 68.2488 127.067C70.1073 127.442 72.0344 127.268 73.7963 126.566C75.0317 126.013 76.1626 125.25 77.1387 124.31C77.5022 123.908 77.836 123.48 78.1373 123.029C79.4769 121.15 80.0748 118.838 79.8154 116.542C79.7162 115.629 79.4776 114.737 79.1081 113.896C78.5957 112.899 78.0116 111.941 77.3606 111.028ZM73.935 121.387C73.1031 122.178 72.0151 122.643 70.87 122.695C69.4493 122.81 68.0376 122.382 66.9173 121.498C65.8295 120.674 65.1074 119.454 64.9063 118.101C64.6208 116.524 64.943 114.896 65.8078 113.548C66.5573 112.409 67.6584 111.548 68.9422 111.098C70.1022 110.838 71.3049 110.838 72.4649 111.098C73.2788 111.343 74.0186 111.788 74.6169 112.394C75.2153 113 75.6531 113.746 75.8905 114.565C76.2942 115.766 76.3232 117.063 75.9739 118.282C75.6245 119.501 74.9132 120.584 73.935 121.387Z" fill="white"/>
<path d="M72.6452 200.743C71.5055 200.902 70.3564 200.986 69.2057 200.993C66.9589 200.924 63.1866 200.52 62.9508 200.506C62.715 200.492 62.4793 200.645 62.4793 200.979C62.4793 202.177 62.4793 204.627 62.4793 204.711C62.4793 205.003 62.9647 205.086 63.1589 205.142C65.5 205.576 67.8799 205.763 70.2597 205.699C71.914 205.648 73.5609 205.457 75.1832 205.128C76.3647 204.972 77.4564 204.411 78.2748 203.542C79.0931 202.672 79.5882 201.546 79.6767 200.353C80.0298 198.261 79.7596 196.11 78.9 194.172C78.4562 193.197 77.8321 192.348 77.3051 191.387C76.9723 190.788 77.0555 190.621 77.735 190.552C78.1927 190.552 78.6504 190.426 79.1219 190.399C79.5935 190.371 79.7599 190.19 79.7599 189.73C79.7599 188.598 79.7599 187.47 79.7599 186.347C79.7599 185.804 79.5241 185.568 78.9971 185.595L76.792 185.749L72.0627 186.041H63.145C62.6873 186.041 62.4654 186.278 62.4654 186.751C62.4654 187.531 62.4654 188.31 62.4654 189.09C62.4654 189.285 62.4654 190.009 62.4654 190.204C62.4628 190.334 62.5058 190.461 62.5869 190.563C62.6679 190.665 62.782 190.735 62.9092 190.761C63.1311 190.761 67.7078 190.844 69.1086 190.761C70.2597 190.761 71.4109 190.649 72.562 190.663C72.9634 190.626 73.3675 190.692 73.7364 190.855C74.1052 191.019 74.4266 191.273 74.67 191.596C75.3445 192.439 75.8913 193.377 76.2927 194.38C76.5232 195.082 76.6124 195.822 76.5553 196.558C76.4981 197.294 76.2957 198.011 75.9598 198.668C75.6522 199.288 75.1797 199.81 74.5946 200.176C74.0094 200.542 73.3347 200.738 72.6452 200.743Z" fill="white"/>
<path d="M74.7116 147.755C73.8908 147.404 73.0285 147.161 72.1459 147.031C70.93 146.862 69.6919 146.961 68.5181 147.321C67.3443 147.682 66.2632 148.296 65.3501 149.119C63.8417 150.361 62.705 151.998 62.0661 153.848C61.4272 155.699 61.3111 157.69 61.7304 159.603C61.9263 160.945 62.4144 162.227 63.1599 163.357C63.9054 164.488 64.8899 165.441 66.0436 166.146C67.3951 166.884 68.904 167.283 70.4421 167.309C71.9802 167.336 73.5019 166.99 74.878 166.299C76.6307 165.276 78.0478 163.762 78.9555 161.942C79.8284 160.258 80.2128 158.362 80.065 156.47C79.9946 155.478 79.8321 154.495 79.5796 153.533C79.2031 152.288 78.577 151.133 77.7399 150.139C76.9028 149.146 75.8723 148.334 74.7116 147.755ZM74.2401 161.761C73.7337 162.252 73.1296 162.629 72.4675 162.869C71.8055 163.109 71.1004 163.206 70.3984 163.153C69.0666 163.093 67.801 162.553 66.8332 161.632C65.8654 160.712 65.2602 159.473 65.1282 158.141C65.015 157.166 65.1248 156.177 65.4492 155.251C65.7736 154.324 66.3042 153.485 67.0005 152.795C67.5196 152.211 68.1635 151.752 68.884 151.454C69.6045 151.155 70.3829 151.023 71.1612 151.069C72.2628 151.133 73.3203 151.525 74.1985 152.196C75.1489 152.875 75.8429 153.856 76.1678 154.981C76.5634 156.174 76.5911 157.46 76.2471 158.67C75.9032 159.879 75.2037 160.957 74.2401 161.761Z" fill="white"/>
<path d="M78.9 216.837C78.5256 216.224 78.1234 215.639 77.7628 215.013C77.4022 214.386 77.5547 214.317 78.1234 214.164C78.4649 214.064 78.8123 213.984 79.1635 213.927C79.2882 213.928 79.4117 213.902 79.5257 213.851C79.6396 213.801 79.7414 213.726 79.8242 213.632C79.9069 213.538 79.9688 213.428 80.0055 213.309C80.0423 213.189 80.0531 213.063 80.0373 212.939C80.0373 211.922 79.8154 210.948 79.7599 209.945C79.7637 209.863 79.7475 209.78 79.7128 209.705C79.6781 209.63 79.6259 209.564 79.5606 209.514C79.4953 209.463 79.4188 209.429 79.3376 209.415C79.2564 209.4 79.1729 209.405 79.0942 209.43C76.3483 209.936 73.5645 210.206 70.7729 210.238C67.4305 210.238 63.8384 209.625 63.6304 209.653C63.0202 209.486 62.7844 209.834 62.6873 210.349C62.5347 211.129 62.3822 211.908 62.2435 212.702C62.1048 213.495 62.3683 213.509 62.9924 213.704C63.3669 213.816 63.6859 213.885 64.0326 213.969C64.3793 214.052 64.4487 214.359 64.2684 214.665C64.1597 214.831 64.0342 214.985 63.8939 215.124C62.3289 216.781 61.4639 218.981 61.4807 221.264C61.4949 222.066 61.5644 222.866 61.6887 223.659C61.957 225.485 62.7581 227.19 63.991 228.559C65.2778 230.025 67.0431 230.983 68.9699 231.26C70.4239 231.463 71.9034 231.378 73.3247 231.01C75.1234 230.495 76.7312 229.461 77.9473 228.034C79.1634 226.608 79.9337 224.854 80.1621 222.99C80.5182 220.853 80.0682 218.659 78.9 216.837ZM74.8642 225.19C74.4031 225.688 73.8421 226.082 73.2181 226.346C72.5941 226.61 71.9214 226.738 71.2444 226.721C70.4168 226.781 69.5861 226.661 68.8085 226.371C68.0309 226.08 67.3245 225.625 66.737 225.037C65.6867 224.011 65.0834 222.61 65.0589 221.139C64.9757 220.193 65.1114 219.242 65.4554 218.358C65.7995 217.474 66.3425 216.682 67.0421 216.043C67.7853 215.409 68.6707 214.964 69.6224 214.748C70.5741 214.533 71.5637 214.552 72.5065 214.804C73.0436 214.95 73.5507 215.191 74.0043 215.514C74.6561 215.951 75.2099 216.52 75.6302 217.184C76.0506 217.848 76.3282 218.593 76.4452 219.371C76.7721 220.394 76.7968 221.491 76.5162 222.529C76.2357 223.567 75.6619 224.5 74.8642 225.218V225.19Z" fill="white"/>
<path d="M165.386 108.439C165.192 107.228 164.693 106.532 163.278 106.643C160.505 106.866 157.883 107.339 155.193 107.785C154.222 107.952 154.25 108.62 154.499 109.386C154.999 110.973 155.567 112.56 155.886 114.175C157.01 119.315 157.577 124.561 157.578 129.823C157.578 135.183 158.133 140.516 158.161 145.876C158.161 147.059 158.674 147.56 159.867 147.518C161.059 147.477 162.363 147.518 163.625 147.518C164.873 147.518 166.135 147.518 167.384 147.518C168.632 147.518 169.214 147.031 169.089 145.695C168.701 141.518 168.451 137.341 168.008 133.165C167.629 129.549 167.541 125.908 167.744 122.278C167.698 121.241 167.971 120.216 168.527 119.341C169.083 118.466 169.895 117.785 170.851 117.391C173.251 116.368 175.89 116.044 178.465 116.458C179.521 116.614 180.588 116.679 181.655 116.653C181.864 116.679 182.077 116.659 182.278 116.596C182.479 116.533 182.665 116.427 182.823 116.286C182.98 116.145 183.106 115.972 183.191 115.779C183.277 115.585 183.32 115.375 183.319 115.163C183.599 113.227 183.747 111.273 183.763 109.316C183.763 107.13 183.374 106.768 181.169 106.685C176.845 106.544 172.582 107.734 168.951 110.096C166.357 111.752 165.9 111.502 165.386 108.439Z" fill="white"/>
<path d="M217.506 141.963C218.518 141.309 218.893 141.49 219.198 142.618C219.392 143.481 219.655 144.33 219.836 145.207C220.099 146.488 220.862 146.836 222.055 146.878C224.163 146.878 226.215 146.405 228.268 146.279C228.906 146.279 229.142 145.876 229.169 145.235C229.159 144.253 229.029 143.276 228.781 142.325C227.562 137.097 226.985 131.739 227.061 126.371C227.025 121.16 227.364 115.954 228.074 110.792C228.16 110.59 228.197 110.37 228.183 110.151C228.168 109.931 228.102 109.718 227.99 109.53C227.878 109.341 227.722 109.181 227.537 109.064C227.351 108.947 227.141 108.876 226.923 108.857C225.023 108.439 223.123 108.007 221.195 107.771C220.988 107.735 220.776 107.744 220.573 107.796C220.37 107.849 220.18 107.944 220.016 108.076C219.852 108.207 219.718 108.372 219.623 108.559C219.527 108.747 219.472 108.953 219.461 109.163C219.388 109.597 219.281 110.026 219.142 110.444C218.449 113.047 218.463 113.033 216.452 111.237C214.483 109.357 212.111 107.957 209.517 107.144C206.468 106.218 203.253 105.976 200.1 106.434C196.15 106.93 192.43 108.57 189.393 111.154C186.269 113.822 184.202 117.527 183.568 121.595C182.738 125.788 183.103 130.132 184.623 134.125C185.769 136.827 187.379 139.306 189.38 141.448C190.221 142.27 191.125 143.024 192.084 143.704C196.021 146.69 200.956 148.032 205.856 147.449C207.776 147.223 209.649 146.692 211.403 145.876C213.534 144.73 215.574 143.423 217.506 141.963ZM195.634 134.265C193.94 132.372 192.959 129.944 192.861 127.401C192.616 124.26 193.508 121.137 195.371 118.602C196.216 117.407 197.291 116.394 198.532 115.621C199.772 114.849 201.154 114.334 202.597 114.105C204.254 113.788 205.958 113.803 207.61 114.15C209.262 114.496 210.829 115.167 212.222 116.124C214.656 117.823 216.48 120.264 217.422 123.085C217.968 125.683 217.968 128.367 217.422 130.965C216.926 132.756 215.995 134.396 214.712 135.738C213.429 137.079 211.835 138.08 210.072 138.65C204.455 140.446 199.559 138.901 195.621 134.306L195.634 134.265Z" fill="white"/>
<path d="M312.216 135.615C312.897 133.787 313.362 131.885 313.603 129.949C313.948 127.286 313.758 124.581 313.043 121.994C312.329 119.406 311.104 116.989 309.442 114.885C303.895 107.924 296.96 105.139 288.639 106.894C285.89 107.384 283.29 108.499 281.037 110.155C278.785 111.81 276.94 113.962 275.644 116.444C272.87 121.581 272.385 130.547 275.339 135.935C277.279 139.729 280.282 142.87 283.979 144.971C287.27 146.892 291.074 147.743 294.866 147.407C296.844 147.251 298.8 146.892 300.705 146.335C306.045 144.678 309.595 140.78 312.216 135.615ZM284.312 134.557C282.37 132.19 281.691 130.38 281.538 126.064C281.548 124.273 281.955 122.507 282.73 120.893C283.505 119.28 284.628 117.86 286.018 116.737C287.574 115.418 289.496 114.612 291.524 114.425C293.335 114.273 295.158 114.504 296.874 115.104C298.591 115.703 300.163 116.658 301.488 117.906C302.814 119.154 303.864 120.668 304.57 122.349C305.276 124.03 305.622 125.841 305.587 127.665C305.461 130.077 304.679 132.407 303.326 134.404C302.037 136.455 300.075 137.991 297.779 138.747C292.592 140.432 287.946 139.04 284.312 134.557Z" fill="white"/>
<path d="M233.316 108.133H241.069C241.707 108.133 242.04 108.355 242.04 109.525V123.322C242.01 123.816 242.147 124.307 242.428 124.714C242.775 125.243 248.96 135.337 248.96 135.337C248.96 135.337 250.5 138.037 251.429 138.023C252.358 138.01 253.801 135.239 253.801 135.239L259.75 125.326C259.556 125.661 260.042 124.561 260.042 124.06C260.042 120.997 260.042 110.137 260.042 109.302C260.042 108.467 260.374 108.202 260.915 108.202H267.85C268.696 108.202 268.821 108.662 268.834 109.191C268.848 109.72 269.375 124.756 269.375 125.897C269.367 126.69 269.099 127.459 268.612 128.083L255.895 146.948C255.744 147.176 255.537 147.361 255.294 147.486C255.051 147.61 254.78 147.669 254.508 147.658H247.726C247.525 147.658 247.328 147.61 247.149 147.518C246.971 147.426 246.817 147.292 246.7 147.129C244.522 144.024 233.469 128.292 233.219 127.958C232.792 127.156 232.604 126.247 232.678 125.34C232.678 123.948 232.678 110.388 232.678 109.692C232.678 108.996 232.72 108.133 233.316 108.133Z" fill="white"/>
<path d="M173.666 225.803C174.401 225.19 174.692 225.357 174.887 226.429C175.025 227.251 175.219 228.058 175.358 228.879C175.538 230.105 176.093 230.425 176.953 230.467C178.456 230.372 179.952 230.186 181.433 229.91C181.904 229.91 182.071 229.52 182.098 228.921C182.084 227.987 181.992 227.055 181.821 226.137C180.927 221.144 180.509 216.076 180.573 211.003C180.536 206.065 180.777 201.129 181.294 196.218C181.516 195.16 181.128 194.575 180.448 194.38C179.084 193.95 177.694 193.606 176.287 193.35C175.746 193.267 175.122 193.601 175.039 194.659C174.982 195.071 174.903 195.48 174.803 195.884C174.304 198.348 174.318 198.334 172.862 196.636C171.552 194.938 169.834 193.601 167.869 192.751C165.716 191.873 163.355 191.64 161.073 192.083C158.087 192.657 155.385 194.239 153.418 196.566C151.059 199.363 149.607 202.817 149.257 206.465C148.651 210.437 148.911 214.493 150.02 218.354C150.801 220.837 151.956 223.184 153.445 225.315C154.041 226.076 154.695 226.788 155.401 227.445C156.657 228.789 158.215 229.813 159.944 230.43C161.674 231.048 163.525 231.242 165.345 230.996C166.782 230.781 168.16 230.274 169.394 229.506C170.919 228.393 172.348 227.154 173.666 225.803ZM157.897 218.549C156.631 216.616 155.939 214.361 155.9 212.048C155.71 209.147 156.34 206.251 157.717 203.694C158.226 202.647 158.956 201.723 159.857 200.988C160.757 200.252 161.807 199.722 162.932 199.434C164.155 199.148 165.431 199.174 166.642 199.51C167.853 199.845 168.962 200.48 169.866 201.355C171.736 203.158 173.037 205.472 173.611 208.01C174.01 210.481 174.01 213.001 173.611 215.472C172.668 219.092 170.962 221.682 168.299 222.768C164.235 224.41 160.699 222.879 157.856 218.521L157.897 218.549Z" fill="white"/>
<path d="M224.149 225.803C224.884 225.19 225.189 225.357 225.369 226.429C225.508 227.251 225.702 228.058 225.841 228.879C226.035 230.105 226.576 230.425 227.436 230.467C228.939 230.372 230.435 230.186 231.915 229.91C232.387 229.91 232.553 229.52 232.581 228.921C232.567 227.987 232.474 227.055 232.304 226.137C231.417 221.143 230.999 216.076 231.056 211.003C231.035 206.066 231.276 201.13 231.777 196.218C231.999 195.16 231.61 194.575 230.931 194.38C229.567 193.95 228.177 193.606 226.77 193.35C226.229 193.267 225.605 193.601 225.522 194.659C225.465 195.071 225.386 195.48 225.286 195.884C224.787 198.348 224.801 198.334 223.344 196.636C222.035 194.938 220.317 193.601 218.352 192.751C216.199 191.873 213.838 191.64 211.556 192.083C208.541 192.635 205.808 194.214 203.817 196.552C201.458 199.349 200.006 202.803 199.656 206.451C199.05 210.423 199.311 214.479 200.419 218.34C201.2 220.823 202.356 223.17 203.845 225.301C204.44 226.062 205.094 226.774 205.8 227.432C207.068 228.783 208.64 229.809 210.386 230.422C212.131 231.035 213.997 231.217 215.828 230.954C217.264 230.739 218.642 230.232 219.877 229.464C221.4 228.365 222.829 227.14 224.149 225.803ZM208.38 218.549C207.12 216.613 206.428 214.36 206.383 212.048C206.193 209.147 206.823 206.251 208.2 203.694C209.587 201.425 211.279 199.782 213.414 199.434C214.638 199.148 215.914 199.174 217.125 199.51C218.336 199.845 219.444 200.48 220.349 201.355C222.218 203.158 223.52 205.472 224.093 208.01C224.493 210.481 224.493 213.001 224.093 215.472C223.15 219.092 221.444 221.682 218.782 222.768C214.787 224.41 211.237 222.879 208.394 218.521L208.38 218.549Z" fill="white"/>
<path d="M258.142 226.972C257.892 225.301 257.601 223.659 257.295 222.016C257.101 221.013 256.699 220.86 256.033 221.334C254.416 222.639 252.359 223.267 250.292 223.088C249.563 223.014 248.845 222.85 248.156 222.601C245.6 221.436 243.605 219.304 242.608 216.67C241.732 214.359 241.386 211.88 241.596 209.416C242.012 203.652 245.59 199.935 249.293 199.434C251.406 199.33 253.495 199.921 255.243 201.119C255.645 201.341 256.117 201.662 256.311 200.979C256.84 199.277 257.211 197.529 257.42 195.759C257.466 195.528 257.454 195.29 257.383 195.066C257.313 194.842 257.187 194.64 257.018 194.478C255.139 193.065 252.926 192.168 250.597 191.874C249.285 191.78 247.966 191.888 246.686 192.195C243.636 192.837 240.933 194.594 239.1 197.123C236.443 200.371 234.953 204.421 234.87 208.623C234.87 210.182 234.87 212.563 234.953 213.314C235.046 215.31 235.434 217.281 236.104 219.162C236.84 221.173 237.853 223.071 239.113 224.8C242.109 228.977 245.646 231.093 249.806 231.065C252.24 230.914 254.623 230.294 256.824 229.241C257.064 229.189 257.291 229.087 257.49 228.941C257.689 228.796 257.856 228.611 257.98 228.398C258.104 228.184 258.182 227.947 258.21 227.702C258.238 227.456 258.214 227.208 258.142 226.972Z" fill="white"/>
<path d="M305.49 219.705C306.036 217.939 306.417 216.126 306.627 214.289C307.205 209.261 306.039 204.187 303.326 199.921C298.888 193.267 293.327 190.691 286.684 192.306C284.361 192.885 282.21 194.014 280.41 195.598C278.61 197.182 277.214 199.175 276.337 201.411C274.105 206.312 273.73 214.86 276.088 220.039C277.531 223.518 279.938 226.508 283.022 228.657C285.534 230.463 288.616 231.289 291.69 230.982C293.278 230.828 294.842 230.487 296.35 229.965C300.566 228.336 303.396 224.619 305.49 219.705ZM283.3 218.688C281.746 216.419 281.205 214.762 281.108 210.586C281.086 208.94 281.39 207.306 282.002 205.779C282.614 204.252 283.521 202.862 284.673 201.689C285.834 200.469 287.375 199.683 289.041 199.462C292.328 199.03 295.158 200.395 297.501 203.416C299.461 205.869 300.449 208.963 300.275 212.103C300.201 214.358 299.582 216.56 298.472 218.521C297.553 220.398 295.993 221.88 294.076 222.698C289.832 224.299 286.17 223.018 283.244 218.688H283.3Z" fill="white"/>
<path d="M308.749 198.279C306.655 203.847 308.319 209.416 312.632 212.201C314.583 213.16 316.33 214.488 317.778 216.113C318.235 216.799 318.464 217.612 318.434 218.437C318.405 219.262 318.117 220.056 317.611 220.707C317.057 221.327 316.35 221.791 315.562 222.053C314.774 222.314 313.931 222.364 313.118 222.197C312.521 222.197 311.911 222.197 311.315 222.197C310.718 222.197 310.205 222.698 310.302 223.728C310.399 224.758 310.538 226.192 310.677 227.418C310.926 229.687 311.19 230.063 312.868 230.049C315.726 230.057 318.512 229.144 320.815 227.445C321.917 226.66 322.839 225.647 323.521 224.476C324.202 223.304 324.627 222.001 324.768 220.651C325.096 218.951 325.076 217.202 324.709 215.509C324.342 213.817 323.635 212.218 322.632 210.808C321.492 209.434 320.139 208.254 318.624 207.314C317.443 206.63 316.368 205.777 315.434 204.78C315.123 204.422 314.896 203.999 314.771 203.541C314.646 203.082 314.626 202.602 314.713 202.135C314.748 201.718 314.895 201.319 315.14 200.981C315.384 200.642 315.716 200.377 316.1 200.214C317.424 199.802 318.785 199.517 320.163 199.364C321.259 199.156 321.55 198.863 321.12 197.401C320.69 195.94 320.385 194.617 319.983 193.225C319.926 192.886 319.76 192.575 319.509 192.341C319.258 192.107 318.937 191.962 318.596 191.93C317.043 191.939 315.51 192.286 314.102 192.946C312.869 193.375 311.747 194.076 310.82 195C309.893 195.923 309.185 197.043 308.749 198.279Z" fill="white"/>
<path d="M262.635 228.587C262.635 229.52 262.982 229.979 263.758 229.979C265.658 229.979 267.558 229.979 269.459 229.979C270.388 229.979 270.845 229.534 270.748 228.434C270.679 226.889 270.61 225.357 270.554 223.812C270.415 220.54 270.305 217.254 270.18 213.969C270.18 210.071 270.249 206.158 270.277 202.26C270.277 199.977 270.346 197.708 270.374 195.438C270.374 194.478 270.013 194.046 269.195 194.046C267.808 194.046 266.574 194.046 265.256 194.046H263.37C263.132 194.055 262.905 194.15 262.732 194.314C262.559 194.478 262.45 194.699 262.427 194.937C262.427 195.397 262.857 204.683 262.954 207.62C262.954 210.015 262.954 213.593 262.954 215.974C262.899 217.589 262.607 227.64 262.635 228.587Z" fill="white"/>
<path d="M186.772 227.905C186.772 229.297 187.091 229.896 187.868 229.896C189.773 229.896 191.673 229.937 193.568 230.021C194.483 230.021 194.955 229.353 194.886 227.71C194.886 225.413 194.885 223.116 194.788 220.749L194.622 206.047C194.751 200.228 194.872 194.399 194.983 188.561C195.066 185.164 195.149 181.781 195.218 178.384C195.218 176.992 194.886 176.226 194.081 176.24C192.764 176.24 191.446 176.24 190.128 176.24C189.796 176.24 188.575 176.128 188.242 176.128C187.909 176.128 187.313 176.783 187.285 177.521C187.258 178.258 187.507 192.083 187.535 196.441C187.535 200.019 187.41 205.365 187.327 208.971C187.272 211.463 186.772 226.471 186.772 227.905Z" fill="white"/>
<path d="M266.588 189.285C268.886 189.285 270.748 187.228 270.748 184.691C270.748 182.153 268.886 180.096 266.588 180.096C264.29 180.096 262.427 182.153 262.427 184.691C262.427 187.228 264.29 189.285 266.588 189.285Z" fill="white"/>
</svg>
