<svg width="38" height="36" viewBox="0 0 38 36" fill="none" xmlns="http://www.w3.org/2000/svg">
<path d="M25.475 18C25.4769 18.1775 25.4419 18.3536 25.3719 18.5175C25.3019 18.6815 25.1985 18.83 25.068 18.954L17.668 26.154C17.5404 26.2814 17.388 26.3826 17.2196 26.4517C17.0512 26.5208 16.8703 26.5564 16.6875 26.5564C16.5047 26.5564 16.3238 26.5208 16.1554 26.4517C15.987 26.3826 15.8345 26.2814 15.707 26.154C15.4472 25.9009 15.3012 25.5577 15.3012 25.2C15.3012 24.8422 15.4472 24.4991 15.707 24.246L22.1265 18L15.707 11.754C15.4619 11.4981 15.3285 11.1596 15.3348 10.8099C15.3412 10.4601 15.4868 10.1264 15.741 9.87906C15.9952 9.63172 16.3382 9.49003 16.6977 9.48386C17.0571 9.47769 17.405 9.60753 17.668 9.846L25.068 17.046C25.1977 17.1706 25.3005 17.3192 25.3704 17.483C25.4403 17.6469 25.4759 17.8226 25.475 18Z" fill="#B7B7B7"/>
<path d="M37.5 18C37.5 21.5601 36.415 25.0402 34.3822 28.0003C32.3494 30.9603 29.4601 33.2674 26.0797 34.6298C22.6992 35.9922 18.9795 36.3487 15.3909 35.6541C11.8022 34.9596 8.5058 33.2453 5.91853 30.7279C3.33126 28.2106 1.56931 25.0033 0.855478 21.5116C0.141653 18.02 0.50802 14.4007 1.90824 11.1117C3.30846 7.82261 5.67968 5.01141 8.72198 3.03354C11.7643 1.05568 15.3411 -1.9372e-06 19 -1.61732e-06C23.9065 -1.18838e-06 28.6121 1.89641 32.0815 5.27207C35.5509 8.64772 37.5 13.2261 37.5 18ZM3.27502 18C3.27502 21.0261 4.19731 23.9841 5.92519 26.5002C7.65307 29.0163 10.109 30.9773 12.9823 32.1353C15.8557 33.2934 19.0174 33.5964 22.0678 33.006C25.1181 32.4157 27.9201 30.9585 30.1193 28.8187C32.3184 26.679 33.8161 23.9528 34.4228 20.9849C35.0296 18.017 34.7182 14.9407 33.528 12.1449C32.3378 9.34924 30.3223 6.9597 27.7364 5.27852C25.1504 3.59733 22.1101 2.7 19 2.7C14.831 2.70476 10.8341 4.31824 7.88619 7.18651C4.93824 10.0548 3.27992 13.9436 3.27502 18Z" fill="#B7B7B7"/>
</svg>
