<svg width="12" height="20" viewBox="0 0 12 20" fill="none" xmlns="http://www.w3.org/2000/svg">
<path d="M0.000274222 9.97559C-0.00246951 10.2628 0.0573526 10.5472 0.175613 10.8089C0.293872 11.0706 0.467717 11.3034 0.685031 11.491L8.42822 19.2261C8.54712 19.3582 8.67956 19.4774 8.82331 19.5819C9.23368 19.9034 9.75489 20.0486 10.2723 19.9856C10.7897 19.9226 11.2608 19.6565 11.5821 19.2458C11.9035 18.8352 12.0486 18.3136 11.9856 17.7959C11.9226 17.2782 11.6567 16.8067 11.2463 16.4852L5.00436 10.2523C4.72782 9.96243 4.72782 9.96243 5.00436 9.68571L10.4299 4.24348C10.7591 3.91405 11.1015 3.58462 11.4175 3.24201C11.6362 3.00769 11.7901 2.72039 11.8639 2.40844C11.9378 2.09649 11.9292 1.77067 11.8389 1.46307C11.7484 1.12652 11.5706 0.819898 11.3235 0.574282C11.0764 0.328666 10.7688 0.15279 10.4319 0.0644897C10.095 -0.0238105 9.74072 -0.0213932 9.40503 0.0714876C9.06933 0.164368 8.76415 0.344404 8.52042 0.593363C8.13852 0.94915 7.78297 1.33129 7.41425 1.70025L0.685032 8.43385C0.465685 8.62552 0.290788 8.86279 0.172518 9.12907C0.0542474 9.39535 -0.00453324 9.68424 0.000274222 9.97559Z" fill="#2E2D2C"/>
</svg>
