<svg width="38" height="36" viewBox="0 0 38 36" fill="none" xmlns="http://www.w3.org/2000/svg">
<g opacity="0.5">
<path d="M12.525 18C12.5231 17.8225 12.5582 17.6464 12.6281 17.4825C12.6981 17.3185 12.8015 17.17 12.932 17.046L20.332 9.846C20.4596 9.71864 20.612 9.61742 20.7804 9.5483C20.9488 9.47919 21.1297 9.44357 21.3125 9.44357C21.4953 9.44357 21.6762 9.47919 21.8446 9.5483C22.013 9.61742 22.1655 9.71864 22.293 9.846C22.5528 10.0991 22.6988 10.4423 22.6988 10.8C22.6988 11.1578 22.5528 11.5009 22.293 11.754L15.8735 18L22.293 24.246C22.5381 24.5019 22.6715 24.8404 22.6652 25.1901C22.6588 25.5399 22.5132 25.8736 22.259 26.1209C22.0048 26.3683 21.6618 26.51 21.3023 26.5161C20.9429 26.5223 20.595 26.3925 20.332 26.154L12.932 18.954C12.8023 18.8294 12.6995 18.6808 12.6296 18.517C12.5597 18.3531 12.5242 18.1774 12.525 18Z" fill="#B7B7B7"/>
<path d="M0.5 18C0.5 14.4399 1.585 10.9598 3.61781 7.99974C5.65061 5.03966 8.5399 2.73256 11.9203 1.37018C15.3008 0.00780416 19.0205 -0.348663 22.6091 0.345871C26.1978 1.04041 29.4942 2.75474 32.0815 5.27209C34.6687 7.78943 36.4307 10.9967 37.1445 14.4884C37.8583 17.98 37.492 21.5992 36.0918 24.8883C34.6915 28.1774 32.3203 30.9886 29.278 32.9665C26.2357 34.9443 22.6589 36 19 36C14.0935 36 9.38793 34.1036 5.91851 30.7279C2.44909 27.3523 0.5 22.7739 0.5 18ZM34.725 18C34.725 14.9739 33.8027 12.0159 32.0748 9.49979C30.3469 6.98372 27.891 5.02268 25.0177 3.86466C22.1443 2.70663 18.9826 2.40363 15.9322 2.99399C12.8819 3.58434 10.0799 5.04152 7.88074 7.18126C5.68156 9.32101 4.18391 12.0472 3.57716 15.0151C2.97041 17.983 3.28182 21.0593 4.47201 23.8551C5.6622 26.6508 7.67768 29.0403 10.2636 30.7215C12.8496 32.4027 15.8899 33.3 19 33.3C23.169 33.2952 27.1659 31.6818 30.1138 28.8135C33.0618 25.9452 34.7201 22.0563 34.725 18Z" fill="#B7B7B7"/>
</g>
</svg>
