<svg width="110" height="30" viewBox="0 0 110 30" fill="none" xmlns="http://www.w3.org/2000/svg">
<path d="M17.9244 28.0892C17.9205 27.8413 17.9752 27.5961 18.0838 27.3737C18.1776 27.1442 18.3199 26.938 18.5006 26.7692C18.6723 26.5951 18.8764 26.4567 19.1013 26.3621C19.3341 26.2635 19.5842 26.2131 19.8368 26.2141C20.0869 26.2115 20.3343 26.2663 20.5601 26.3745C20.7776 26.4696 20.9735 26.6081 21.1363 26.7816C21.3064 26.952 21.4436 27.1528 21.5408 27.3737C21.6399 27.6032 21.69 27.8512 21.6879 28.1015C21.6847 28.3565 21.6305 28.6082 21.5286 28.8416C21.4344 29.0649 21.3016 29.2695 21.1363 29.446C20.9669 29.6172 20.7674 29.7553 20.5479 29.8531C20.3197 29.9528 20.0733 30.0033 19.8245 30.0011C19.572 30.0021 19.3218 29.9518 19.089 29.8531C18.8658 29.7554 18.6623 29.6174 18.4884 29.446C18.3153 29.266 18.1743 29.0574 18.0715 28.8293C17.9735 28.595 17.9234 28.3433 17.9244 28.0892ZM22.4725 23.1549L26.0521 6.41563L23.1345 5.7865L19.5549 22.5135L22.4725 23.1549ZM62.5472 8.13028H67.4508V5.94687H62.5472V0.00113732H60.8064C60.6363 -0.00897232 60.469 0.0486274 60.3406 0.161505C60.2234 0.268186 60.1456 0.411705 60.1199 0.568599L59.6541 5.89755H56.8713V7.4148C56.8645 7.50741 56.8774 7.60045 56.9091 7.68765C56.9408 7.77486 56.9905 7.85427 57.0551 7.9206C57.1827 8.02636 57.3435 8.08318 57.5088 8.08097H62.5595M66.9727 19.9601C66.9459 19.8735 66.8966 19.7957 66.8297 19.735C66.7628 19.6742 66.6809 19.6327 66.5927 19.6147C66.479 19.6268 66.3719 19.6742 66.2862 19.7503L65.8571 20.0217C65.6652 20.1331 65.4642 20.228 65.2564 20.3054C64.996 20.394 64.7221 20.4358 64.4473 20.4288C64.1994 20.4391 63.9519 20.3986 63.7201 20.3095C63.4882 20.2204 63.2769 20.0847 63.0989 19.9107C62.7226 19.4612 62.5375 18.8806 62.5839 18.2947V9.84494C62.1911 9.84494 61.8022 9.92279 61.4393 10.074C61.0764 10.2253 60.7466 10.447 60.4688 10.7265C60.1911 11.006 59.9707 11.3378 59.8204 11.7029C59.6701 12.0681 59.5927 12.4595 59.5927 12.8548V18.5044C59.5108 19.6907 59.8987 20.8614 60.6715 21.761C61.0824 22.1557 61.5702 22.4604 62.104 22.6558C62.6379 22.8511 63.2062 22.9328 63.7731 22.8959C64.5404 22.8986 65.3014 22.7564 66.0165 22.4765C66.7108 22.2281 67.3485 21.8422 67.8921 21.3417L66.9727 19.9601ZM5.67769 8.08097H10.5813V5.89755H5.67769V0.00113732H3.93693C3.85455 -0.00357372 3.77206 0.00817254 3.69421 0.0356955C3.61636 0.0632184 3.5447 0.10598 3.48336 0.161505C3.3624 0.266953 3.28033 0.410398 3.25043 0.568599L2.78458 5.89755H0.00176735V7.4148C-0.00503444 7.50741 0.00784617 7.60045 0.039553 7.68765C0.0712598 7.77486 0.121095 7.85427 0.185682 7.9206C0.313267 8.02636 0.473974 8.08318 0.639259 8.08097H5.68996M10.1154 19.9601C10.0755 19.8776 10.015 19.807 9.93976 19.7551C9.86455 19.7032 9.77726 19.6718 9.68641 19.664C9.57334 19.6784 9.46688 19.7256 9.37993 19.7997L8.95082 20.0711C8.75886 20.1824 8.55793 20.2773 8.35014 20.3548C8.09024 20.4454 7.81601 20.4873 7.54108 20.4782C7.29328 20.4871 7.0462 20.4458 6.81455 20.3568C6.5829 20.2678 6.37138 20.1329 6.19255 19.9601C5.81625 19.5106 5.63127 18.9299 5.67769 18.3441V9.89425C5.28488 9.89425 4.89596 9.9721 4.53305 10.1234C4.17014 10.2746 3.84035 10.4963 3.56259 10.7758C3.28484 11.0553 3.0645 11.3872 2.91418 11.7523C2.76386 12.1175 2.68649 12.5089 2.68649 12.9041V18.5538C2.60993 19.7394 2.9971 20.9082 3.76529 21.8104C4.17784 22.2027 4.66585 22.5057 5.19927 22.7009C5.73269 22.8961 6.30026 22.9792 6.86685 22.9453C7.63827 22.9495 8.40351 22.8072 9.12247 22.5258C9.81167 22.2744 10.4449 21.8888 10.9859 21.391L10.1154 19.9601ZM108.592 18.9239C108.364 18.9358 108.147 19.0274 107.979 19.1829C107.771 19.368 107.513 19.553 107.207 19.775C106.824 20.0191 106.412 20.2139 105.981 20.3548C105.399 20.5451 104.79 20.6328 104.179 20.6138C103.473 20.6237 102.774 20.4763 102.131 20.1821C101.519 19.9008 100.982 19.4782 100.562 18.9486C100.104 18.3408 99.767 17.6497 99.5694 16.9132C99.3149 16.015 99.1951 15.0837 99.2138 14.15V14.0637C99.1967 13.13 99.3166 12.199 99.5694 11.3005C99.767 10.5678 100.104 9.88072 100.562 9.27748C100.982 8.74783 101.519 8.3252 102.131 8.04392C102.772 7.74405 103.472 7.59636 104.179 7.61221C104.79 7.59325 105.399 7.68085 105.981 7.87121C106.412 8.01211 106.824 8.20692 107.207 8.45102C107.513 8.67306 107.771 8.85807 107.979 9.0431C108.147 9.19862 108.364 9.29027 108.592 9.30217C108.704 9.30566 108.815 9.2816 108.915 9.23215C109.015 9.18271 109.102 9.10933 109.168 9.0184L110.002 7.90825C109.658 7.43645 109.245 7.02044 108.776 6.6747C108.304 6.33918 107.793 6.06173 107.256 5.84824C106.708 5.62322 106.136 5.46179 105.552 5.36714C104.952 5.26759 104.345 5.21809 103.737 5.21912C102.723 5.20927 101.717 5.41084 100.783 5.8112C99.8743 6.19928 99.0622 6.78483 98.4048 7.52585C97.698 8.33029 97.1601 9.27015 96.8233 10.289C96.4303 11.482 96.2398 12.733 96.2594 13.9897V14.076C96.2402 15.3326 96.4308 16.5836 96.8233 17.7767C97.1601 18.7955 97.698 19.7354 98.4048 20.5398C99.0622 21.2808 99.8743 21.8664 100.783 22.2545C101.717 22.6548 102.723 22.8564 103.737 22.8466C104.345 22.8476 104.952 22.7981 105.552 22.6985C106.136 22.6039 106.708 22.4425 107.256 22.2174C107.793 22.0039 108.304 21.7265 108.776 21.391C109.247 21.048 109.661 20.6316 110.002 20.1574L109.168 19.0595C109.085 18.9914 108.988 18.9437 108.884 18.9202C108.78 18.8966 108.671 18.8979 108.567 18.9239H108.592ZM46.0711 18.9239C45.8421 18.9314 45.6239 19.0237 45.4582 19.1829C45.2079 19.3951 44.946 19.5927 44.6736 19.775C44.3112 20.017 43.9199 20.2118 43.5089 20.3548C42.9316 20.5442 42.3262 20.6319 41.7192 20.6138C41.0097 20.6215 40.3071 20.4743 39.6597 20.1821C39.0494 19.8977 38.5124 19.4756 38.0905 18.9486C37.6323 18.3408 37.2951 17.6497 37.0975 16.9132C36.8497 16.0137 36.7301 15.0834 36.742 14.15V14.0637C36.731 13.1304 36.8507 12.2002 37.0975 11.3005C37.2951 10.5678 37.6324 9.88072 38.0905 9.27748C38.5124 8.75043 39.0494 8.32832 39.6597 8.04392C40.3049 7.74511 41.0091 7.59752 41.7192 7.61221C42.3262 7.59418 42.9316 7.68177 43.5089 7.87121C43.9199 8.0142 44.3112 8.20905 44.6736 8.45102C44.946 8.63333 45.2079 8.83099 45.4582 9.0431C45.6239 9.20236 45.8421 9.29461 46.0711 9.30217C46.1811 9.30579 46.2903 9.28169 46.3888 9.23215C46.4873 9.18261 46.5718 9.10915 46.635 9.0184L47.4808 7.90825C47.1309 7.44199 46.7183 7.02684 46.2549 6.6747C45.2901 6.00322 44.1888 5.55654 43.0309 5.36714C42.4311 5.26836 41.8243 5.21886 41.2165 5.21912C40.1978 5.2104 39.1881 5.41189 38.2499 5.8112C37.3429 6.20244 36.5314 6.78753 35.8716 7.52585C35.1733 8.33426 34.64 9.27318 34.3024 10.289C33.9053 11.4813 33.7105 12.7323 33.7263 13.9897V14.076C33.7108 15.3333 33.9055 16.5844 34.3024 17.7767C34.64 18.7925 35.1733 19.7314 35.8716 20.5398C36.5314 21.2781 37.3429 21.8632 38.2499 22.2545C39.1881 22.6538 40.1978 22.8553 41.2165 22.8466C41.8243 22.8468 42.4311 22.7973 43.0309 22.6985C44.1888 22.5091 45.2901 22.0624 46.2549 21.391C46.7207 21.0416 47.1336 20.6261 47.4808 20.1574L46.635 19.0595C46.5481 18.9814 46.4424 18.9277 46.3283 18.9038C46.2142 18.88 46.0959 18.8869 45.9853 18.9239H46.0711ZM88.6589 10.3877C88.5197 9.14589 88.0015 7.97797 87.1755 7.04475C86.5402 6.42957 85.7854 5.95313 84.9584 5.64533C84.1315 5.33754 83.2502 5.20501 82.37 5.25608C81.7703 5.25482 81.1716 5.30433 80.5801 5.4041C79.9958 5.49876 79.4242 5.66019 78.8762 5.88521C78.3385 6.0987 77.8282 6.37614 77.3561 6.71167C76.8872 7.05741 76.4738 7.47342 76.1302 7.94522L76.9638 9.05545C77.0296 9.14637 77.1165 9.21975 77.2169 9.2692C77.3173 9.31864 77.4282 9.34263 77.5399 9.33914C77.768 9.32723 77.9848 9.23567 78.1529 9.08014C78.3613 8.89511 78.6187 8.71002 78.9252 8.48799C79.3081 8.24389 79.72 8.04915 80.1511 7.90825C80.7324 7.71789 81.3422 7.63022 81.9532 7.64918H82.4681C82.9937 7.66555 83.5096 7.79517 83.9812 8.02924C84.4528 8.26332 84.869 8.59645 85.2018 9.00613C86.1825 10.2397 85.876 13.1015 85.876 13.1015C84.2278 13.1096 82.5847 13.2874 80.9724 13.632C79.8356 13.8815 78.7411 14.2971 77.7238 14.8655C77.0005 15.2644 76.3858 15.8363 75.934 16.5308C75.5787 17.1185 75.3881 17.7919 75.3823 18.4798C75.3659 19.1724 75.4911 19.8609 75.7501 20.5028C75.9897 21.0437 76.3407 21.5272 76.7799 21.9214C77.2264 22.2966 77.7433 22.5777 78.3 22.7478C78.9029 22.9385 79.5314 23.0343 80.1634 23.0316C80.7602 23.0346 81.3557 22.9767 81.9409 22.8589C82.4564 22.7403 82.9578 22.5667 83.4365 22.3408C83.915 22.1264 84.3675 21.8573 84.785 21.539C85.2019 21.2183 85.6431 20.8482 86.0967 20.4288L86.3664 22.2051C86.395 22.3608 86.4769 22.5016 86.5978 22.603C86.7187 22.7044 86.871 22.76 87.0284 22.7602H88.7937V11.2265C88.7937 11.2265 88.7324 10.6221 88.6589 10.3877ZM85.778 18.5168C85.4533 18.857 85.1095 19.1783 84.7482 19.479C84.4024 19.7598 84.0286 20.0036 83.6327 20.2067C83.2432 20.4096 82.8319 20.5669 82.4068 20.6755C81.9362 20.7831 81.455 20.8369 80.9724 20.8359C80.5996 20.8385 80.2283 20.7887 79.8692 20.6878C79.5428 20.5994 79.2381 20.444 78.9742 20.2314C78.7223 20.0105 78.5215 19.7368 78.3858 19.4296C78.2305 19.0635 78.1552 18.668 78.1652 18.27C78.1729 17.8252 78.3187 17.3939 78.582 17.0365C78.9273 16.5939 79.3845 16.253 79.9059 16.0497C80.662 15.7186 81.4571 15.4865 82.2719 15.3589C83.4357 15.1669 84.6112 15.0557 85.7902 15.0259L85.778 18.5168Z" fill="#871727"/>
<path d="M11.6724 29.557C11.4142 29.4178 11.1996 29.2091 11.0524 28.9543C10.9052 28.6994 10.8313 28.4085 10.8388 28.1138C10.8327 27.815 10.9091 27.5204 11.0594 27.2627C11.2026 27.0098 11.4155 26.8041 11.6724 26.6705C11.9241 26.5439 12.1998 26.4729 12.481 26.4622C12.7622 26.4516 13.0424 26.5016 13.3029 26.6088C13.524 26.6967 13.7184 26.8413 13.8667 27.0283L13.3886 27.46C13.2922 27.3417 13.1705 27.247 13.0324 27.1829C12.8944 27.1188 12.7438 27.087 12.5918 27.0899C12.4085 27.0853 12.2271 27.1277 12.0647 27.2133C11.9142 27.3008 11.791 27.4291 11.7091 27.5834C11.6188 27.7453 11.5723 27.9282 11.5743 28.1138C11.574 28.2992 11.6204 28.4817 11.7091 28.6442C11.7952 28.7922 11.9176 28.9154 12.0647 29.0019C12.2262 29.0912 12.4075 29.1379 12.5918 29.1376C12.7446 29.1382 12.8956 29.1041 13.0336 29.0379C13.1715 28.9717 13.2928 28.8751 13.3886 28.7552L13.8667 29.1993C13.7151 29.3828 13.5217 29.5267 13.3029 29.6187C13.0665 29.7197 12.8118 29.7701 12.555 29.7667C12.2483 29.7691 11.9456 29.6972 11.6724 29.557Z" fill="#871727"/>
<path d="M30.0976 29.7051V27.7931L29.1659 29.372H28.835L27.9033 27.8301V29.7051H27.2168V26.5102H27.8297L29.0556 28.4962L30.2203 26.5102H30.8209V29.7051H30.0976Z" fill="#871727"/>
<path d="M36.4356 29.3844C36.3016 29.2393 36.1987 29.0681 36.1334 28.8813C36.068 28.6946 36.0415 28.4963 36.0555 28.2988V26.5102H36.7911V28.2495C36.7911 28.8293 37.024 29.113 37.4898 29.113C37.5876 29.1187 37.6853 29.1028 37.7763 29.0666C37.8674 29.0303 37.9495 28.9747 38.017 28.9033C38.1552 28.7152 38.2206 28.4827 38.2009 28.2495V26.4855H38.9241V28.2495C38.9381 28.447 38.9117 28.6453 38.8463 28.832C38.7809 29.0188 38.678 29.19 38.5441 29.335C38.2474 29.5817 37.8747 29.7167 37.4898 29.7167C37.105 29.7167 36.7322 29.5817 36.4356 29.335V29.3844Z" fill="#871727"/>
<path d="M47.1131 26.5102V29.7051H46.5002L44.9188 27.7684V29.7051H44.1955V26.5102H44.8084L46.3776 28.4592V26.5102H47.1131Z" fill="#871727"/>
<path d="M52.3967 26.5102H53.1323V29.7051H52.3967V26.5102Z" fill="#871727"/>
<path d="M59.078 29.5571C58.8227 29.4166 58.6075 29.2128 58.4527 28.965C58.3058 28.7058 58.2297 28.4122 58.2321 28.1138C58.226 27.815 58.3024 27.5204 58.4527 27.2627C58.6003 27.0089 58.8173 26.8033 59.078 26.6705C59.3486 26.5234 59.6532 26.451 59.9606 26.4608C60.2173 26.4585 60.4717 26.5089 60.7084 26.6088C60.926 26.697 61.1164 26.8418 61.2601 27.0283L60.7942 27.46C60.6973 27.3424 60.5754 27.2481 60.4375 27.1841C60.2996 27.12 60.1492 27.0879 59.9974 27.0899C59.8139 27.0836 59.6321 27.1262 59.4702 27.2133C59.3135 27.2967 59.1854 27.4257 59.1025 27.5834C59.0159 27.7463 58.9736 27.9292 58.9799 28.1138C58.9753 28.2982 59.0175 28.4808 59.1025 28.6442C59.1895 28.7957 59.3169 28.9196 59.4702 29.0019C59.6311 29.0928 59.8129 29.1396 59.9974 29.1376C60.1501 29.1373 60.3008 29.1029 60.4386 29.0367C60.5764 28.9706 60.6979 28.8744 60.7942 28.7552L61.2601 29.1994C61.111 29.3855 60.9168 29.5299 60.6961 29.6187C60.4601 29.7208 60.2052 29.7712 59.9484 29.7667C59.6456 29.769 59.3468 29.6971 59.078 29.5571Z" fill="#871727"/>
<path d="M68.3334 29.0267H66.8502L66.5681 29.7051H65.8204L67.2302 26.5102H67.9657L69.3755 29.7051H68.6155L68.3334 29.0267ZM68.1005 28.4592L67.5979 27.2256L67.0831 28.4592H68.1005Z" fill="#871727"/>
<path d="M74.8553 29.5571C74.5973 29.4204 74.3812 29.2158 74.23 28.965C74.0831 28.7058 74.007 28.4122 74.0094 28.1138C74.0033 27.815 74.0797 27.5204 74.23 27.2627C74.3741 27.0062 74.5921 26.7997 74.8553 26.6705C75.1259 26.5234 75.4305 26.451 75.738 26.4608C75.9908 26.4573 76.2414 26.5078 76.4735 26.6088C76.698 26.6904 76.894 26.8362 77.0374 27.0283L76.5716 27.46C76.4735 27.3437 76.3514 27.2504 76.2138 27.1865C76.0761 27.1226 75.9263 27.0896 75.7747 27.0899C75.5911 27.0824 75.409 27.125 75.2476 27.2133C75.0908 27.2967 74.9627 27.4257 74.8798 27.5834C74.7932 27.7463 74.7509 27.9292 74.7572 28.1138C74.7526 28.2982 74.7948 28.4808 74.8798 28.6442C74.9668 28.7957 75.0942 28.9196 75.2476 29.0019C75.4078 29.0945 75.59 29.1414 75.7747 29.1376C75.9271 29.1356 76.0772 29.1004 76.2148 29.0344C76.3524 28.9684 76.4741 28.8731 76.5716 28.7552L77.0374 29.1994C76.8883 29.3855 76.6941 29.5299 76.4735 29.6187C76.2374 29.7208 75.9826 29.7712 75.7257 29.7667C75.4229 29.769 75.1242 29.6971 74.8553 29.5571Z" fill="#871727"/>
<path d="M82.0758 26.5102H82.8113V29.7051H82.0758V26.5102Z" fill="#871727"/>
<path d="M99.3855 26.5102V29.7051H98.7848L97.2402 27.7684V29.7051H96.5169V26.5102H97.1176L98.699 28.4592V26.5102H99.3855Z" fill="#871727"/>
<path d="M88.7447 29.5447C88.4878 29.4111 88.2749 29.2055 88.1318 28.9527C87.9794 28.6975 87.8988 28.4054 87.8988 28.1077C87.8988 27.81 87.9794 27.5179 88.1318 27.2627C88.2818 27.0154 88.493 26.8113 88.7447 26.6705C89.023 26.5324 89.3292 26.4605 89.6396 26.4605C89.9499 26.4605 90.2562 26.5324 90.5345 26.6705C90.7873 26.8143 91.0017 27.0175 91.1597 27.2627C91.2738 27.4522 91.3483 27.6632 91.3786 27.8827C91.4089 28.1022 91.3944 28.3256 91.3358 28.5392C91.2773 28.7529 91.176 28.9522 91.0382 29.1251C90.9005 29.298 90.7291 29.4408 90.5345 29.5447C90.2585 29.6906 89.9514 29.7668 89.6396 29.7668C89.3278 29.7668 89.0207 29.6906 88.7447 29.5447ZM90.1544 29.002C90.3015 28.9154 90.424 28.7922 90.51 28.6443C90.595 28.4808 90.6372 28.2983 90.6326 28.1138C90.6388 27.9293 90.5966 27.7463 90.51 27.5834C90.4281 27.4291 90.3049 27.3009 90.1544 27.2133C89.9964 27.1277 89.819 27.0853 89.6396 27.09C89.4641 27.0851 89.2905 27.1277 89.137 27.2133C88.9839 27.2974 88.8598 27.4266 88.7814 27.5834C88.6911 27.7453 88.6447 27.9282 88.6466 28.1138C88.6463 28.2993 88.6927 28.4818 88.7814 28.6443C88.8641 28.7948 88.9874 28.9188 89.137 29.002C89.2896 29.0914 89.463 29.1382 89.6396 29.1376C89.82 29.138 89.9974 29.0913 90.1544 29.002ZM89.848 25.5973H90.6081L89.7867 26.2512H89.235L89.848 25.5973Z" fill="#871727"/>
</svg>
