<svg width="20" height="14" viewBox="0 0 20 14" fill="none" xmlns="http://www.w3.org/2000/svg">
<path d="M17.6921 0.00390459H2.27722C1.97404 -0.0125272 1.67055 0.0310634 1.38672 0.131798C1.10289 0.232533 0.845141 0.388127 0.630399 0.588376C0.415657 0.788624 0.24879 1.02899 0.140765 1.29367C0.0327394 1.55834 -0.0139945 1.84133 0.0036265 2.12405V11.8484C-0.0139945 12.1312 0.0327394 12.4141 0.140765 12.6788C0.24879 12.9435 0.415657 13.1839 0.630399 13.3841C0.845141 13.5844 1.10289 13.7399 1.38672 13.8407C1.67055 13.9414 1.97404 13.985 2.27722 13.9686H17.6921C17.9956 13.9862 18.2996 13.9434 18.584 13.843C18.8684 13.7427 19.1267 13.5871 19.3417 13.3866C19.5567 13.1861 19.7235 12.9453 19.8311 12.6801C19.9387 12.4149 19.9846 12.1314 19.9657 11.8484V2.13819C19.9868 1.85406 19.9426 1.56899 19.836 1.30208C19.7294 1.03517 19.563 0.792552 19.3477 0.590489C19.1324 0.388426 18.8734 0.23158 18.5879 0.130418C18.3024 0.0292559 17.997 -0.0138851 17.6921 0.00390459ZM18.7531 3.89083V11.6647C18.7593 11.8706 18.7286 12.076 18.6622 12.2725L13.3041 6.81664C14.9714 5.76363 16.6615 4.6965 18.3439 3.6859C18.45 3.61523 18.5637 3.48095 18.6774 3.53042C18.791 3.57989 18.7531 3.74242 18.7531 3.89083ZM1.37536 1.62229C1.47779 1.47994 1.62058 1.3669 1.78785 1.29578C1.95511 1.22466 2.14027 1.19823 2.32269 1.21945H17.6164C17.8227 1.19359 18.0326 1.22795 18.2171 1.3178C18.4017 1.40765 18.5519 1.54858 18.647 1.72124C18.6774 1.76063 18.6979 1.80583 18.707 1.85357C18.7162 1.90131 18.7138 1.95037 18.7 1.99712C18.6862 2.04388 18.6613 2.08715 18.6272 2.12379C18.5932 2.16043 18.5507 2.18948 18.5031 2.20885C16.0097 3.74948 13.5239 5.31134 11.0229 6.84491C10.7061 7.05239 10.3264 7.16015 9.93934 7.15252C9.55223 7.1449 9.17782 7.02226 8.87062 6.80249C6.41514 5.28305 3.97482 3.75656 1.51177 2.2442C1.19346 2.01098 1.21621 1.8343 1.37536 1.62229ZM1.26926 3.57987C1.41325 3.49507 1.54209 3.67176 1.66335 3.74243C3.39128 4.81663 5.12678 5.86257 6.84713 6.97211L1.29199 12.2725C1.23202 12.0821 1.2039 11.8842 1.20863 11.6859V3.95443C1.20863 3.81309 1.13284 3.62229 1.26926 3.54455V3.57987ZM17.4799 12.8166H2.43636C2.21511 12.8203 1.99478 12.7893 1.7846 12.7248L7.45342 7.3184C7.65046 7.43854 7.8475 7.55867 8.03697 7.68588C8.61061 8.05202 9.28953 8.24796 9.98468 8.24796C10.6798 8.24796 11.3587 8.05202 11.9324 7.68588L12.6902 7.20532L18.1317 12.746C17.9199 12.8017 17.6998 12.8256 17.4799 12.8166Z" fill="#871727"/>
</svg>
