<svg width="22" height="16" viewBox="0 0 22 16" fill="none" xmlns="http://www.w3.org/2000/svg">
<path d="M0.605491 3.48256C0.4542 3.37412 0.295341 3.13401 0.106227 3.2502C-0.0828878 3.36638 0.0381482 3.62197 0.0381482 3.81561C0.0381482 7.33213 0.0381482 10.8564 0.0381482 14.3807C0.0298943 14.6553 0.0630562 14.9296 0.13648 15.1939L7.08833 7.9053C4.93999 6.41814 2.76896 4.95423 0.605491 3.48256Z" fill="#871727"/>
<path d="M13.4501 8.90449C12.7324 9.40634 11.8835 9.67482 11.0143 9.67482C10.1452 9.67482 9.2963 9.40634 8.57855 8.90449C8.33648 8.72634 8.08685 8.56368 7.82209 8.39328L0.756781 15.8756C1.02043 15.9633 1.29658 16.0052 1.57376 15.9995H20.4171C20.6732 16.0027 20.9282 15.9661 21.1736 15.891L14.3655 8.28485L13.4501 8.90449Z" fill="#871727"/>
<path d="M0.416373 1.42222C3.48759 3.49031 6.55125 5.58938 9.6149 7.6807C9.99779 7.98237 10.4647 8.15104 10.9477 8.16218C11.4307 8.17332 11.9045 8.02636 12.3003 7.74266C15.432 5.6281 18.5411 3.4903 21.6653 1.368C21.7235 1.34031 21.7751 1.29986 21.8164 1.2495C21.8578 1.19915 21.8878 1.14012 21.9044 1.07659C21.921 1.01306 21.9237 0.946589 21.9125 0.881841C21.9012 0.817093 21.8762 0.755658 21.8392 0.701887C21.7205 0.463413 21.5321 0.268816 21.3002 0.145241C21.0683 0.0216652 20.8046 -0.0247392 20.5457 0.0125147C17.3837 0.0125147 14.2217 0.0125147 11.0597 0.0125147H8.38187C6.06711 0.0125147 3.74479 0.0125147 1.42246 0.0125147C1.19708 -0.0181872 0.967792 0.0163257 0.760574 0.112148C0.553356 0.20797 0.376479 0.361284 0.249951 0.554718C0.0381433 0.903271 0.0230151 1.15887 0.416373 1.42222Z" fill="#871727"/>
<path d="M21.8771 3.23469C21.7333 3.16498 21.5896 3.35089 21.461 3.44384C19.3581 4.87678 17.2476 6.30197 15.1597 7.7504L21.8544 15.2327C21.9444 14.9665 21.9855 14.6854 21.9754 14.4039V3.73042C21.9754 3.56002 22.0738 3.31989 21.8771 3.23469Z" fill="#871727"/>
</svg>
