<svg width="819" height="170" viewBox="0 0 819 170" fill="none" xmlns="http://www.w3.org/2000/svg">
<path d="M245.467 23.5851L260.49 46.2849C261.794 44.7275 262.953 43.1925 264.268 41.8032C267.612 38.3075 270.955 34.8902 274.298 31.4169C277.135 28.4466 280.475 26.0072 284.162 24.2125C286.569 23.0921 289.11 22.1285 291.617 21.1986C292.665 20.8064 292.877 21.0753 292.732 22.2406C292.219 26.8455 291.673 31.4504 291.227 36.0666C290.837 40.2682 290.47 44.4698 290.258 48.6714C290.013 53.4221 289.767 58.1839 289.89 62.9233C289.938 68.0598 291.354 73.0894 293.991 77.4889C295.143 79.5711 296.88 81.2662 298.984 82.3627C300.773 83.285 302.786 83.6778 304.789 83.4953C306.791 83.3128 308.701 82.5626 310.296 81.332C311.321 80.5589 312.235 79.6401 313.339 78.6541C313.428 79.1995 313.487 79.7494 313.517 80.3012C313.604 83.6092 313.229 86.913 312.403 90.1161C311.076 94.7659 308.112 98.2729 302.283 98.1944C298.393 98.1384 294.827 97.4437 291.829 94.8331C289.575 92.7213 287.813 90.1349 286.669 87.259C285.273 83.7723 284.13 80.1888 283.248 76.5365C282.334 73.3694 281.353 70.221 280.305 67.0913C278.589 62.027 276.884 57.0074 275.001 51.9543C274.354 50.4588 273.478 49.0749 272.404 47.8535C272.224 47.5485 271.974 47.2908 271.675 47.1017C271.377 46.9126 271.038 46.7975 270.687 46.7657C270.335 46.734 269.981 46.7866 269.654 46.9193C269.327 47.0519 269.035 47.2608 268.804 47.5286C267.378 48.884 266.034 50.3244 264.781 51.8423C264.702 52.0184 264.661 52.2094 264.661 52.4025C264.661 52.5956 264.702 52.7865 264.781 52.9627C266.511 57.6539 267.635 62.5492 268.124 67.5283C268.514 71.0576 268.927 74.6542 267.834 78.1724C266.386 82.8445 263.376 85.3207 258.517 85.6568C256.014 85.9709 253.473 85.5589 251.195 84.4692C249.696 83.7074 248.397 82.5996 247.405 81.2364C246.414 79.8733 245.757 78.2934 245.489 76.6262C244.597 71.5394 246.704 67.2706 249.434 63.2482C250.549 61.6236 251.808 60.0999 253.068 58.5873C253.289 58.3764 253.422 58.088 253.439 57.7816C253.455 57.4752 253.354 57.1741 253.157 56.9402C251.912 55.064 250.193 53.5556 248.175 52.5706C247.911 52.3935 247.61 52.2789 247.296 52.2356C246.982 52.1924 246.662 52.2215 246.36 52.3208C246.058 52.42 245.783 52.5869 245.555 52.8087C245.327 53.0305 245.152 53.3016 245.043 53.6014C243.628 56.324 242.313 59.0914 240.92 61.8253C238.468 66.6655 235.994 71.4909 233.497 76.3013C232.271 78.6542 231.057 81.0182 229.675 83.2703C228.449 85.2759 226.966 87.1134 225.629 89.0518C222.609 93.6404 218.668 97.5444 214.061 100.514C207.374 104.693 200.185 106.743 192.273 105.668C189.414 105.277 186.654 104.349 184.137 102.934C182.929 102.234 181.913 101.243 181.181 100.05C180.449 98.8565 180.025 97.4987 179.946 96.0992C179.277 91.3498 179.657 86.5104 181.061 81.9258C181.217 81.444 181.451 80.9734 181.652 80.4917C183.479 81.4888 185.14 82.4748 186.867 83.3487C190.275 85.0963 193.996 86.1401 197.812 86.4187C202.005 86.8395 206.24 86.4593 210.294 85.2983C213.375 84.2541 216.217 82.6008 218.652 80.4356C222.956 76.6592 226.419 72.0129 228.816 66.8C231.26 61.6291 233.226 56.2433 234.69 50.7106C236.038 45.848 237.532 40.9965 239.337 36.2795C240.831 32.3692 242.87 28.6718 244.687 24.896C244.914 24.4401 245.175 24.0019 245.467 23.5851ZM262.273 73.3433C262.118 71.8046 261.884 70.275 261.571 68.7607C261.025 66.6431 260.457 64.4919 258.763 62.9009C258.083 62.2735 257.57 62.2286 256.968 62.9009C255.443 64.5693 254.281 66.539 253.556 68.6842C252.83 70.8294 252.558 73.103 252.755 75.3601C252.884 76.4335 253.399 77.4224 254.205 78.139C255.01 78.8556 256.049 79.2502 257.124 79.248C259.688 79.4049 261.393 78.2508 261.917 75.8867C262.08 75.0459 262.199 74.1969 262.273 73.3433Z" fill="#871727"/>
<path d="M502.032 153.7C504.539 154.037 506.724 154.474 508.93 154.586C512.831 154.787 516.732 154.911 520.632 154.81C523.781 154.736 526.856 153.832 529.548 152.188C531.003 151.052 532.28 149.704 533.337 148.188C534.095 147.28 534.452 147.236 535.087 148.188C536.73 150.187 537.78 152.609 538.118 155.179C538.34 157.465 537.85 159.764 536.714 161.756C534.352 165.947 530.384 167.034 526.015 167.695C519.085 168.549 512.084 168.666 505.13 168.042C496.47 167.493 487.855 166.294 479.218 165.364C478.84 165.271 478.468 165.155 478.104 165.017C479.296 163.191 480.422 161.499 481.525 159.807C482.796 157.868 484.033 155.919 485.314 154.003C486.596 152.087 487.967 150.272 489.237 148.401C490.686 146.25 492.035 144.031 493.483 141.88C495.144 139.437 496.905 137.073 498.554 134.62C500.393 131.897 502.143 129.118 503.948 126.373C505.264 124.39 506.568 122.396 507.927 120.435C508.652 119.393 508.585 119.079 507.571 118.317C506.07 117.332 504.301 116.843 502.511 116.917C497.806 116.659 493.11 117.567 488.836 119.561C486.506 120.592 484.466 122.185 482.896 124.2C482.372 124.917 481.904 124.962 481.414 124.2C479.018 120.469 477.513 116.502 478.85 112.032C479.446 110.378 480.64 109.01 482.194 108.2C485.769 106.276 489.662 105.023 493.684 104.502C499.766 103.598 505.924 103.324 512.062 103.685C514.893 103.808 517.701 104.424 520.532 104.626C524.391 105.071 528.115 106.323 531.465 108.301C532.747 108.973 532.769 109.085 531.955 110.25C528.969 114.564 525.948 118.866 522.962 123.18L506.712 146.922L502.032 153.7Z" fill="#871727"/>
<path d="M35.1418 54.9907C39.4994 55.2596 41.7618 57.8254 43.1772 61.2539C45.4062 66.6208 45.0941 72.1221 43.4558 77.5449C42.5949 80.5725 41.4221 83.5015 39.9564 86.2843C38.6333 88.564 36.9849 90.6364 35.0638 92.4354C33.5347 93.755 31.8367 94.8629 30.0152 95.7295C27.5856 97.0404 23.4063 95.8639 21.3334 93.2645C20.2932 91.8082 19.3369 90.2932 18.4692 88.7268C18.2908 89.9929 18.0791 91.4495 17.8673 92.906C17.8005 93.3206 17.7559 93.7351 17.689 94.1497C17.3993 95.9872 17.3993 96.0432 15.4601 95.9648C12.7407 95.8527 10.0214 95.651 7.48036 95.5054C8.14905 73.7803 8.8066 52.1672 9.47529 30.5205C5.01736 29.9267 3.2119 31.1256 2.10856 35.3944C0.790491 33.8279 0.0643357 31.8441 0.0579175 29.7923C-0.21825 26.3277 0.497154 22.856 2.11971 19.7868C2.90293 18.3667 3.80127 17.0139 4.80561 15.7421C5.23254 15.2039 5.83776 14.838 6.51077 14.7113C11.6262 14.1398 16.7529 13.6693 21.8906 13.1763C22.6707 13.0978 22.8825 13.5124 22.7822 14.2295C22.1247 19.2266 21.456 24.2349 20.8096 29.2433C20.6502 30.5177 20.6092 31.8042 20.687 33.0863C21.1662 32.3917 21.612 31.6858 22.1358 31.0359C24.3648 28.3021 26.9169 26.1621 30.5278 25.7475C34.1388 25.333 37.5045 26.8679 39.6889 31.204C41.8733 35.5401 41.8398 39.9882 41.1266 44.5595C40.6339 47.7729 39.2248 50.7736 37.0699 53.198C36.546 53.7807 35.9219 54.2624 35.1418 54.9907ZM24.6099 56.1111C24.9104 55.8626 25.2269 55.6343 25.5573 55.4277C28.0433 54.0631 29.9149 51.793 30.7876 49.084C31.6602 46.3749 31.4676 43.4328 30.2492 40.8621C29.9008 40.0992 29.3463 39.4499 28.6488 38.9883C27.9512 38.5268 27.1388 38.2715 26.304 38.2515C23.9301 38.2515 22.3253 39.54 20.921 41.1534C20.3022 41.8553 19.9131 42.7315 19.8065 43.6632C19.6059 46.1953 19.6282 48.7387 19.5613 51.2709C19.5613 52.9403 19.4165 54.6322 19.4388 56.2792C19.4945 60.2231 19.7397 64.1222 19.6728 68.1109C19.6059 71.8532 19.149 75.5954 19.0264 79.3152C19.0324 80.0745 19.2078 80.8228 19.5396 81.5049C19.8714 82.187 20.3512 82.7855 20.9437 83.2564C21.5362 83.7273 22.2262 84.0586 22.963 84.2259C23.6997 84.3931 24.4644 84.392 25.2006 84.2227C28.3992 83.5729 30.2269 81.4552 31.4863 78.6989C33.0389 75.1249 33.5453 71.1799 32.9463 67.3266C32.2776 62.2287 30.3272 58.0046 24.6099 56.1559V56.1111Z" fill="#871727"/>
<path d="M473.144 69.0745C472.854 72.8167 471.74 76.0771 468.619 78.3628C464.916 80.8884 460.689 82.5323 456.26 83.1695C450.425 84.1139 444.513 84.4891 438.606 84.2899C435.858 84.451 433.143 83.6206 430.95 81.9482C429.028 80.4534 427.618 78.3933 426.915 76.0547C426.826 75.7074 426.693 75.3713 426.537 74.8671C424.965 76.0771 423.461 77.1752 422.079 78.3628C417.419 82.2796 411.524 84.4006 405.451 84.3459C404.494 84.3596 403.544 84.1797 402.657 83.8172C401.771 83.4546 400.966 82.9167 400.29 82.2353C399.614 81.5539 399.082 80.7429 398.724 79.8506C398.366 78.9583 398.19 78.0027 398.206 77.0407C398.131 74.714 398.546 72.3975 399.426 70.2441C400.306 68.0908 401.63 66.1494 403.311 64.548C407.014 60.6739 411.482 57.6208 416.428 55.5845C418.615 54.607 421.005 54.1764 423.394 54.3296C424.17 54.394 424.919 54.6495 425.574 55.0735C426.229 55.4975 426.77 56.077 427.15 56.761C427.807 58.0047 427.45 59.7861 427.495 61.3323C427.495 61.4443 426.982 61.7133 426.793 61.646C423.104 60.4248 419.928 62.0158 416.874 63.6628C413.633 65.3828 410.891 67.9193 408.917 71.024C408.741 71.2708 408.588 71.5334 408.46 71.8083C408.21 72.2153 408.071 72.6812 408.058 73.1591C408.044 73.6371 408.156 74.1102 408.382 74.531C408.681 74.9323 409.086 75.2414 409.55 75.4236C410.015 75.6058 410.521 75.6536 411.012 75.5617C413.967 75.2852 416.769 74.113 419.047 72.2004C421.365 70.2957 423.583 68.279 425.857 66.3406C427.963 64.5367 428.431 62.027 428.732 59.506C429.3 54.6882 428.186 49.9936 427.439 45.2878C426.325 38.2291 425.132 31.1704 423.962 24.1117C423.55 21.6019 423.093 19.0921 422.658 16.5375L445.906 3.02517L446.285 3.20448C446.151 4.05601 446.018 4.9075 445.873 5.75902C445.561 7.5405 445.215 9.32201 444.937 11.1035C444.246 15.4732 443.577 19.8465 442.931 24.2237C442.284 28.6382 441.694 33.0751 441.047 37.4896C440.635 40.3691 440.133 43.2374 439.743 46.1169C439.164 50.4754 438.629 54.845 438.105 59.2147C437.797 61.5811 437.644 63.9653 437.648 66.3518C437.704 69.6011 439.253 71.4386 442.418 72.2901C443.979 72.7346 445.581 73.0199 447.199 73.1416C453.474 73.5114 459.793 73.8475 465.945 72.2117C468.079 71.4797 470.151 70.5767 472.141 69.5115C472.375 69.4106 472.576 69.2202 472.799 69.0969C472.81 69.0073 472.899 69.0521 473.144 69.0745Z" fill="#871727"/>
<path d="M680.516 152.86C680.626 154.455 680.293 156.049 679.553 157.464C678.813 158.879 677.695 160.059 676.325 160.871C672.814 162.926 668.951 164.302 664.935 164.927C660.202 165.854 655.378 166.23 650.558 166.048C647.427 165.969 644.629 164.983 643.058 162.16C642.351 160.551 641.936 158.828 641.832 157.073C641.823 156.093 641.951 155.116 642.211 154.171C642.2 153.858 642.116 153.552 641.966 153.277C641.816 153.002 641.605 152.767 641.348 152.589C641.091 152.412 640.796 152.297 640.488 152.255C640.179 152.212 639.864 152.243 639.57 152.345C638.487 152.772 637.507 153.425 636.694 154.261C634.287 156.826 632.08 159.583 629.662 162.104C628.079 163.784 626.318 165.465 623.922 165.801C620.323 166.384 616.121 165.095 615.307 161.084C615.04 159.341 615.017 157.568 615.241 155.818C615.408 153.577 615.764 151.28 616.088 149.017C616.377 147.011 616.756 145.006 617.068 143C617.38 140.995 617.626 139.258 617.893 137.398C618.328 134.373 618.74 131.348 619.175 128.312C619.799 123.964 620.423 119.606 621.092 115.27C621.504 112.57 621.961 109.892 622.462 107.214C622.521 107.024 622.622 106.85 622.757 106.704C622.892 106.559 623.058 106.446 623.243 106.374C627.388 105.051 631.545 103.774 635.714 102.508C636.158 102.451 636.607 102.451 637.051 102.508C636.137 105.668 635.234 108.76 634.332 111.852C631.932 120.181 629.532 128.506 627.132 136.827C626.162 140.188 625.07 143.482 624.101 146.832C623.826 147.86 623.672 148.917 623.644 149.981C623.644 151.28 624.19 151.785 625.327 151.224C626.805 150.48 628.196 149.57 629.472 148.513C631.891 146.507 634.131 144.3 636.561 142.317C638.349 140.707 640.498 139.554 642.824 138.956C645.677 138.351 648.508 139.493 648.742 142.72C648.765 143.845 648.69 144.97 648.519 146.082C648.274 148.233 647.839 150.362 647.75 152.524C647.7 153.184 647.78 153.847 647.987 154.475C648.193 155.104 648.521 155.685 648.953 156.185C649.384 156.685 649.909 157.094 650.498 157.389C651.088 157.684 651.729 157.858 652.386 157.902C657.141 158.469 661.956 158.277 666.652 157.331C669.794 156.714 672.859 155.706 675.935 154.776C676.876 154.398 677.788 153.952 678.666 153.443C679.234 153.241 679.736 153.129 680.516 152.86Z" fill="#871727"/>
<path d="M539.645 41.8256C538.631 44.7051 537.606 47.2037 536.859 49.7919C535.745 53.7582 534.63 57.7693 533.694 61.7805C533.523 62.715 533.474 63.668 533.549 64.6152C533.549 66.0269 534.53 66.6431 535.678 65.814C537.203 64.6933 538.634 63.4493 539.957 62.0942C543.406 58.3529 547.277 55.0289 551.492 52.1896C552.961 51.2595 554.556 50.5498 556.229 50.0832C559.037 49.3325 561.099 50.8003 561.801 53.6461C562.726 57.3548 562.615 61.1306 562.637 64.8504C562.637 66.1501 562.637 67.4499 562.715 68.7384C562.688 69.7023 563.014 70.6426 563.63 71.3817C564.246 72.1208 565.11 72.6074 566.059 72.7495C567.994 73.1047 569.954 73.3033 571.921 73.3433C578.151 73.5002 584.358 73.2873 590.399 71.461C594.509 70.2807 598.463 68.6106 602.179 66.4863L603.405 65.814C603.082 66.9344 602.914 67.6628 602.614 68.4022C601.453 71.1439 599.737 73.6126 597.576 75.6514C593.374 79.7186 588.181 81.7129 582.586 82.6204C578.899 83.2072 575.174 83.5181 571.442 83.5504C566.657 83.696 561.896 82.8296 557.466 81.0071C553.777 79.4161 553.22 78.2172 553.075 74.5422C552.986 72.2229 553.075 69.8924 553.075 67.5619C552.964 67.0347 552.773 66.5281 552.506 66.0605C552.061 66.2156 551.641 66.4345 551.258 66.7104C547.547 70.363 543.88 74.0604 540.113 77.6906C538.595 79.1689 536.995 80.5604 535.321 81.8585C534.691 82.2365 533.971 82.4341 533.237 82.43C531.957 82.6144 530.654 82.3173 529.579 81.5957C528.503 80.8741 527.73 79.7788 527.408 78.5197C526.436 75.745 526.001 72.809 526.127 69.87C526.327 63.7749 526.576 57.6797 526.873 51.5846C526.947 51.0475 527.227 50.5608 527.654 50.2289C531.164 47.5734 534.719 44.9628 538.263 42.3858C538.706 42.1568 539.169 41.9692 539.645 41.8256Z" fill="#871727"/>
<path d="M636.293 73.2537C635.301 74.15 634.488 75.0015 633.574 75.7186C629.566 79.0453 624.89 81.4609 619.866 82.7997C616.888 83.7068 613.68 83.4507 610.883 82.0826C609.769 81.5568 608.817 80.7375 608.128 79.7118C607.439 78.686 607.039 77.492 606.971 76.2564C606.525 70.1725 609.2 65.3883 613.078 61.153C617.142 56.3889 622.745 53.2155 628.904 52.1896C631.49 51.7975 634.109 51.7414 636.371 53.31C637.296 54.0725 638.116 54.954 638.812 55.9319C639.076 56.3515 639.286 56.8032 639.436 57.2763C640.651 56.4248 641.776 55.6742 642.88 54.8787C643.738 54.2624 644.54 53.5566 645.443 52.9963C645.9 52.705 646.78 52.3352 646.992 52.5257C647.595 53.0154 647.993 53.7154 648.107 54.4865C647.987 55.6913 647.748 56.8812 647.393 58.0383C646.587 61.0222 646.372 64.136 646.758 67.2034C647.438 71.4162 649.578 73.3097 653.891 73.5898C658.559 73.7319 663.225 73.2229 667.755 72.0772C673.148 70.8365 678.407 69.069 683.458 66.8C683.91 66.6086 684.371 66.4404 684.84 66.2958C685.077 66.2658 685.316 66.2658 685.553 66.2958C685.497 68.8856 684.758 71.4139 683.413 73.6234C681.184 76.8503 677.952 78.6878 674.497 80.1555C668.778 82.4528 662.68 83.6462 656.521 83.6736C652.81 83.7633 649.087 83.5728 645.376 83.4384C643.326 83.3003 641.384 82.4652 639.869 81.0704C638.354 79.6756 637.357 77.804 637.04 75.7634C636.847 74.911 636.597 74.0725 636.293 73.2537ZM619.42 73.5786C619.587 73.5786 619.955 73.5786 620.334 73.4442C623.839 72.5903 627.1 70.9338 629.863 68.6039C632.271 66.934 634.244 64.7048 635.613 62.1054C636.46 60.2791 635.825 58.7441 633.563 58.9234C632.922 58.9659 632.288 59.0709 631.668 59.2371C628.255 60.2983 625.095 62.0525 622.384 64.3911C620.206 65.9925 618.434 68.0885 617.213 70.5086C616.377 72.3797 617.18 73.601 619.42 73.5786Z" fill="#871727"/>
<path d="M725.786 36.1899C726.314 37.5146 726.477 38.958 726.257 40.3679C726.037 41.7778 725.443 43.102 724.538 44.2009C723.445 45.4203 722.084 46.3655 720.563 46.9609C719.042 47.5563 717.403 47.7852 715.778 47.6294C713.215 47.4502 710.64 47.3493 708.155 47.2149C708.155 53.5341 708.155 59.7637 708.155 66.0045C708.315 68.9915 708.278 71.9859 708.043 74.9679C707.832 77.0551 707.035 79.0388 705.744 80.6874C704.453 82.3361 702.723 83.5817 700.755 84.2787C698.816 84.8978 696.834 85.3698 694.826 85.6905C694.266 85.7379 693.703 85.7379 693.143 85.6905L695.695 83.7857C696.519 83.1988 697.189 82.4185 697.645 81.5125C698.102 80.6066 698.331 79.6023 698.314 78.5869C698.314 69.7019 698.314 60.8281 698.314 51.9431C698.314 50.1056 698.314 48.2793 698.314 46.453C698.29 46.2581 698.22 46.0718 698.11 45.9099C697.999 45.748 697.851 45.6153 697.679 45.523C692.563 44.2121 687.504 44.1561 682.589 46.397C681.803 46.7908 681.056 47.2598 680.36 47.7975C679.825 48.1897 679.346 48.6715 678.666 49.2541C679.196 44.9684 681.347 41.0525 684.673 38.3187C686.152 37.1583 687.979 36.538 689.855 36.5596C692.541 36.5596 695.227 36.5596 698.058 36.5596C698.058 36.2235 698.058 35.7865 698.058 35.3384C697.909 26.1359 697.76 16.9446 697.612 7.76456C697.612 5.19878 698.158 4.40332 700.666 3.74226C703.173 3.08121 705.759 2.62185 708.3 2.07283C710.674 1.50142 713.036 0.829142 715.41 0.235315C716.026 0.121188 716.647 0.0426047 717.271 0L715.232 4.48172C714.229 6.72257 713.17 8.96343 712.212 11.2043C712.099 11.5854 711.864 11.9183 711.543 12.1514C711.223 12.3844 710.835 12.5044 710.44 12.4928C709.994 12.4928 709.548 12.6721 709.102 12.6945C706.962 12.8065 706.873 12.8065 706.974 14.9913C707.163 22.487 707.408 29.9715 707.598 37.4672C707.598 38.2514 708.077 38.4643 708.645 38.5876C712.296 39.2778 716.024 39.4551 719.723 39.1142C721.456 39.0561 723.134 38.4873 724.549 37.4784C724.99 37.0776 725.403 36.6472 725.786 36.1899Z" fill="#871727"/>
<path d="M351.209 61.3659L355.388 58.3407C355.854 57.9525 356.345 57.5969 356.859 57.2763C357.327 57.0298 358.085 56.6489 358.364 56.8394C358.89 57.2488 359.247 57.8394 359.367 58.4976C359.397 59.2152 359.283 59.9315 359.032 60.604C358.098 63.8182 357.68 67.1619 357.795 70.5086C358.041 74.7214 360.392 77.0855 364.661 77.2311C369.98 77.3827 375.286 76.6249 380.352 74.9903C384.721 73.6682 388.956 71.8867 393.247 70.3069L394.54 69.8028C394.339 73.7131 393.214 76.9959 390.349 79.5729C386.839 82.7437 382.548 84.3122 378.09 85.4215C371.016 87.0598 363.717 87.4803 356.503 86.6652C354.936 86.5779 353.423 86.0593 352.13 85.1662C350.837 84.273 349.812 83.0396 349.169 81.6008C348.613 80.1226 348.177 78.6013 347.865 77.0519C346.216 78.3628 344.633 79.8306 342.839 80.9846C338.548 83.7297 334.191 86.385 328.863 86.4747C326.91 86.5773 324.97 86.0937 323.291 85.0854C320.761 83.5055 320.014 80.8614 320.271 77.8362C321.173 67.1137 332.352 57.6685 341.156 56.4584C343.283 55.9956 345.499 56.1829 347.52 56.9962C348.271 57.3208 348.947 57.8009 349.502 58.4051C350.056 59.0093 350.479 59.7241 350.741 60.5031C350.869 60.8049 351.026 61.0938 351.209 61.3659ZM345.636 62.9793C345.005 63.0867 344.38 63.2289 343.764 63.4051C339.387 64.8399 335.473 67.4283 332.43 70.9007C331.43 72.0308 330.613 73.3127 330.011 74.699C329.343 76.2004 330.19 77.2311 331.861 77.1639C332.618 77.1206 333.366 76.9852 334.09 76.7606C337.763 75.5222 341.106 73.4566 343.864 70.7214C345.498 69.4119 346.781 67.7137 347.598 65.7804C348.233 64.0325 347.498 63.0577 345.636 62.9793Z" fill="#871727"/>
<path d="M82.0503 52.4585V53.9935C82.0503 57.6013 82.1729 61.2091 82.1618 64.8056C82.1618 68.1109 82.0169 71.4162 82.0169 74.7214C82.0276 76.4584 82.1281 78.1937 82.3178 79.9202C82.3767 80.4259 82.6301 80.8883 83.0237 81.2087C83.4173 81.529 83.9199 81.6819 84.4242 81.6345C87.4333 81.6345 90.4535 81.444 93.4738 81.3095C96.8355 81.1894 100.035 79.8248 102.456 77.4777C102.837 77.1811 103.248 76.9257 103.682 76.7158L104.006 76.9959L102.445 80.8278C101.161 84.1693 99.1374 87.1732 96.5274 89.612C91.0776 94.5418 83.7555 94.8668 78.1385 90.161C76.5313 88.7968 75.144 87.1904 74.0261 85.3991C73.2682 84.1779 73.1679 82.542 72.7444 80.9174C72.4881 81.2199 72.2095 81.5336 71.9754 81.8698C70.944 83.5 69.828 85.0745 68.632 86.5868C66.3696 89.3033 63.481 91.4227 60.2176 92.7604C57.7881 93.7127 56.3838 92.8612 55.0576 90.6987C53.2818 87.6433 52.3829 84.1528 52.4608 80.6149C52.3828 74.1612 52.2937 67.7076 52.2491 61.2539C52.2716 60.745 52.473 60.2606 52.8175 59.8869C55.2582 57.478 57.7435 55.1027 60.2399 52.7498C60.7284 52.3831 61.2553 52.0712 61.8113 51.8198C61.6665 60.3127 61.5327 68.6263 61.3878 77.1752C62.2699 77.0314 63.1385 76.8141 63.9846 76.5254C66.6194 75.2669 68.7918 73.2044 70.1922 70.6319C72.1208 67.2765 73.5194 63.6403 74.3381 59.8534C74.5992 58.6362 74.9304 57.4353 75.33 56.2568C75.6173 55.7264 76.0507 55.2907 76.5782 55.0019C77.8487 54.2064 79.1638 53.4669 80.4901 52.761C80.9973 52.6021 81.5207 52.5006 82.0503 52.4585Z" fill="#871727"/>
<path d="M776.985 156.602C774.756 158.014 772.806 159.437 770.677 160.67C767.359 162.772 763.561 163.987 759.644 164.199C757.587 164.359 755.539 163.796 753.849 162.608C753.159 162.077 752.611 161.383 752.253 160.587C751.895 159.791 751.739 158.919 751.798 158.048C751.903 155.129 752.921 152.318 754.707 150.014C756.303 147.737 758.301 145.774 760.602 144.222C764.158 141.571 768.437 140.081 772.862 139.953C776.428 139.953 777.765 140.737 779.816 143.863L783.304 141.622C783.925 141.187 784.568 140.787 785.232 140.423C786.347 139.919 786.926 140.289 787.049 141.465C787.089 142.033 787.021 142.604 786.848 143.146C785.98 145.825 785.665 148.654 785.923 151.46C786.347 155.045 788.855 156.109 791.607 156.457C798.64 157.331 805.271 155.583 811.857 153.465C813.797 152.838 815.691 152.098 817.619 151.437C818.834 151.023 819.124 151.325 818.957 152.558C818.466 156.199 816.204 158.462 813.173 160.121C807.043 163.482 800.401 164.524 793.524 164.412C790.493 164.412 787.461 164.333 784.43 164.109C782.884 164.046 781.4 163.485 780.196 162.508C778.991 161.532 778.132 160.192 777.743 158.686L776.985 156.602ZM762.497 156.703L763.21 156.591C766.554 156.053 769.407 154.272 772.126 152.334C773.909 151.143 775.399 149.561 776.484 147.706C776.617 147.511 776.701 147.287 776.728 147.052C776.755 146.817 776.726 146.579 776.641 146.359C776.557 146.138 776.42 145.942 776.243 145.786C776.066 145.63 775.854 145.52 775.626 145.465C775.001 145.336 774.356 145.336 773.731 145.465C770.232 146.209 766.984 147.849 764.303 150.227C762.987 151.304 761.831 152.564 760.87 153.969C759.755 155.538 760.424 156.658 762.497 156.692V156.703Z" fill="#871727"/>
<path d="M571.787 146.35C573.604 145.23 575.253 144.188 576.947 143.213C577.382 142.978 578.218 142.776 578.44 142.989C578.655 143.212 578.822 143.478 578.929 143.769C579.037 144.06 579.083 144.371 579.065 144.681C578.875 146.059 578.296 147.392 578.162 148.771C577.923 150.685 577.889 152.619 578.061 154.541C578.362 157.207 580.625 158.843 583.89 158.955C589.65 159.134 595.399 158.338 600.897 156.602C603.828 155.695 606.704 154.63 609.612 153.667C609.978 153.584 610.352 153.539 610.727 153.532C610.704 155.159 610.276 156.754 609.482 158.171C608.687 159.588 607.552 160.782 606.18 161.644C602.214 164.059 597.779 165.587 593.174 166.126C587.946 166.861 582.654 167.015 577.393 166.585C572.768 166.249 570.327 164.064 569.324 159.515C569.324 159.269 569.19 159.011 569.079 158.597C568.67 158.995 568.238 159.37 567.786 159.717C563.495 162.798 558.948 165.319 553.632 166.148C550.612 166.619 546.499 165.734 545.095 162.608C544.576 161.462 544.319 160.214 544.344 158.956C544.37 157.697 544.676 156.46 545.24 155.336C548.372 148.737 553.699 144.804 560.62 142.9C562.657 142.271 564.808 142.107 566.917 142.418C568.02 142.529 569.067 142.96 569.932 143.658C570.796 144.356 571.441 145.291 571.787 146.35ZM554.546 158.843C555.302 158.757 556.048 158.599 556.775 158.373C559.024 157.479 561.213 156.438 563.328 155.258C565.293 154.197 566.96 152.655 568.176 150.776C568.622 149.981 569.235 149.14 568.588 148.255C567.942 147.37 566.894 147.639 565.969 147.684H565.858C562.845 148.307 560.024 149.648 557.633 151.594C556.059 152.882 554.607 154.315 553.298 155.874C553.08 156.188 552.935 156.548 552.873 156.926C552.811 157.304 552.834 157.691 552.941 158.059C553.075 158.518 554.067 158.675 554.546 158.843Z" fill="#871727"/>
<path d="M415.102 155.157V162.205C414.979 162.205 414.723 162.205 414.589 162.35C412.617 164.311 410.131 164.871 407.479 165.286C403.618 166.073 399.682 166.426 395.743 166.339C393.88 166.264 392.075 165.669 390.529 164.62C388.984 163.571 387.76 162.11 386.995 160.401C386.148 158.798 385.234 157.23 384.376 155.706L380.442 157.308L380.141 157.017C380.195 156.56 380.296 156.109 380.442 155.672C381.556 153.252 382.771 150.899 383.64 148.401C384.297 146.429 384.727 144.387 384.922 142.317C385.345 138.474 385.435 134.597 385.891 130.765C386.262 127.044 386.888 123.353 387.764 119.718C389.025 114.928 391.976 110.762 396.067 107.998C396.378 107.776 396.71 107.584 397.059 107.427C399.065 106.508 400.859 107.079 401.606 109.163C402.339 111.07 402.833 113.061 403.077 115.09C403.731 121.662 402.1 128.258 398.463 133.757C396.234 137.264 393.893 140.771 392.723 144.86C391.893 147.843 391.893 150.998 392.723 153.981C392.97 154.986 393.507 155.896 394.266 156.595C395.026 157.295 395.974 157.754 396.992 157.913C399.978 158.63 402.954 158.205 405.908 158.025C408.598 157.871 411.23 157.182 413.653 155.997C414.177 155.74 414.589 155.482 415.102 155.157ZM390.717 138.351C391.397 137.107 392.032 135.83 392.768 134.62C394.529 131.706 396.568 128.894 396.691 125.32C396.752 123.851 396.609 122.38 396.267 120.95C395.888 119.449 394.685 119.247 393.76 120.469C393.109 121.351 392.591 122.325 392.222 123.359C390.505 128.222 390.661 133.275 390.739 138.384L390.717 138.351Z" fill="#871727"/>
<path d="M375.939 154.877C375.939 160.02 373.064 162.832 369.107 164.894C365.153 166.935 360.834 168.165 356.402 168.513C351.954 168.88 347.491 169.019 343.028 168.927C342.143 168.804 341.301 168.47 340.572 167.951C339.842 167.432 339.248 166.745 338.838 165.947C338.069 164.703 337.523 163.347 336.854 161.992C334.297 164.653 331.245 166.785 327.872 168.266C325.022 169.853 321.705 170.373 318.51 169.734C314.687 168.837 313.539 166.373 313.784 163.09C314.119 158.44 316.649 154.955 319.914 151.885C323.014 148.938 326.917 146.988 331.126 146.283C332.764 145.871 334.496 146.074 335.996 146.855C337.173 147.674 338.29 148.576 339.34 149.555C340.019 149.051 341.011 148.345 341.992 147.605C342.482 147.247 342.917 146.832 343.396 146.485C343.875 146.138 344.232 145.801 344.901 146.272C345.21 146.443 345.455 146.71 345.6 147.034C345.744 147.357 345.781 147.719 345.703 148.065C345.258 150.491 345.005 152.948 344.945 155.415C345.079 159.325 346.405 161.017 350.518 161.454C353.928 161.779 357.205 160.95 360.548 160.233C365.211 159.143 369.744 157.55 374.067 155.482C374.68 155.247 375.305 155.045 375.939 154.877ZM323.558 162.642C323.707 162.653 323.856 162.653 324.004 162.642C324.189 162.609 324.371 162.564 324.55 162.507C327.915 161.537 330.964 159.69 333.388 157.151C334.429 156.114 335.319 154.933 336.03 153.644C336.888 152.065 336.03 150.899 334.313 151.336C332.419 151.844 330.598 152.597 328.897 153.577C326.019 155.069 323.634 157.37 322.032 160.199C321.173 161.723 321.753 162.63 323.525 162.642H323.558Z" fill="#871727"/>
<path d="M135.434 57.859C136.326 61.7245 136.615 65.702 138.51 69.0633C141.218 74.038 139.234 78.2396 136.415 82.2395C133.001 87.0773 127.856 90.3981 122.06 91.5055C118.262 92.394 114.291 92.1724 110.614 90.8669C109.568 90.4091 108.647 89.7032 107.931 88.8095C107.214 87.9158 106.724 86.861 106.502 85.7353C105.951 83.4538 105.534 81.1418 105.254 78.811C105.12 77.9035 105.755 78.0379 106.257 78.374C107.105 79.0043 107.987 79.5878 108.898 80.1219C109.817 80.637 110.836 80.9465 111.885 81.0295C116.766 81.0295 121.659 81.0295 126.529 80.7158C129.505 80.5477 131.689 77.6682 131.979 74.2509C132.118 72.1484 131.658 70.0497 130.653 68.2005C129.906 66.6992 128.981 65.2875 128.268 63.7749C127.676 62.5194 127.38 61.144 127.401 59.755C127.422 58.3659 127.761 57.0004 128.39 55.7638C129.493 52.9719 131.288 50.5108 133.606 48.6155C134.961 47.6251 136.522 46.958 138.171 46.6648C139.82 46.3717 141.514 46.4601 143.124 46.9236C144.743 47.398 146.314 48.0245 147.816 48.7948C149.231 49.467 149.309 50.1056 148.496 51.3941C147.002 53.803 145.531 56.2344 144.038 58.6657C143.113 60.2119 142.845 60.4472 141.296 59.338C139.601 58.1128 137.504 57.5839 135.434 57.859Z" fill="#871727"/>
<path d="M748.588 153.241C748.34 153.801 748.042 154.338 747.697 154.843C745.248 157.856 742.06 160.173 738.447 161.566C733.842 163.321 728.989 164.33 724.07 164.557C717.751 164.961 711.42 165.14 705.124 165.252C702.192 165.305 699.286 164.696 696.62 163.471C695.881 163.187 695.208 162.752 694.646 162.193C694.084 161.633 693.644 160.962 693.355 160.221C693.089 158.895 693.182 157.522 693.622 156.244C694.09 154.462 694.982 152.793 695.494 151.023C696.252 148.367 695.651 147.818 692.92 148.3C690.769 148.692 688.629 149.174 686.411 148.479C683.748 147.65 682.834 145.499 684.305 143.112C684.873 142.182 685.631 141.365 686.133 140.412C686.924 138.877 687.559 137.253 688.362 135.695C688.518 135.382 688.93 135.191 689.22 134.933C689.417 135.246 689.578 135.581 689.699 135.93C689.698 136.268 689.676 136.605 689.632 136.939C689.755 139.695 691.137 140.67 693.845 140.098C696.673 139.429 699.539 138.935 702.427 138.62C705.703 138.351 706.55 141.017 705.67 143.336C704.762 145.338 703.731 147.28 702.583 149.152C702.014 150.18 701.519 151.247 701.1 152.345C700.847 152.964 700.838 153.657 701.077 154.281C701.315 154.906 701.782 155.416 702.382 155.706C704.05 156.627 705.908 157.145 707.809 157.219C713.132 157.706 718.489 157.661 723.802 157.084C727.759 156.67 731.715 156.277 735.627 155.616C739.093 155.023 742.492 154.059 745.914 153.286C746.749 153.095 747.596 152.972 748.432 152.827L748.588 153.241Z" fill="#871727"/>
<path d="M520.643 69.5338C519.774 76.1892 515.851 79.8978 510 81.8586C504.845 83.5909 499.415 84.3506 493.985 84.0994C490.975 84.087 488.02 83.2837 485.415 81.769C484.094 80.9774 482.979 79.8822 482.162 78.5733C481.344 77.2644 480.847 75.7792 480.712 74.2396C480.424 72.0707 480.287 69.8844 480.299 67.6964C480.422 64.3351 480.801 60.9738 481.124 57.6125C481.414 54.677 481.781 51.7526 482.082 48.8171C482.216 47.5174 482.517 47.2261 483.81 47.4502C485.103 47.6743 486.641 47.9768 488.056 48.2121C488.736 48.3241 488.981 48.6267 488.959 49.3325C488.747 55.3492 488.535 61.3659 488.435 67.3714C488.379 70.6431 489.817 72.4358 492.893 73.2089C496.267 73.8854 499.724 74.0478 503.146 73.6907C507.159 73.4795 511.125 72.7257 514.937 71.4498C516.442 70.9456 517.902 70.3294 519.395 69.7691C519.804 69.6567 520.222 69.578 520.643 69.5338Z" fill="#871727"/>
<path d="M472.91 137.555C472.364 139.079 471.907 140.423 471.406 141.757C470.904 143.09 470.291 144.58 469.756 146.014C469.702 146.261 469.557 146.478 469.351 146.622C469.144 146.765 468.89 146.824 468.642 146.787C461.955 146.787 455.268 146.787 448.514 146.933C443.096 147.122 437.744 148.193 432.666 150.104C431.719 150.451 431.463 150.104 431.485 149.275C431.619 143.919 433.625 139.83 439.364 138.9C442.986 138.297 446.641 137.923 450.308 137.779C457.43 137.544 464.563 137.566 471.695 137.488C471.941 137.443 472.253 137.488 472.91 137.555Z" fill="#871727"/>
<path d="M488.747 43.4391C487.23 43.5055 485.741 43.0157 484.557 42.061C484.152 41.7045 483.837 41.2576 483.636 40.7562C483.436 40.2549 483.355 39.7131 483.4 39.1746C483.446 38.6361 483.616 38.1159 483.899 37.6558C484.181 37.1958 484.566 36.8088 485.025 36.526C486.072 35.8731 487.28 35.5271 488.513 35.5271C489.746 35.5271 490.954 35.8731 492.001 36.526C492.524 36.8492 492.948 37.3108 493.227 37.8602C493.506 38.4096 493.63 39.0256 493.584 39.6408C493.506 40.4081 493.205 41.1355 492.72 41.733C492.234 42.3304 491.586 42.7716 490.853 43.0021C490.165 43.2095 489.46 43.3557 488.747 43.4391Z" fill="#871727"/>
</svg>
