<svg width="27" height="27" viewBox="0 0 27 27" fill="none" xmlns="http://www.w3.org/2000/svg">
<path d="M24.1795 16.7493C23.2001 16.4855 22.2206 16.251 21.1922 16.0262C20.4449 15.8493 19.6644 15.8699 18.9275 16.0858C18.1907 16.3017 17.523 16.7055 16.9903 17.2575C16.432 17.7851 15.9423 18.2835 15.4232 18.7623C14.9008 18.5462 14.3907 18.3015 13.8952 18.0294C11.2995 16.5729 9.29147 14.2621 8.21433 11.4921C8.54735 11.1696 8.88036 10.8374 9.19379 10.5149L9.58558 10.1338C9.69332 10.0263 9.79126 9.91882 9.88921 9.80155C10.3203 9.34219 10.642 8.79166 10.8303 8.19102C11.0185 7.59038 11.0685 6.9551 10.9764 6.33253L10.898 5.84393C10.751 4.47078 10.3804 3.13074 9.80105 1.87656C9.55463 1.3333 9.16077 0.869655 8.66399 0.53809C8.16722 0.206525 7.58736 0.0202552 6.99 0.000351682C6.0749 -0.00764644 5.16374 0.12082 4.28669 0.381468C3.23532 0.634348 2.28413 1.19599 1.55603 1.99382C0.827927 2.79165 0.356386 3.78899 0.202341 4.85697C-0.1025 6.58062 -0.0625524 8.34742 0.319879 10.0556C1.1555 14.6868 3.5545 18.8932 7.11818 21.9757C10.6818 25.0583 15.1956 26.8312 19.9091 27H20.0952C20.7039 26.9987 21.3109 26.9365 21.9072 26.8143C23.0908 26.6703 24.196 26.1479 25.0575 25.3254C25.919 24.5029 26.4907 23.4243 26.687 22.2509C26.7359 21.9968 26.7751 21.7428 26.8241 21.4887L26.8926 21.0489C27.3432 18.8405 26.3637 17.365 24.1795 16.7493ZM6.17705 10.2901C5.9625 10.4753 5.81335 10.7245 5.75161 11.0007C5.68988 11.277 5.71885 11.5657 5.83424 11.8243C6.60276 13.9661 7.83761 15.9112 9.44993 17.5198C11.0623 19.1284 13.0119 20.3604 15.1587 21.1271C15.4211 21.2373 15.7116 21.2626 15.9892 21.1995C16.2668 21.1364 16.5176 20.988 16.7063 20.7753C17.3135 20.1499 17.9404 19.5343 18.5672 18.9285C18.8326 18.6282 19.1768 18.4078 19.561 18.2921C19.9451 18.1764 20.354 18.17 20.7416 18.2737L23.4939 18.9382C23.7654 19.0052 24.026 19.1105 24.2677 19.2509C24.4004 19.3163 24.5115 19.4182 24.5879 19.5446C24.6642 19.6711 24.7027 19.8167 24.6987 19.9643C24.714 20.9312 24.5238 21.8904 24.1404 22.7786C23.9133 23.227 23.5809 23.614 23.1717 23.9066C22.7624 24.1993 22.2882 24.3889 21.7897 24.4593C21.1987 24.6134 20.5876 24.676 19.9776 24.645C15.7825 24.4952 11.7667 22.9101 8.60455 20.1556C5.44238 17.4011 3.32638 13.6451 2.61181 9.51816C2.35708 8.291 2.29103 7.0323 2.41592 5.7853C2.65099 3.92865 3.39538 2.99057 4.91354 2.5606C5.50771 2.37373 6.12307 2.26211 6.74514 2.22836C6.96396 2.22152 7.17998 2.27899 7.36631 2.39366C7.55265 2.50833 7.70109 2.67511 7.79316 2.87328C8.05486 3.40223 8.24271 3.96447 8.35145 4.54429C8.42002 4.85699 8.47879 5.16969 8.53755 5.52148C8.59632 5.87326 8.64529 6.08824 8.70406 6.37162C8.79124 6.73608 8.78006 7.11707 8.67167 7.47582C8.56327 7.83457 8.36154 8.15826 8.08699 8.41394C7.5385 8.93184 6.95082 9.52794 6.17705 10.2901Z" fill="#871727"/>
</svg>
