<svg width="37" height="37" viewBox="0 0 37 37" fill="none" xmlns="http://www.w3.org/2000/svg">
<path d="M18.5139 11.0945C18.7422 11.0948 18.9677 11.1444 19.1751 11.2397C19.3825 11.3351 19.567 11.474 19.7159 11.6471L23.6259 15.5571L28.9037 20.8211C29.1041 20.9874 29.2606 21.2003 29.3594 21.4412C29.4581 21.6822 29.4962 21.9437 29.4702 22.2027C29.4616 22.4863 29.3709 22.7614 29.209 22.9944C29.0472 23.2274 28.8211 23.4084 28.5583 23.5153C28.3149 23.6482 28.0372 23.7047 27.7612 23.6776C27.4852 23.6505 27.2238 23.541 27.0109 23.3633C26.8768 23.2643 26.7519 23.1533 26.6378 23.0317L18.7211 15.1288C18.5139 14.9216 18.5139 14.9216 18.2928 15.1288L10.3346 23.087C10.1654 23.2838 9.95194 23.4377 9.7118 23.5361C9.47167 23.6346 9.21164 23.6748 8.95298 23.6535C8.67285 23.6393 8.40201 23.5485 8.16987 23.3911C7.93773 23.2336 7.75319 23.0155 7.63637 22.7605C7.51955 22.5055 7.47492 22.2234 7.5073 21.9448C7.53969 21.6662 7.64785 21.4018 7.82004 21.1804C7.8959 21.0695 7.98396 20.9676 8.08255 20.8764L17.2151 11.7438C17.3682 11.5442 17.5646 11.3819 17.7896 11.2694C18.0146 11.1569 18.2623 11.0971 18.5139 11.0945Z" fill="#7879B7" fill-opacity="0.5"/>
<path d="M37 18.4862C36.9973 14.8272 35.9096 11.2512 33.8745 8.21046C31.8394 5.16967 28.9484 2.80064 25.5669 1.40294C22.1854 0.00524777 18.4654 -0.358323 14.8773 0.358184C11.2892 1.07469 7.99413 2.83909 5.40879 5.42829C2.82345 8.01749 1.06393 11.3152 0.352786 14.9044C-0.358361 18.4936 0.0107984 22.213 1.41355 25.5924C2.81629 28.9718 5.18965 31.8593 8.23348 33.8899C11.2773 35.9204 14.8549 37.0027 18.5138 37C23.4181 36.989 28.1179 35.0341 31.5832 31.5636C35.0484 28.0932 36.9964 23.3905 37 18.4862ZM3.05343 18.4862C3.05343 15.4284 3.96014 12.4393 5.65895 9.89682C7.35776 7.35437 9.77238 5.37279 12.5974 4.20263C15.4224 3.03247 18.531 2.72629 21.53 3.32284C24.529 3.91938 27.2838 5.39183 29.446 7.55401C31.6082 9.71619 33.0806 12.471 33.6772 15.47C34.2737 18.469 33.9676 21.5776 32.7974 24.4026C31.6272 27.2277 29.6456 29.6422 27.1032 31.341C24.5607 33.0399 21.5716 33.9466 18.5138 33.9466C16.4794 33.952 14.4639 33.5563 12.5826 32.7819C10.7013 32.0076 8.99113 30.8699 7.55 29.4339C6.10887 27.9979 4.96503 26.2918 4.18397 24.4133C3.40291 22.5347 2.99996 20.5206 2.99815 18.4862L3.05343 18.4862Z" fill="#7879B7" fill-opacity="0.5"/>
</svg>
