<svg width="25" height="20" viewBox="0 0 25 20" fill="none" xmlns="http://www.w3.org/2000/svg">
<path d="M12.4979 15.9586C16.018 15.9586 19.5468 15.9586 23.0756 15.9586C23.329 15.9529 23.5809 15.9966 23.8161 16.087C24.0513 16.1774 24.2648 16.3126 24.4436 16.4845C24.6224 16.6564 24.7628 16.8612 24.8562 17.0867C24.9496 17.3121 24.9942 17.5533 24.9871 17.7957C25.0043 18.052 25.0043 18.3091 24.9871 18.5654C24.8997 18.9692 24.6697 19.3319 24.3358 19.5926C24.0019 19.8533 23.5844 19.9961 23.1535 19.997H2.04986C1.75182 20.0129 1.45381 19.9654 1.17718 19.8581C0.900556 19.7508 0.652151 19.5863 0.449786 19.3764C0.157403 19.0686 -0.00315375 18.6668 4.69489e-05 18.2509V17.6882C0.00233369 17.2287 0.194694 16.7888 0.535068 16.4647C0.875441 16.1405 1.33612 15.9586 1.81633 15.9586H12.4979Z" fill="#F7EB59"/>
<path d="M9.84263 4.03366C9.84263 3.20612 9.84263 2.32893 9.84263 1.46828C9.81917 1.27157 9.84241 1.07233 9.91062 0.885405C9.97882 0.698483 10.0902 0.528706 10.2366 0.388709C10.3829 0.248712 10.5603 0.14211 10.7557 0.0768514C10.951 0.0115925 11.1593 -0.0106493 11.3649 0.0117954H13.5617C13.7721 -0.0152502 13.9861 0.00436098 14.1872 0.0691108C14.3884 0.133861 14.5713 0.242018 14.7218 0.385211C14.8723 0.528404 14.9864 0.702804 15.0551 0.894913C15.1239 1.08702 15.1456 1.2917 15.1185 1.49311V6.69009C15.1185 6.99628 15.1185 6.99628 15.4472 6.99628C16.2429 6.99628 17.0386 6.99628 17.8343 6.99628C18.01 6.96732 18.1907 6.99563 18.3475 7.07666C18.5043 7.15769 18.6282 7.28675 18.6992 7.44316C18.7679 7.60206 18.7832 7.77749 18.7429 7.94508C18.7026 8.11267 18.6087 8.26408 18.4744 8.37828L14.9542 11.9036L13.2244 13.6746C13.1435 13.7742 13.04 13.8549 12.9215 13.9104C12.8031 13.9659 12.673 13.9947 12.5411 13.9947C12.4093 13.9947 12.2791 13.9659 12.1607 13.9104C12.0423 13.8549 11.9387 13.7742 11.8578 13.6746L6.556 8.36173C6.44772 8.27283 6.36581 8.15823 6.31848 8.02945C6.27116 7.90066 6.26008 7.76222 6.28638 7.62805C6.31267 7.49387 6.3754 7.36868 6.46827 7.26505C6.56115 7.16142 6.68089 7.08299 6.81547 7.03766C6.92394 7.00264 7.03859 6.98858 7.15278 6.99628H9.56586C9.90318 6.99628 9.90318 6.99628 9.90318 6.67354L9.84263 4.03366Z" fill="#F7EB59"/>
</svg>
