<svg width="10" height="18" viewBox="0 0 10 18" fill="none" xmlns="http://www.w3.org/2000/svg">
<path d="M9.76516 2.68865C9.76516 2.96585 9.65475 3.06144 9.38378 3.05188H7.77799C6.85467 3.05188 6.41309 3.45333 6.37294 4.3327C6.37294 4.95399 6.37294 5.57527 6.37294 6.19657C6.37294 6.44509 6.50342 6.48334 6.72421 6.48334H9.19309C9.64472 6.48334 9.66479 6.48335 9.60457 6.94215C9.49418 7.74506 9.37375 8.53838 9.29346 9.34129C9.29346 9.64716 9.13287 9.76185 8.81171 9.75229C8.15936 9.75229 7.50704 9.75229 6.85469 9.75229C6.49339 9.75229 6.36291 9.83834 6.37294 10.192C6.37294 11.3964 6.37294 12.5911 6.37294 13.7955C6.37294 14.9999 6.37294 16.166 6.37294 17.3512C6.37294 17.6953 6.29266 17.8196 5.91129 17.81C5.08833 17.81 4.26537 17.81 3.44241 17.81C2.86032 17.81 2.8603 17.81 2.8603 17.2365V10.2971C2.8603 9.7523 2.86031 9.75229 2.27822 9.75229H0.381377C0.100366 9.75229 0 9.64716 0 9.37953C0 8.53839 0 7.69724 0 6.8561C0 6.55979 0.130483 6.47378 0.421531 6.48334C1.07388 6.48334 1.72623 6.48334 2.42875 6.48334C2.79006 6.48334 2.92054 6.38775 2.9105 6.03409C2.9105 5.30128 2.9105 4.56529 2.9105 3.82611C2.90193 3.31444 3.00293 2.80647 3.20734 2.33322C3.41176 1.85997 3.71531 1.43138 4.09944 1.07358C4.48358 0.715776 4.94023 0.436291 5.44155 0.252181C5.94288 0.0680702 6.47836 -0.0167985 7.01527 0.00274877C7.81816 0.00274877 8.611 0.00275577 9.41389 0.0696645C9.67482 0.0696645 9.8053 0.174801 9.79526 0.451994C9.7685 1.21029 9.75847 1.95584 9.76516 2.68865Z" fill="white"/>
</svg>
