<svg width="20" height="19" viewBox="0 0 20 19" fill="none" xmlns="http://www.w3.org/2000/svg">
<path d="M10.3287 6.38989C9.7165 6.39677 9.12006 6.58476 8.61474 6.93009C8.10942 7.27543 7.7179 7.76262 7.48964 8.33012C7.26138 8.89762 7.20663 9.51997 7.33229 10.1185C7.45796 10.7171 7.75841 11.2651 8.19569 11.6931C8.63297 12.1212 9.18745 12.4102 9.78909 12.5237C10.3907 12.6371 11.0125 12.5699 11.5759 12.3305C12.1393 12.0911 12.6191 11.6903 12.9545 11.1786C13.29 10.667 13.4661 10.0675 13.4607 9.45598C13.458 9.04883 13.3746 8.64624 13.2155 8.27139C13.0564 7.89655 12.8246 7.55684 12.5335 7.27185C12.2424 6.98687 11.8977 6.76222 11.5193 6.61086C11.1409 6.45949 10.7363 6.38439 10.3287 6.38989Z" fill="white"/>
<path d="M19.7176 4.78748C19.6626 3.94447 19.3942 3.12922 18.9375 2.41821C18.4808 1.70719 17.8508 1.12373 17.1065 0.722503C16.121 0.229508 15.0275 -0.00898054 13.9259 0.0288191C11.2871 0.0288191 8.65512 -0.0613759 6.01623 0.0773609C4.73877 0.093879 3.51342 0.585764 2.57975 1.45683C1.64608 2.3279 1.07123 3.51552 0.967615 4.78748C0.865775 5.69253 0.819394 6.60295 0.828729 7.51365C0.755763 9.77604 0.804444 12.0407 0.974561 14.2979C1.04222 15.1248 1.3176 15.9213 1.77523 16.6136C2.23286 17.306 2.85794 17.8718 3.59262 18.2588C4.54166 18.7427 5.59696 18.9811 6.66206 18.9525C9.38428 18.9525 12.1065 19.0843 14.8218 18.8831C15.666 18.8596 16.4905 18.6234 17.2189 18.1966C17.9473 17.7697 18.556 17.1659 18.9884 16.4414C19.5254 15.5218 19.8037 14.4745 19.794 13.41C19.794 12.1058 19.794 10.7948 19.794 9.08833C19.7454 7.90907 19.8843 6.32746 19.7176 4.78748ZM10.3426 14.4089C9.37186 14.4089 8.42289 14.1214 7.61564 13.5828C6.8084 13.0442 6.1791 12.2787 5.80729 11.3829C5.43548 10.4872 5.33785 9.50144 5.52673 8.55028C5.71561 7.59912 6.18253 6.72525 6.86847 6.03909C7.55441 5.35293 8.42859 4.88528 9.38052 4.69527C10.3325 4.50525 11.3194 4.60139 12.2167 4.97153C13.1139 5.34166 13.8812 5.96917 14.4215 6.77477C14.9618 7.58037 15.251 8.52791 15.2523 9.4976C15.2414 10.793 14.7199 12.0319 13.801 12.946C12.882 13.8601 11.6395 14.3757 10.3426 14.3811V14.4089ZM15.3843 5.61991C15.2296 5.61991 15.0764 5.58935 14.9336 5.53C14.7907 5.47065 14.661 5.38368 14.552 5.27408C14.4429 5.16449 14.3566 5.03444 14.298 4.8914C14.2394 4.74837 14.2098 4.59517 14.2107 4.44064C14.2249 4.13078 14.3572 3.8381 14.5806 3.62267C14.8041 3.40724 15.1016 3.2854 15.4121 3.28218C15.724 3.28765 16.021 3.41623 16.2383 3.63979C16.4556 3.86336 16.5755 4.16373 16.5718 4.47531C16.5682 4.62684 16.5345 4.77616 16.4727 4.91458C16.4109 5.05301 16.3222 5.17778 16.2117 5.28168C16.1013 5.38558 15.9712 5.46652 15.8292 5.51982C15.6871 5.57312 15.5359 5.59771 15.3843 5.59216V5.61991Z" fill="white"/>
</svg>
