<svg width="37" height="37" viewBox="0 0 37 37" fill="none" xmlns="http://www.w3.org/2000/svg">
<path d="M11.0945 18.4861C11.0948 18.2578 11.1444 18.0323 11.2397 17.8249C11.3351 17.6175 11.474 17.433 11.6471 17.2841L15.5571 13.3741L20.8211 8.0963C20.9874 7.8959 21.2003 7.73942 21.4412 7.64064C21.6822 7.54186 21.9437 7.50381 22.2027 7.52983C22.4863 7.53835 22.7614 7.62907 22.9944 7.79095C23.2274 7.95284 23.4084 8.17891 23.5153 8.44171C23.6482 8.68511 23.7047 8.96284 23.6776 9.23882C23.6505 9.5148 23.541 9.77624 23.3633 9.98913C23.2643 10.1232 23.1533 10.2481 23.0317 10.3622L15.1288 18.2789C14.9216 18.4861 14.9216 18.4861 15.1288 18.7072L23.087 26.6654C23.2838 26.8346 23.4377 27.0481 23.5361 27.2882C23.6346 27.5283 23.6748 27.7884 23.6535 28.047C23.6393 28.3271 23.5485 28.598 23.3911 28.8301C23.2336 29.0623 23.0155 29.2468 22.7605 29.3636C22.5055 29.4804 22.2234 29.5251 21.9448 29.4927C21.6662 29.4603 21.4018 29.3522 21.1804 29.18C21.0695 29.1041 20.9676 29.016 20.8764 28.9175L11.7438 19.7849C11.5442 19.6318 11.3819 19.4354 11.2694 19.2104C11.1569 18.9854 11.0971 18.7377 11.0945 18.4861Z" fill="#7879B7" fill-opacity="0.5"/>
<path d="M18.4862 0C14.8272 0.00273362 11.2512 1.09041 8.21046 3.12549C5.16967 5.16056 2.80064 8.05161 1.40294 11.4331C0.00524842 14.8146 -0.358322 18.5346 0.358185 22.1227C1.07469 25.7108 2.83909 29.0059 5.42829 31.5912C8.01749 34.1765 11.3152 35.9361 14.9044 36.6472C18.4936 37.3584 22.213 36.9892 25.5924 35.5865C28.9718 34.1837 31.8593 31.8103 33.8899 28.7665C35.9204 25.7227 37.0027 22.1451 37 18.4861C36.989 13.5819 35.0341 8.88205 31.5636 5.4168C28.0932 1.95155 23.3905 0.0036449 18.4862 0ZM18.4862 33.9466C15.4284 33.9466 12.4393 33.0399 9.89683 31.3411C7.35437 29.6422 5.37279 27.2276 4.20263 24.4026C3.03247 21.5776 2.72629 18.469 3.32284 15.47C3.91938 12.471 5.39183 9.71619 7.55401 7.55401C9.71619 5.39183 12.471 3.91936 15.47 3.32281C18.469 2.72627 21.5776 3.03244 24.4026 4.20261C27.2277 5.37277 29.6422 7.35435 31.341 9.89681C33.0399 12.4393 33.9466 15.4284 33.9466 18.4861C33.952 20.5206 33.5563 22.5361 32.7819 24.4174C32.0076 26.2987 30.8699 28.0089 29.4339 29.45C27.9979 30.8911 26.2918 32.035 24.4133 32.816C22.5347 33.5971 20.5206 34 18.4862 34.0019V33.9466Z" fill="#7879B7" fill-opacity="0.5"/>
</svg>
