<svg width="20" height="19" viewBox="0 0 20 19" fill="none" xmlns="http://www.w3.org/2000/svg">
<path d="M11.3436 7.99845C11.662 7.46195 12.1009 7.00695 12.6255 6.66949C13.1501 6.33202 13.746 6.12135 14.3661 6.05415C15.6271 5.81747 16.9309 6.0645 18.0181 6.74607C18.8505 7.36584 19.4068 8.28751 19.5674 9.3131C19.7283 10.0447 19.8072 10.792 19.8025 11.5411C19.8025 13.9144 19.8025 16.2877 19.8025 18.661C19.8025 18.8962 19.7334 18.9723 19.5051 18.9654H16.1298C15.8255 18.9654 15.8048 18.9654 15.8048 18.6264V12.3368C15.8162 11.8434 15.7651 11.3505 15.6526 10.8699C15.6088 10.6419 15.5202 10.4249 15.3918 10.2315C15.2634 10.0381 15.0978 9.87218 14.9047 9.74339C14.7116 9.61461 14.4949 9.52554 14.267 9.48137C14.0392 9.4372 13.8048 9.43879 13.5776 9.48608C13.2595 9.48496 12.9462 9.56431 12.6668 9.71673C12.3875 9.86914 12.1512 10.0897 11.9799 10.3579C11.6889 10.8524 11.5383 11.417 11.5442 11.9909C11.5442 14.1566 11.5442 16.3223 11.5442 18.488C11.5442 19.0969 11.5441 18.9862 11.0531 18.9862H7.86453C7.6432 18.9862 7.55329 18.9377 7.55329 18.6956C7.55329 14.6547 7.55329 10.6162 7.55329 6.58002C7.55329 6.33785 7.62937 6.27557 7.85762 6.27557H11.0669C11.3643 6.27557 11.3712 6.27557 11.3782 6.59385L11.3436 7.99845Z" fill="white"/>
<path d="M5.10483 12.6551V18.6886C5.10483 19 5.10483 19 4.8005 19H1.40446C1.17622 19 1.10705 18.9239 1.10705 18.7094C1.10705 14.6594 1.10705 10.6139 1.10705 6.57309C1.10705 6.37243 1.16931 6.2894 1.39064 6.2894H4.80741C5.04258 6.2894 5.11174 6.36551 5.11174 6.59385C5.09791 8.62118 5.10483 10.6416 5.10483 12.6551Z" fill="white"/>
<path d="M3.0852 4.62187C2.62922 4.6164 2.18505 4.47606 1.80867 4.21851C1.43228 3.96097 1.14051 3.59777 0.9701 3.17463C0.799694 2.7515 0.758275 2.28737 0.851074 1.84073C0.943873 1.39409 1.16673 0.984907 1.49158 0.664748C1.81642 0.344589 2.22871 0.127768 2.67651 0.0416C3.12431 -0.0445682 3.58759 0.00378373 4.00798 0.180542C4.42837 0.3573 4.78706 0.654558 5.03886 1.03489C5.29067 1.41521 5.42432 1.86159 5.42299 2.31778C5.42302 2.62329 5.36232 2.92575 5.24442 3.20757C5.12651 3.4894 4.95377 3.74497 4.73622 3.95938C4.51867 4.17379 4.26066 4.34277 3.97722 4.45651C3.69378 4.57024 3.39056 4.62645 3.0852 4.62187Z" fill="white"/>
</svg>
