<svg width="233" height="164" viewBox="0 0 233 164" fill="none" xmlns="http://www.w3.org/2000/svg">
<path d="M74.186 94.17C72.2042 90.2622 69.1287 87.0073 65.3298 84.7971C61.3313 82.6683 56.866 81.5545 52.3305 81.5545C47.795 81.5545 43.3296 82.6683 39.3312 84.7971C35.5416 87.0123 32.4742 90.2664 30.4961 94.17C28.2741 98.7011 27.1876 103.699 27.3294 108.738C27.1876 113.777 28.2741 118.776 30.4961 123.307C32.474 127.214 35.5459 130.469 39.3417 132.68C43.3376 134.817 47.8039 135.935 52.341 135.935C56.8781 135.935 61.3445 134.817 65.3403 132.68C69.1393 130.47 72.2148 127.215 74.1965 123.307C76.4137 118.774 77.5 113.777 77.3632 108.738C77.5 103.7 76.4137 98.7027 74.1965 94.17M71.6632 108.738C71.7596 112.832 70.9337 116.895 69.2459 120.63C67.8025 123.772 65.4696 126.427 62.5325 128.271C59.4327 130.013 55.9329 130.927 52.3727 130.927C48.8125 130.927 45.3127 130.013 42.2129 128.271C39.2825 126.423 36.9542 123.768 35.51 120.63C33.9075 116.861 33.0818 112.81 33.0818 108.717C33.0818 104.625 33.9075 100.574 35.51 96.8045C36.961 93.682 39.2887 91.0431 42.2129 89.2054C45.315 87.4712 48.8139 86.5603 52.3727 86.5603C55.9315 86.5603 59.4304 87.4712 62.5325 89.2054C65.4606 91.0415 67.7921 93.6806 69.2459 96.8045C70.9451 100.551 71.7714 104.63 71.6632 108.738Z" fill="#7879B7"/>
<path d="M184.007 109.158C183.584 108.707 183.036 108.389 182.433 108.244C181.829 108.099 181.196 108.134 180.612 108.345C180.028 108.555 179.52 108.931 179.149 109.427C178.779 109.922 178.563 110.515 178.529 111.132C178.379 114.399 177.594 117.607 176.217 120.578C174.78 123.647 172.487 126.241 169.609 128.051C166.55 129.77 163.095 130.673 159.581 130.673C156.067 130.673 152.613 129.77 149.553 128.051C146.676 126.241 144.383 123.647 142.946 120.578C141.569 117.607 140.784 114.399 140.634 111.132C140.588 110.328 140.234 109.572 139.645 109.019C139.056 108.467 138.277 108.16 137.467 108.161C137.028 108.166 136.595 108.262 136.195 108.443C135.795 108.624 135.438 108.885 135.145 109.211C134.854 109.518 134.629 109.881 134.486 110.279C134.342 110.676 134.283 111.099 134.311 111.52C134.519 115.677 135.597 119.745 137.478 123.464C139.495 127.401 142.605 130.679 146.44 132.911C150.479 135.067 154.992 136.195 159.576 136.195C164.16 136.195 168.674 135.067 172.713 132.911C176.551 130.684 179.662 127.404 181.674 123.464C183.555 119.745 184.633 115.677 184.841 111.52C184.872 111.098 184.814 110.675 184.67 110.277C184.527 109.88 184.301 109.516 184.007 109.211" fill="#F2C6BB"/>
<path d="M25.3027 128.565C25.1481 128.231 24.9214 127.934 24.6387 127.697C24.3559 127.459 24.024 127.286 23.6666 127.19C23.3204 127.097 22.9579 127.079 22.6043 127.139C22.2506 127.199 21.9143 127.335 21.6188 127.537C21.0111 127.949 20.3641 128.3 19.6871 128.586C18.0944 129.251 16.3791 129.577 14.652 129.541C13.439 129.625 12.222 129.45 11.0824 129.028C9.94284 128.607 8.90699 127.948 8.04416 127.096C6.5347 125.469 5.7747 123.044 5.7747 119.885V86.5079C5.93259 86.5245 6.0918 86.5245 6.2497 86.5079H22.7165C23.0609 86.5301 23.4061 86.4818 23.7309 86.3661C24.0557 86.2503 24.3532 86.0695 24.6049 85.8349C24.8567 85.6003 25.0573 85.3168 25.1945 85.002C25.3317 84.6872 25.4025 84.3477 25.4025 84.0046C25.4025 83.6616 25.3317 83.3221 25.1945 83.0073C25.0573 82.6925 24.8567 82.409 24.6049 82.1744C24.3532 81.9398 24.0557 81.759 23.7309 81.6432C23.4061 81.5275 23.0609 81.4792 22.7165 81.5014H6.21803C6.06013 81.4848 5.90093 81.4848 5.74303 81.5014V74.1752C5.74303 73.5098 5.47724 72.8718 5.00412 72.4013C4.531 71.9309 3.88931 71.6666 3.22022 71.6666H2.48133C1.82143 71.6803 1.19322 71.9507 0.731456 72.4196C0.269694 72.8886 0.0111543 73.5188 0.0112988 74.1752V120.599C-0.091413 123.368 0.5075 126.118 1.75299 128.597C2.86475 130.656 4.6058 132.31 6.72471 133.32C9.01123 134.375 11.509 134.899 14.0292 134.852C16.3756 134.882 18.7066 134.472 20.901 133.645C22.2237 133.131 23.4729 132.447 24.6166 131.609C25.0649 131.262 25.3806 130.773 25.5111 130.224C25.6417 129.674 25.5793 129.096 25.3344 128.586L25.3027 128.565Z" fill="#7879B7"/>
<path d="M125.107 70.7535H124.632C123.931 70.7562 123.259 71.035 122.765 71.5288C122.27 72.0226 121.993 72.6911 121.993 73.388V92.753C120.716 89.842 118.701 87.3104 116.145 85.4059C112.518 82.7783 108.122 81.4133 103.636 81.5223C99.2877 81.4603 95.0004 82.5468 91.2123 84.6711C87.4381 86.8621 84.3698 90.0769 82.3666 93.9391C80.0819 98.4964 78.9617 103.543 79.1049 108.633C78.9696 113.693 80.0365 118.713 82.2188 123.286C84.1112 127.167 87.0913 130.422 90.8006 132.659C94.5352 134.84 98.7985 135.966 103.13 135.913C106.296 135.936 109.432 135.31 112.345 134.076C115.15 132.882 117.618 131.022 119.533 128.66C120.688 127.226 121.617 125.627 122.288 123.916L122.468 132.312C122.534 132.968 122.845 133.574 123.339 134.013C123.832 134.451 124.473 134.69 125.136 134.682C125.798 134.675 126.433 134.42 126.916 133.97C127.399 133.52 127.695 132.906 127.745 132.249V73.388C127.743 72.6901 127.463 72.0216 126.966 71.5281C126.47 71.0347 125.798 70.7562 125.096 70.7535M121.982 108.298C122.072 112.415 121.28 116.504 119.66 120.295C118.32 123.454 116.096 126.164 113.253 128.104C110.425 129.921 107.118 130.86 103.752 130.801C97.9679 130.801 93.3234 128.807 89.9667 124.892C86.61 120.977 84.8789 115.519 84.8789 108.717C84.8789 101.916 86.61 96.4791 90.0195 92.5431C93.429 88.6071 98.1051 86.6339 103.964 86.6339C107.273 86.574 110.528 87.4789 113.326 89.2369C116.102 91.0729 118.298 93.653 119.66 96.6786C121.29 100.333 122.083 104.301 121.982 108.298Z" fill="#7879B7"/>
<path d="M229.998 112.517C228.024 110.418 224.509 108.759 219.548 107.72L207.061 105.033C203.599 104.288 201.16 103.123 199.82 101.549C198.528 100.101 197.811 98.2356 197.803 96.3007C197.789 94.4949 198.413 92.7415 199.566 91.3466C200.902 89.7947 202.618 88.6124 204.549 87.9144C206.961 87.0186 209.521 86.5841 212.096 86.6339C215.528 86.5567 218.916 87.4055 221.902 89.09C223.974 90.3201 225.616 92.1516 226.61 94.3379C226.77 94.6719 226.999 94.9683 227.283 95.2072C227.567 95.4461 227.899 95.6221 228.257 95.7234C228.633 95.8333 229.028 95.8612 229.416 95.805C229.805 95.7488 230.176 95.61 230.505 95.398L230.663 95.3036C231.209 94.9627 231.616 94.4396 231.809 93.828C232.003 93.2163 231.971 92.5562 231.719 91.9659C230.347 88.9105 228.067 86.3463 225.185 84.6187C221.723 82.5719 217.331 81.5223 212.054 81.5223C208.457 81.4464 204.885 82.1409 201.582 83.5586C199.101 84.639 196.892 86.252 195.112 88.2818C193.984 89.6157 193.134 91.1588 192.61 92.8217C192.087 94.4847 191.9 96.2344 192.061 97.9696C192.289 100.681 193.431 103.237 195.302 105.222C197.476 107.563 201.097 109.284 206.069 110.323L218.25 112.916C221.701 113.661 224.087 114.753 225.322 116.191C226.546 117.584 227.208 119.379 227.18 121.229C227.196 122.606 226.857 123.965 226.196 125.176C225.534 126.387 224.572 127.409 223.401 128.146C220.899 129.909 217.331 130.853 212.824 130.853C208.752 130.978 204.722 130.006 201.16 128.041C198.861 126.726 196.959 124.823 195.65 122.53C195.466 122.207 195.217 121.924 194.918 121.701C194.62 121.477 194.278 121.318 193.914 121.232C193.55 121.146 193.172 121.136 192.805 121.202C192.437 121.269 192.087 121.41 191.776 121.617L191.417 121.858C190.845 122.244 190.441 122.831 190.288 123.502C190.135 124.172 190.245 124.876 190.594 125.469C192.4 128.571 195.069 131.09 198.278 132.722C202.65 134.942 207.505 136.055 212.412 135.965C216.107 136.036 219.781 135.413 223.243 134.128C226.115 133.067 228.615 131.2 230.442 128.754C232.147 126.365 233.041 123.497 232.996 120.567C233.074 117.616 232 114.75 229.998 112.569" fill="#7879B7"/>
<path d="M110.16 1.22672e-05C109.266 -0.00206469 108.391 0.259637 107.647 0.751991C106.903 1.24434 106.322 1.94522 105.978 2.76589C105.635 3.58656 105.544 4.49014 105.717 5.36224C105.89 6.23435 106.319 7.03578 106.951 7.66509C107.582 8.29439 108.387 8.72329 109.264 8.89748C110.141 9.07166 111.049 8.98332 111.876 8.64362C112.702 8.30392 113.408 7.72814 113.905 6.98916C114.402 6.25018 114.667 5.38123 114.667 4.4923C114.667 3.30268 114.192 2.16164 113.347 1.31948C112.502 0.477311 111.356 0.00279173 110.16 1.22672e-05Z" fill="#F2C6BB"/>
<path d="M48.694 50.2863C48.0177 50.0674 47.2821 50.1193 46.6436 50.4309C46.005 50.7425 45.5137 51.2892 45.274 51.9552C44.7305 53.482 43.9232 54.9028 42.8884 56.1535C41.3237 58.009 39.3222 59.4512 37.0617 60.3519C34.5572 61.3264 31.887 61.8111 29.1977 61.7794C25.7038 61.8641 22.2569 60.9654 19.2543 59.1869C16.3691 57.3456 14.0901 54.7036 12.6992 51.5878C11.0436 47.8479 10.2363 43.7914 10.3347 39.7063C10.2248 35.6 11.0324 31.5205 12.6992 27.7619C14.116 24.6469 16.4351 22.023 19.3598 20.2258C22.366 18.4546 25.8097 17.5531 29.3033 17.6228C32.9717 17.4772 36.587 18.5316 39.5951 20.6246C41.7334 22.2299 43.4052 24.3704 44.4401 26.8278C44.5807 27.1541 44.7873 27.4483 45.0469 27.692C45.3066 27.9358 45.6138 28.1239 45.9496 28.2447C46.2893 28.3713 46.6511 28.429 47.0137 28.4146C47.3762 28.4002 47.7322 28.3139 48.0607 28.1607L48.4407 27.9928C48.7688 27.8408 49.0629 27.625 49.3058 27.3583C49.5488 27.0915 49.7355 26.7791 49.8552 26.4394C50.0976 25.752 50.0559 24.997 49.7391 24.3402C48.8217 22.372 47.6 20.5587 46.1185 18.9663C44.1151 16.8481 41.6634 15.1989 38.9406 14.1381C35.8857 12.9781 32.6363 12.4081 29.3666 12.4587C24.8913 12.3892 20.4784 13.5089 16.5837 15.702C12.7844 17.9164 9.70912 21.1748 7.72749 25.0854C5.50792 29.6173 4.42157 34.615 4.56079 39.6539C4.4381 44.6878 5.52366 49.6783 7.72749 54.2118C9.67674 58.1278 12.7373 61.39 16.5309 63.5952C20.408 65.7738 24.7975 66.8895 29.2505 66.828C32.6405 66.8721 36.0057 66.2478 39.1517 64.9912C42.03 63.8297 44.6066 62.0356 46.6885 59.7432C48.2161 58.0333 49.4404 56.0777 50.3091 53.9599C50.4577 53.6113 50.5343 53.2365 50.5343 52.8578C50.5343 52.4791 50.4577 52.1043 50.3091 51.7557C50.1578 51.4213 49.9393 51.1212 49.667 50.8739C49.3947 50.6266 49.0743 50.4373 48.7257 50.3178" fill="#7879B7"/>
<path d="M97.8096 32.8629C97.424 32.8573 97.0413 32.9286 96.6839 33.0727C96.3266 33.2168 96.002 33.4308 95.7294 33.7019C95.4567 33.973 95.2416 34.2958 95.0966 34.6511C94.9517 35.0064 94.88 35.387 94.8857 35.7703V43.4744C94.8962 45.8638 94.4595 48.2342 93.5979 50.4647C92.7902 52.6285 91.5758 54.6197 90.0195 56.332C88.4286 58.0421 86.4889 59.3947 84.33 60.2995C81.9898 61.2685 79.4759 61.7542 76.941 61.7269C72.3176 61.7269 68.6865 60.5304 66.1531 58.1793C63.6198 55.8282 62.332 51.9656 62.332 46.6337V21.3488C62.332 20.5889 62.0284 19.8601 61.4879 19.3227C60.9475 18.7853 60.2146 18.4834 59.4503 18.4834C58.686 18.4834 57.953 18.7853 57.4126 19.3227C56.8722 19.8601 56.5686 20.5889 56.5686 21.3488V47.9352C56.4231 51.6333 57.2605 55.3043 58.9964 58.5781C60.5551 61.3392 62.9482 63.5425 65.8365 64.8757C68.9165 66.2424 72.2598 66.9231 75.6321 66.8699C80.0224 66.9746 84.3582 65.8859 88.1722 63.7212C91.2296 61.9279 93.6947 59.2871 95.2657 56.1221L95.4029 63.2488C95.4619 63.9042 95.7654 64.514 96.2538 64.9581C96.7422 65.4021 97.38 65.6484 98.0418 65.6484C98.7036 65.6484 99.3414 65.4021 99.8298 64.9581C100.318 64.514 100.622 63.9042 100.681 63.2488V35.7388C100.681 34.9761 100.376 34.2446 99.8336 33.7053C99.2912 33.1659 98.5555 32.8629 97.7885 32.8629" fill="#7879B7"/>
<path d="M165.609 0.283405H165.134C164.432 0.286169 163.76 0.564618 163.263 1.05808C162.767 1.55155 162.487 2.22004 162.484 2.9179V24.5291C161.21 21.6166 159.194 19.0844 156.636 17.1819C153.023 14.5611 148.642 13.1963 144.17 13.2984C139.821 13.2358 135.534 14.3225 131.746 16.4472C127.969 18.6376 124.897 21.8523 122.89 25.7152C120.607 30.2732 119.487 35.3196 119.628 40.4096C119.5 45.4404 120.563 50.4307 122.731 54.978C124.624 58.8654 127.608 62.1245 131.324 64.3614C135.056 66.5396 139.315 67.6611 143.642 67.6047C146.812 67.6268 149.952 67.0017 152.868 65.7679C155.669 64.5774 158.134 62.7213 160.046 60.3624C161.208 58.9303 162.138 57.326 162.801 55.6077L162.991 64.0045C163.056 64.6596 163.366 65.2667 163.859 65.7062C164.351 66.1457 164.992 66.3858 165.654 66.3792C166.316 66.3726 166.951 66.1198 167.435 65.6706C167.919 65.2214 168.217 64.6083 168.269 63.9521V2.9179C168.269 2.57105 168.2 2.22761 168.066 1.90729C167.932 1.58697 167.736 1.29608 167.489 1.05131C167.242 0.806536 166.948 0.6127 166.626 0.480923C166.303 0.349147 165.957 0.282023 165.609 0.283405ZM162.442 40.0737C162.529 44.1898 161.741 48.2779 160.13 52.0706C158.784 55.2233 156.561 57.9287 153.723 59.8691C150.897 61.6898 147.589 62.6291 144.223 62.5666C138.438 62.5666 133.804 60.5828 130.437 56.6573C127.07 52.7318 125.349 47.2844 125.349 40.483C125.349 33.6816 127.08 28.2447 130.49 24.3192C133.899 20.3937 138.586 18.41 144.434 18.41C147.746 18.3461 151.004 19.2473 153.807 21.0025C156.58 22.8415 158.775 25.4208 160.141 28.4441C161.763 32.1041 162.552 36.0752 162.452 40.0737" fill="#7879B7"/>
<path d="M224.72 62.0208C224.483 61.8089 224.203 61.649 223.899 61.5513C223.596 61.4537 223.275 61.4206 222.958 61.454C221.858 61.5849 220.75 61.641 219.643 61.622H219.443C216.276 61.622 214.724 59.9216 214.724 56.374V30.5433C214.844 27.057 214.001 23.6047 212.286 20.5616C210.671 17.9083 208.291 15.7984 205.456 14.5055C202.26 13.0886 198.79 12.3898 195.291 12.4587C190.58 12.3014 185.922 13.4849 181.864 15.8699C179.36 17.4236 177.262 19.5459 175.742 22.0626C175.509 22.4457 175.381 22.8831 175.372 23.3308C175.363 23.7785 175.472 24.2208 175.689 24.6131C175.905 25.0112 176.223 25.3458 176.61 25.5834C176.997 25.8211 177.441 25.9534 177.895 25.9671H177.959C178.378 25.9683 178.791 25.8664 179.161 25.6704C179.532 25.4745 179.847 25.1906 180.08 24.844C181.305 22.8517 183.029 21.2098 185.084 20.0788C188.151 18.3433 191.637 17.4757 195.165 17.5703C199.577 17.5703 203.007 18.7983 205.372 21.2124C207.736 23.6265 208.887 27.0797 208.887 31.467V34.6158L188.609 38.6043C183.859 39.5069 180.165 41.1863 177.484 43.5898C176.169 44.812 175.135 46.3017 174.452 47.9572C173.769 49.6127 173.453 51.3952 173.525 53.1832C173.437 55.8464 174.222 58.4659 175.763 60.6458C177.345 62.7212 179.481 64.3138 181.928 65.2431C184.746 66.3324 187.75 66.8671 190.773 66.8175C193.647 66.8104 196.499 66.3353 199.218 65.411C201.988 64.4896 204.526 62.9861 206.66 61.0027C207.516 60.191 208.264 59.274 208.887 58.2737C209.005 59.7073 209.43 61.0992 210.132 62.3567C210.938 63.7624 212.162 64.8847 213.637 65.5685C215.081 66.2108 216.647 66.5366 218.229 66.5236C220.004 66.4762 221.771 66.2618 223.506 65.8833C223.929 65.8256 224.327 65.6494 224.653 65.3752C224.979 65.1011 225.219 64.7404 225.347 64.3353C225.474 63.9302 225.483 63.4974 225.372 63.0875C225.261 62.6777 225.035 62.3077 224.72 62.0208ZM182.339 46.5917C184.313 45.0383 187.353 43.8418 191.375 43.0336L208.887 39.5384V47.3054C208.955 49.5802 208.428 51.8335 207.356 53.8444C206.343 55.6263 204.931 57.1526 203.229 58.3052C201.497 59.4907 199.572 60.3712 197.54 60.9082C195.561 61.4438 193.52 61.719 191.47 61.7269C187.596 61.7269 184.567 60.9292 182.477 59.3548C181.462 58.594 180.648 57.5995 180.106 56.4568C179.563 55.314 179.308 54.0573 179.363 52.7948C179.322 51.6057 179.565 50.4239 180.071 49.3459C180.578 48.2678 181.333 47.3241 182.276 46.5917" fill="#7879B7"/>
<path d="M114.941 13.4978H106.708V62.934C106.708 63.6939 107.012 64.4227 107.552 64.9601C108.092 65.4975 108.825 65.7994 109.59 65.7994C110.354 65.7994 111.087 65.4975 111.627 64.9601C112.168 64.4227 112.471 63.6939 112.471 62.934V18.6934H114.941C115.641 18.6934 116.313 18.4169 116.807 17.9248C117.302 17.4327 117.58 16.7653 117.58 16.0694C117.58 15.3734 117.302 14.706 116.807 14.2139C116.313 13.7218 115.641 13.4454 114.941 13.4454" fill="#7879B7"/>
<path d="M148.551 94.5269C147.521 94.5269 146.515 94.8304 145.66 95.3989C144.804 95.9675 144.137 96.7757 143.743 97.7212C143.349 98.6667 143.246 99.7071 143.447 100.711C143.648 101.715 144.143 102.637 144.871 103.36C145.599 104.084 146.526 104.577 147.535 104.776C148.545 104.976 149.591 104.874 150.542 104.482C151.493 104.09 152.306 103.427 152.878 102.576C153.449 101.725 153.755 100.725 153.755 99.7014C153.755 98.329 153.206 97.0129 152.23 96.0424C151.255 95.072 149.931 94.5269 148.551 94.5269Z" fill="#F2C6BB"/>
<path d="M174.425 94.7474L166.555 99.2659L168.824 103.174L176.695 98.656L174.425 94.7474Z" fill="#FBD6BD"/>
<path d="M175.044 92.4533L164.257 98.646L168.21 105.454L178.997 99.2616L175.044 92.4533Z" fill="#F2C6BB"/>
<path d="M11.3375 163.8H9.81752L8.57195 160.547H3.22022L1.99577 163.8H0.475751L5.06747 152.076H6.76693L11.3375 163.8ZM3.73745 159.193H8.05472L5.89081 153.42L3.73745 159.193Z" fill="#7879B7"/>
<path d="M17.3754 151.898C18.309 151.872 19.2332 152.089 20.0565 152.528C20.8378 152.97 21.4863 153.611 21.9354 154.385L20.7426 155.309C20.3948 154.651 19.8775 154.097 19.2437 153.703C18.6287 153.373 17.9368 153.21 17.2382 153.231C16.7049 153.212 16.1733 153.301 15.6759 153.493C15.3098 153.633 14.9938 153.878 14.7681 154.197C14.5774 154.49 14.4783 154.834 14.4831 155.183C14.4896 155.567 14.6274 155.937 14.8737 156.233C15.3074 156.636 15.8577 156.893 16.4465 156.967L19.0115 157.545C19.8978 157.666 20.7243 158.058 21.376 158.668C21.8251 159.19 22.0622 159.86 22.041 160.547C22.0532 161.179 21.8567 161.799 21.4815 162.31C21.0739 162.848 20.5265 163.265 19.8982 163.517C19.1355 163.814 18.3209 163.957 17.502 163.937C16.7347 163.95 15.9707 163.833 15.2431 163.59C14.6346 163.383 14.0694 163.066 13.5753 162.656C13.1257 162.281 12.7375 161.838 12.4248 161.344L13.6809 160.295C13.9007 160.741 14.1972 161.146 14.557 161.491C14.9292 161.844 15.3715 162.116 15.8554 162.289C16.4141 162.487 17.0041 162.583 17.597 162.572C18.1332 162.582 18.6675 162.507 19.1804 162.352C19.5899 162.239 19.957 162.009 20.236 161.691C20.4814 161.395 20.6156 161.024 20.6156 160.641C20.6156 160.258 20.4814 159.887 20.236 159.592C19.8511 159.224 19.3602 158.985 18.8321 158.909L16.0559 158.29C15.4344 158.161 14.8388 157.931 14.2931 157.608C13.8824 157.352 13.5502 156.989 13.3326 156.558C13.1322 156.161 13.0309 155.722 13.037 155.278C13.0349 154.661 13.2188 154.058 13.5648 153.546C13.9436 152.988 14.4695 152.545 15.0848 152.265C15.8202 151.934 16.6212 151.773 17.4282 151.793" fill="#7879B7"/>
<path d="M26.4744 152.066H25.0493V163.8H26.4744V152.066Z" fill="#7879B7"/>
<path d="M34.1272 151.898C35.0607 151.873 35.9847 152.09 36.8084 152.528C37.5851 152.976 38.2323 153.616 38.6873 154.385L37.4839 155.309C37.139 154.653 36.6255 154.099 35.9956 153.703C35.3767 153.373 34.6815 153.21 33.9794 153.231C33.4462 153.213 32.9148 153.302 32.4172 153.493C32.054 153.633 31.7414 153.878 31.52 154.197C31.3293 154.49 31.2301 154.834 31.235 155.183C31.2371 155.568 31.3754 155.939 31.6255 156.233C32.0576 156.638 32.6087 156.896 33.1983 156.967L35.7528 157.545C36.6391 157.666 37.4656 158.058 38.1173 158.668C38.5738 159.186 38.8153 159.858 38.7928 160.547C38.8005 161.179 38.6044 161.797 38.2334 162.31C37.8235 162.846 37.2768 163.262 36.65 163.517C35.8871 163.813 35.0727 163.956 34.2539 163.937C33.4865 163.951 32.7224 163.834 31.995 163.59C31.3817 163.386 30.8124 163.069 30.3166 162.656C29.8673 162.284 29.4822 161.84 29.1766 161.344L30.4222 160.295C30.6493 160.737 30.945 161.141 31.2983 161.491C31.6686 161.864 32.1149 162.154 32.6072 162.341C33.166 162.539 33.7559 162.635 34.3489 162.625C34.8851 162.636 35.4197 162.561 35.9322 162.404C36.3431 162.295 36.711 162.064 36.9878 161.743C37.2243 161.445 37.3477 161.073 37.3362 160.694C37.3465 160.31 37.215 159.937 36.9667 159.644C36.5774 159.277 36.0833 159.038 35.5522 158.962L32.7867 158.342C32.1646 158.215 31.5686 157.985 31.0239 157.66C30.6103 157.405 30.2746 157.042 30.0527 156.611C29.8572 156.212 29.7561 155.774 29.7572 155.33C29.7551 154.713 29.9389 154.11 30.285 153.598C30.6689 153.045 31.1933 152.603 31.805 152.318C32.5442 151.987 33.3486 151.826 34.1589 151.845" fill="#7879B7"/>
<path d="M49.5596 152.066V153.399H45.4429V163.8H44.0179V153.399H39.9012V152.066H49.5596Z" fill="#7879B7"/>
<path d="M52.0613 163.8V152.066H60.3369V153.399H53.4863V157.188H58.8169V158.521H53.4863V162.467H60.6008V163.8H52.0613Z" fill="#7879B7"/>
<path d="M72.7187 152.066V163.8H70.9559L66.0159 155.939L64.7703 153.735H64.7492L64.8231 155.519V163.8H63.4614V152.066H65.2348L70.1432 159.885L71.4204 162.142H71.431L71.3571 160.347V152.066H72.7187Z" fill="#7879B7"/>
<path d="M86.0822 160.799C85.8568 161.437 85.4969 162.02 85.0267 162.509C84.5663 162.988 84.0085 163.364 83.3905 163.611C82.737 163.86 82.0424 163.985 81.3427 163.979C80.3252 164.007 79.3199 163.753 78.4399 163.244C77.6144 162.743 76.954 162.014 76.5399 161.145C76.1011 160.129 75.8748 159.034 75.8748 157.928C75.8748 156.822 76.1011 155.727 76.5399 154.711C76.954 153.842 77.6144 153.112 78.4399 152.612C79.3094 152.105 80.3038 151.851 81.3111 151.877C82.0022 151.868 82.6902 151.971 83.3483 152.181C83.9153 152.378 84.4335 152.693 84.8683 153.105C85.3201 153.532 85.6794 154.046 85.9239 154.616L84.5094 155.267C84.2952 154.656 83.9019 154.122 83.38 153.735C82.8131 153.359 82.1393 153.175 81.4588 153.21C80.7167 153.195 79.9853 153.388 79.3477 153.766C78.7269 154.154 78.232 154.711 77.9227 155.372C77.5644 156.174 77.3913 157.046 77.416 157.923C77.3923 158.791 77.558 159.654 77.9016 160.452C78.1881 161.114 78.6657 161.677 79.2738 162.069C79.9102 162.449 80.6424 162.642 81.385 162.625C82.1343 162.65 82.8728 162.441 83.4961 162.027C84.1094 161.592 84.556 160.963 84.7628 160.242L86.0822 160.799Z" fill="#7879B7"/>
<path d="M90.2728 152.066H88.8478V163.8H90.2728V152.066Z" fill="#7879B7"/>
<path d="M103.531 163.8H102.011L100.755 160.547H95.4134L94.1679 163.8H92.6584L97.2607 152.076H98.9496L103.531 163.8ZM95.9412 159.193H100.248L98.1368 153.42L95.9412 159.193Z" fill="#7879B7"/>
<path d="M111.31 163.8V152.066H119.586V153.399H112.735V157.188H118.066V158.521H112.735V162.467H119.85V163.8H111.31Z" fill="#7879B7"/>
<path d="M131.968 152.066V163.8H130.205L125.265 155.939L124.019 153.735H123.998L124.072 155.519V163.8H122.71V152.066H124.484L129.403 159.885L130.669 162.142H130.68L130.617 160.347V152.066H131.968Z" fill="#7879B7"/>
<path d="M149.733 152.066V153.399H145.627V163.8H144.191V153.399H140.085V152.066H149.733Z" fill="#7879B7"/>
<path d="M161.26 152.076V159.424C161.304 160.041 161.222 160.662 161.017 161.246C160.811 161.831 160.488 162.368 160.067 162.824C159.079 163.567 157.875 163.968 156.636 163.968C155.398 163.968 154.194 163.567 153.206 162.824C152.78 162.37 152.454 161.834 152.247 161.249C152.04 160.664 151.957 160.042 152.002 159.424V152.076H153.427V159.077C153.349 160.041 153.627 161 154.209 161.775C154.889 162.337 155.746 162.645 156.631 162.645C157.516 162.645 158.373 162.337 159.054 161.775C159.635 161 159.913 160.041 159.835 159.077V152.076H161.26Z" fill="#7879B7"/>
<path d="M172.417 163.8H170.981V152.076H172.417V163.8ZM179.479 158.552H171.731V157.219H179.479V158.552ZM180.239 163.8H178.814V152.076H180.239V163.8Z" fill="#7879B7"/>
<path d="M188.831 151.898C189.848 151.871 190.853 152.125 191.734 152.633C192.556 153.134 193.213 153.864 193.623 154.732C194.069 155.746 194.299 156.842 194.299 157.949C194.299 159.056 194.069 160.151 193.623 161.166C193.213 162.034 192.556 162.764 191.734 163.265C190.841 163.747 189.842 164 188.826 164C187.81 164 186.81 163.747 185.918 163.265C185.095 162.764 184.438 162.034 184.028 161.166C183.583 160.151 183.353 159.056 183.353 157.949C183.353 156.842 183.583 155.746 184.028 154.732C184.438 153.864 185.095 153.134 185.918 152.633C186.802 152.124 187.81 151.87 188.831 151.898ZM188.831 153.231C188.089 153.214 187.356 153.406 186.72 153.787C186.109 154.179 185.628 154.741 185.337 155.404C184.704 157.035 184.704 158.842 185.337 160.473C185.628 161.136 186.109 161.698 186.72 162.09C187.362 162.458 188.09 162.652 188.831 162.652C189.572 162.652 190.3 162.458 190.942 162.09C191.548 161.695 192.025 161.133 192.314 160.473C192.947 158.842 192.947 157.035 192.314 155.404C192.025 154.744 191.548 154.182 190.942 153.787C190.306 153.406 189.574 153.214 188.831 153.231Z" fill="#7879B7"/>
<path d="M202.226 163.979C201.209 164.007 200.203 163.753 199.323 163.244C198.501 162.74 197.841 162.011 197.423 161.145C196.957 160.136 196.729 159.033 196.758 157.923C196.728 156.811 196.971 155.708 197.466 154.711C197.904 153.835 198.59 153.106 199.44 152.612C200.326 152.109 201.333 151.855 202.353 151.877C203.344 151.836 204.329 152.06 205.203 152.528C205.979 153.021 206.597 153.724 206.987 154.553L205.678 155.267C205.447 154.632 205.009 154.092 204.432 153.735C203.796 153.358 203.062 153.175 202.321 153.21C201.579 153.194 200.847 153.387 200.21 153.766C199.583 154.157 199.081 154.718 198.764 155.383C198.395 156.174 198.215 157.04 198.236 157.912C198.218 158.78 198.372 159.644 198.69 160.452C198.966 161.117 199.441 161.682 200.052 162.069C200.721 162.455 201.485 162.648 202.258 162.625C202.722 162.628 203.184 162.565 203.63 162.436C204.034 162.328 204.411 162.139 204.739 161.88C205.055 161.626 205.308 161.302 205.477 160.935C205.664 160.516 205.754 160.06 205.741 159.602V159.193H201.994V157.86H207.05V163.779H205.921L205.857 161.596L206.153 161.649C205.865 162.378 205.342 162.991 204.665 163.391C203.909 163.813 203.05 164.02 202.184 163.989" fill="#7879B7"/>
<path d="M219.812 163.8H218.292L217.046 160.547H211.705L210.449 163.8H208.95L213.542 152.076H215.22L219.812 163.8ZM212.222 159.193H216.529L214.365 153.42L212.222 159.193Z" fill="#7879B7"/>
<path d="M226.684 152.076C227.729 152.025 228.757 152.353 229.576 153C229.928 153.312 230.205 153.698 230.388 154.13C230.57 154.563 230.654 155.03 230.632 155.498C230.66 155.962 230.579 156.427 230.396 156.855C230.213 157.283 229.932 157.663 229.576 157.965C228.741 158.586 227.715 158.898 226.673 158.846L226.547 158.93H223.665V163.8H222.229V152.076H226.684ZM226.684 157.597C227.353 157.654 228.021 157.468 228.563 157.072C228.966 156.646 229.19 156.083 229.19 155.498C229.19 154.913 228.966 154.35 228.563 153.924C228.021 153.528 227.353 153.342 226.684 153.399H223.665V157.597H226.684ZM227.507 157.881L231.402 163.8H229.682L226.283 158.668L227.507 157.881Z" fill="#7879B7"/>
</svg>
