<svg width="309" height="224" viewBox="0 0 309 224" fill="none" xmlns="http://www.w3.org/2000/svg">
<g filter="url(#filter0_d_1932_355)">
<path d="M102.016 127.138C99.558 122.277 95.7433 118.229 91.0314 115.479C86.0719 112.831 80.5334 111.446 74.9078 111.446C69.2822 111.446 63.7436 112.831 58.7842 115.479C54.0837 118.235 50.2791 122.283 47.8256 127.138C45.0696 132.774 43.722 138.992 43.8978 145.26C43.722 151.528 45.0696 157.746 47.8256 163.382C50.2789 168.242 54.0892 172.291 58.7972 175.041C63.7535 177.699 69.2933 179.09 74.9209 179.09C80.5484 179.09 86.0882 177.699 91.0445 175.041C95.7564 172.291 99.5711 168.243 102.029 163.382C104.779 157.743 106.127 151.527 105.957 145.26C106.127 138.992 104.779 132.777 102.029 127.138M98.887 145.26C99.0066 150.352 97.9822 155.406 95.8887 160.052C94.0984 163.96 91.2048 167.263 87.5618 169.557C83.7169 171.723 79.376 172.861 74.9601 172.861C70.5443 172.861 66.2033 171.723 62.3584 169.557C58.7238 167.257 55.8359 163.956 54.0446 160.052C52.0569 155.363 51.0327 150.325 51.0327 145.234C51.0327 140.143 52.0569 135.104 54.0446 130.415C55.8443 126.531 58.7314 123.249 62.3584 120.963C66.2062 118.806 70.546 117.673 74.9601 117.673C79.3743 117.673 83.7141 118.806 87.5618 120.963C91.1937 123.247 94.0855 126.53 95.8887 130.415C97.9963 135.075 99.0212 140.15 98.887 145.26Z" fill="white"/>
<path d="M238.232 145.782C237.707 145.22 237.028 144.825 236.279 144.645C235.53 144.465 234.745 144.509 234.021 144.77C233.297 145.032 232.666 145.5 232.207 146.116C231.747 146.732 231.479 147.47 231.437 148.237C231.251 152.301 230.277 156.292 228.57 159.987C226.787 163.805 223.943 167.032 220.374 169.283C216.579 171.421 212.294 172.545 207.936 172.545C203.577 172.545 199.292 171.421 195.498 169.283C191.929 167.032 189.084 163.805 187.302 159.987C185.594 156.292 184.621 152.301 184.434 148.237C184.377 147.237 183.939 146.297 183.208 145.61C182.478 144.922 181.511 144.54 180.507 144.542C179.962 144.548 179.425 144.668 178.929 144.893C178.433 145.117 177.989 145.443 177.626 145.848C177.265 146.229 176.986 146.682 176.808 147.176C176.63 147.67 176.557 148.196 176.592 148.72C176.849 153.891 178.187 158.952 180.52 163.578C183.021 168.474 186.879 172.552 191.635 175.328C196.645 178.01 202.243 179.414 207.929 179.414C213.615 179.414 219.213 178.01 224.223 175.328C228.984 172.558 232.843 168.478 235.339 163.578C237.671 158.952 239.009 153.891 239.266 148.72C239.305 148.196 239.233 147.669 239.055 147.174C238.876 146.68 238.596 146.228 238.232 145.848" fill="white"/>
<path d="M41.384 169.923C41.1923 169.507 40.9111 169.138 40.5604 168.842C40.2097 168.547 39.798 168.332 39.3547 168.212C38.9253 168.096 38.4757 168.074 38.037 168.149C37.5984 168.223 37.1813 168.392 36.8147 168.643C36.061 169.156 35.2584 169.593 34.4187 169.949C32.4432 170.776 30.3157 171.181 28.1735 171.137C26.6689 171.241 25.1594 171.023 23.746 170.499C22.3325 169.974 21.0477 169.155 19.9775 168.095C18.1053 166.071 17.1626 163.055 17.1626 159.125V117.607C17.3585 117.628 17.5559 117.628 17.7518 117.607H38.1763C38.6034 117.635 39.0316 117.575 39.4345 117.431C39.8373 117.287 40.2063 117.062 40.5185 116.77C40.8308 116.478 41.0797 116.126 41.2498 115.734C41.42 115.343 41.5078 114.92 41.5078 114.494C41.5078 114.067 41.42 113.645 41.2498 113.253C41.0797 112.861 40.8308 112.509 40.5185 112.217C40.2063 111.925 39.8373 111.7 39.4345 111.556C39.0316 111.412 38.6034 111.352 38.1763 111.38H17.7125C17.5166 111.359 17.3192 111.359 17.1233 111.38V102.267C17.1233 101.439 16.7937 100.645 16.2068 100.06C15.62 99.475 14.8241 99.1463 13.9942 99.1463H13.0777C12.2592 99.1634 11.48 99.4996 10.9073 100.083C10.3345 100.666 10.0138 101.45 10.014 102.267V160.013C9.88662 163.458 10.6295 166.879 12.1743 169.962C13.5533 172.523 15.7128 174.58 18.3409 175.837C21.177 177.149 24.2752 177.801 27.4011 177.743C30.3114 177.779 33.2026 177.27 35.9244 176.242C37.565 175.602 39.1144 174.751 40.533 173.709C41.0891 173.277 41.4806 172.669 41.6425 171.985C41.8045 171.301 41.7271 170.583 41.4233 169.949L41.384 169.923Z" fill="white"/>
<path d="M165.175 98.0104H164.586C163.717 98.0139 162.884 98.3606 162.271 98.9748C161.657 99.589 161.313 100.421 161.313 101.287V125.376C159.729 121.755 157.23 118.606 154.059 116.237C149.562 112.968 144.108 111.27 138.545 111.406C133.151 111.329 127.833 112.68 123.135 115.323C118.453 118.048 114.648 122.047 112.163 126.851C109.329 132.52 107.94 138.798 108.117 145.129C107.949 151.423 109.273 157.668 111.98 163.356C114.327 168.184 118.023 172.233 122.624 175.015C127.256 177.728 132.544 179.128 137.916 179.062C141.843 179.091 145.734 178.313 149.346 176.777C152.825 175.292 155.887 172.979 158.262 170.04C159.694 168.257 160.847 166.267 161.679 164.139L161.902 174.584C161.984 175.399 162.37 176.153 162.982 176.699C163.595 177.244 164.39 177.542 165.211 177.532C166.032 177.522 166.82 177.206 167.419 176.646C168.018 176.086 168.385 175.322 168.448 174.505V101.287C168.445 100.419 168.097 99.5879 167.482 98.974C166.866 98.3602 166.032 98.0138 165.162 98.0104M161.3 144.712C161.411 149.833 160.429 154.92 158.419 159.635C156.757 163.564 153.999 166.936 150.472 169.348C146.965 171.609 142.863 172.777 138.689 172.704C131.514 172.704 125.753 170.223 121.59 165.353C117.426 160.483 115.279 153.694 115.279 145.234C115.279 136.774 117.426 130.011 121.655 125.115C125.884 120.219 131.684 117.764 138.95 117.764C143.056 117.69 147.093 118.815 150.564 121.002C154.006 123.286 156.73 126.495 158.419 130.259C160.441 134.804 161.425 139.741 161.3 144.712Z" fill="white"/>
<path d="M295.277 149.96C292.828 147.349 288.469 145.286 282.315 143.994L266.826 140.651C262.532 139.724 259.508 138.275 257.845 136.317C256.243 134.516 255.354 132.196 255.344 129.789C255.326 127.542 256.1 125.361 257.531 123.626C259.187 121.696 261.316 120.225 263.71 119.357C266.702 118.243 269.878 117.702 273.072 117.764C277.328 117.668 281.532 118.724 285.235 120.819C287.804 122.349 289.842 124.628 291.074 127.347C291.272 127.763 291.557 128.131 291.909 128.428C292.261 128.726 292.673 128.945 293.116 129.071C293.583 129.207 294.074 129.242 294.555 129.172C295.036 129.102 295.497 128.93 295.905 128.666L296.102 128.548C296.779 128.124 297.283 127.474 297.523 126.713C297.763 125.952 297.723 125.131 297.411 124.397C295.709 120.596 292.881 117.406 289.307 115.257C285.012 112.711 279.566 111.406 273.019 111.406C268.558 111.311 264.128 112.175 260.031 113.939C256.954 115.283 254.213 117.289 252.006 119.814C250.607 121.473 249.552 123.393 248.903 125.461C248.253 127.53 248.022 129.706 248.222 131.865C248.505 135.237 249.921 138.416 252.241 140.886C254.938 143.798 259.429 145.939 265.596 147.231L280.705 150.456C284.986 151.383 287.945 152.741 289.477 154.53C290.995 156.263 291.816 158.495 291.781 160.797C291.801 162.51 291.381 164.201 290.561 165.707C289.74 167.213 288.547 168.485 287.094 169.401C283.991 171.594 279.566 172.769 273.975 172.769C268.924 172.924 263.926 171.715 259.508 169.27C256.656 167.635 254.296 165.268 252.673 162.416C252.445 162.013 252.136 161.662 251.766 161.384C251.395 161.106 250.971 160.907 250.52 160.801C250.068 160.694 249.6 160.682 249.144 160.764C248.688 160.846 248.253 161.022 247.868 161.28L247.423 161.58C246.713 162.059 246.212 162.79 246.023 163.624C245.833 164.458 245.969 165.333 246.402 166.071C248.642 169.93 251.952 173.063 255.933 175.093C261.356 177.854 267.377 179.24 273.464 179.127C278.046 179.216 282.604 178.441 286.897 176.842C290.46 175.523 293.562 173.201 295.827 170.158C297.942 167.185 299.051 163.618 298.995 159.974C299.092 156.303 297.759 152.738 295.277 150.025" fill="white"/>
<path d="M146.636 10C145.527 9.99743 144.442 10.323 143.519 10.9354C142.596 11.5478 141.876 12.4197 141.449 13.4405C141.023 14.4613 140.91 15.5853 141.125 16.6701C141.34 17.7549 141.873 18.7518 142.656 19.5346C143.439 20.3174 144.437 20.8509 145.525 21.0676C146.612 21.2843 147.739 21.1744 148.764 20.7518C149.789 20.3293 150.665 19.613 151.281 18.6938C151.897 17.7746 152.226 16.6937 152.226 15.588C152.226 14.1082 151.638 12.6889 150.59 11.6413C149.542 10.5937 148.12 10.0035 146.636 10Z" fill="white"/>
<path d="M70.3973 72.5512C69.5584 72.279 68.646 72.3435 67.854 72.7311C67.062 73.1187 66.4526 73.7988 66.1553 74.6271C65.4812 76.5264 64.4799 78.2937 63.1964 79.8495C61.2556 82.1575 58.773 83.9515 55.9692 85.0719C52.8627 86.2841 49.5508 86.887 46.2152 86.8475C41.8815 86.9529 37.6062 85.835 33.8819 83.6227C30.3033 81.3323 27.4765 78.0459 25.7514 74.1702C23.6978 69.5181 22.6965 64.4722 22.8186 59.3908C22.6823 54.2829 23.6839 49.2084 25.7514 44.5331C27.5087 40.6583 30.3851 37.3944 34.0128 35.1589C37.7415 32.9557 42.0129 31.8344 46.3461 31.921C50.8963 31.7399 55.3804 33.0516 59.1115 35.655C61.7637 37.6518 63.8374 40.3143 65.121 43.3711C65.2954 43.7771 65.5516 44.143 65.8736 44.4462C66.1957 44.7494 66.5768 44.9834 66.9932 45.1337C67.4147 45.2911 67.8634 45.3629 68.3131 45.345C68.7627 45.327 69.2043 45.2197 69.6118 45.0292L70.0831 44.8203C70.49 44.6312 70.8549 44.3629 71.1562 44.031C71.4575 43.6992 71.6891 43.3105 71.8375 42.888C72.1382 42.033 72.0864 41.0939 71.6935 40.2768C70.5556 37.8285 69.0404 35.573 67.2027 33.5922C64.7178 30.9573 61.6769 28.906 58.2997 27.5864C54.5106 26.1435 50.4802 25.4345 46.4247 25.4975C40.8737 25.411 35.4003 26.8037 30.5695 29.5318C25.857 32.2863 22.0426 36.3394 19.5847 41.2038C16.8317 46.841 15.4843 53.0577 15.6569 59.3255C15.5048 65.5872 16.8512 71.7949 19.5847 77.4342C22.0025 82.3053 25.7986 86.3632 30.504 89.1062C35.313 91.8162 40.7575 93.204 46.2807 93.1275C50.4855 93.1824 54.6595 92.4058 58.5616 90.8427C62.1317 89.3979 65.3275 87.1662 67.9097 84.3147C69.8046 82.1878 71.3231 79.7552 72.4005 77.1208C72.5849 76.6872 72.6799 76.221 72.6799 75.75C72.6799 75.2789 72.5849 74.8127 72.4005 74.3791C72.2129 73.9631 71.9418 73.5898 71.6041 73.2822C71.2663 72.9746 70.869 72.7391 70.4366 72.5904" fill="white"/>
<path d="M131.317 50.8783C130.839 50.8713 130.364 50.96 129.921 51.1393C129.478 51.3185 129.075 51.5846 128.737 51.9219C128.399 52.2591 128.132 52.6606 127.952 53.1025C127.773 53.5445 127.684 54.0179 127.691 54.4948V64.0779C127.704 67.05 127.162 69.9987 126.093 72.7732C125.092 75.4647 123.585 77.9415 121.655 80.0715C119.682 82.1987 117.276 83.8813 114.598 85.0066C111.696 86.212 108.577 86.8162 105.433 86.7823C99.6987 86.7823 95.1948 85.2939 92.0526 82.3693C88.9103 79.4448 87.313 74.6402 87.313 68.0078V36.5559C87.313 35.6106 86.9365 34.704 86.2662 34.0356C85.5959 33.3671 84.6867 32.9916 83.7388 32.9916C82.7908 32.9916 81.8817 33.3671 81.2113 34.0356C80.541 34.704 80.1645 35.6106 80.1645 36.5559V69.6267C79.984 74.2268 81.0226 78.7932 83.1758 82.8655C85.1091 86.3 88.0773 89.0406 91.6598 90.6991C95.4801 92.3991 99.6269 93.2458 103.81 93.1797C109.255 93.3098 114.633 91.9556 119.364 89.2629C123.156 87.0323 126.214 83.7474 128.162 79.8104L128.332 88.6754C128.406 89.4906 128.782 90.2491 129.388 90.8015C129.994 91.3539 130.785 91.6602 131.606 91.6602C132.426 91.6602 133.217 91.3539 133.823 90.8015C134.429 90.2491 134.805 89.4906 134.879 88.6754V54.4556C134.879 53.5069 134.501 52.597 133.828 51.9261C133.155 51.2552 132.243 50.8783 131.291 50.8783" fill="white"/>
<path d="M215.412 10.3525H214.822C213.952 10.356 213.118 10.7023 212.502 11.3162C211.887 11.93 211.54 12.7615 211.536 13.6296V40.5119C209.955 36.8889 207.456 33.7391 204.283 31.3727C199.801 28.1126 194.367 26.415 188.82 26.5419C183.427 26.4641 178.109 27.8157 173.41 30.4587C168.725 33.1833 164.915 37.1821 162.426 41.9872C159.594 47.657 158.205 53.9341 158.38 60.2656C158.222 66.5234 159.54 72.7308 162.229 78.3873C164.577 83.2228 168.278 87.2768 172.887 90.0593C177.515 92.7687 182.799 94.1639 188.166 94.0936C192.097 94.1212 195.991 93.3435 199.609 91.8088C203.084 90.328 206.141 88.0192 208.512 85.085C209.953 83.3035 211.107 81.3079 211.929 79.1706L212.165 89.6154C212.246 90.4303 212.629 91.1854 213.241 91.7321C213.852 92.2788 214.647 92.5775 215.468 92.5693C216.289 92.5611 217.077 92.2466 217.677 91.6879C218.278 91.1291 218.646 90.3664 218.711 89.5501V13.6296C218.711 13.1981 218.625 12.7709 218.46 12.3725C218.294 11.974 218.05 11.6122 217.744 11.3077C217.437 11.0033 217.073 10.7621 216.673 10.5982C216.273 10.4343 215.844 10.3508 215.412 10.3525ZM211.484 59.8478C211.591 64.9678 210.614 70.0529 208.616 74.7708C206.947 78.6924 204.19 82.0576 200.669 84.4714C197.165 86.7361 193.061 87.9045 188.886 87.8267C181.711 87.8267 175.963 85.3592 171.787 80.4762C167.61 75.5933 165.476 68.8172 165.476 60.3569C165.476 51.8967 167.623 45.1337 171.852 40.2507C176.081 35.3678 181.894 32.9002 189.148 32.9002C193.256 32.8208 197.297 33.9418 200.774 36.125C204.213 38.4126 206.936 41.6209 208.63 45.3817C210.642 49.9344 211.621 54.8741 211.497 59.8478" fill="white"/>
<path d="M288.73 87.1478C288.436 86.8843 288.089 86.6853 287.712 86.5639C287.336 86.4424 286.938 86.4012 286.544 86.4428C285.18 86.6056 283.806 86.6754 282.433 86.6517H282.184C278.256 86.6517 276.332 84.5366 276.332 80.1237V47.9929C276.481 43.6563 275.435 39.362 273.307 35.5767C271.304 32.2761 268.353 29.6517 264.836 28.0434C260.872 26.2809 256.567 25.4117 252.228 25.4975C246.385 25.3018 240.607 26.7739 235.574 29.7407C232.468 31.6733 229.865 34.3132 227.981 37.4437C227.691 37.9202 227.533 38.4643 227.521 39.0212C227.51 39.5782 227.646 40.1283 227.915 40.6163C228.183 41.1115 228.577 41.5277 229.057 41.8233C229.538 42.1189 230.087 42.2835 230.651 42.3005H230.73C231.25 42.302 231.763 42.1752 232.222 41.9315C232.681 41.6878 233.072 41.3346 233.362 40.9035C234.881 38.4253 237.019 36.3829 239.568 34.9761C243.372 32.8172 247.696 31.7381 252.071 31.8557C257.544 31.8557 261.799 33.3833 264.732 36.3862C267.664 39.389 269.091 43.6845 269.091 49.1419V53.0587L243.94 58.0199C238.049 59.1427 233.466 61.2317 230.141 64.2215C228.51 65.7418 227.228 67.5947 226.381 69.654C225.533 71.7134 225.141 73.9306 225.231 76.1547C225.121 79.4674 226.095 82.7259 228.007 85.4375C229.969 88.019 232.618 90.0001 235.653 91.156C239.148 92.5111 242.875 93.1762 246.624 93.1144C250.188 93.1056 253.726 92.5146 257.099 91.3649C260.534 90.2188 263.682 88.3486 266.329 85.8814C267.391 84.8718 268.319 83.731 269.091 82.4868C269.239 84.27 269.765 86.0014 270.636 87.5656C271.635 89.3142 273.154 90.7102 274.983 91.5608C276.774 92.3598 278.717 92.765 280.678 92.7488C282.881 92.6899 285.073 92.4232 287.225 91.9524C287.749 91.8806 288.242 91.6614 288.647 91.3204C289.051 90.9794 289.349 90.5307 289.507 90.0268C289.665 89.5229 289.676 88.9846 289.538 88.4747C289.401 87.9649 289.121 87.5047 288.73 87.1478ZM236.163 67.9555C238.612 66.0232 242.382 64.5349 247.371 63.5296L269.091 59.1819V68.8433C269.176 71.6729 268.522 74.4758 267.193 76.9772C265.936 79.1937 264.184 81.0923 262.074 82.526C259.925 84.0007 257.538 85.0959 255.017 85.7639C252.563 86.43 250.032 86.7724 247.489 86.7823C242.684 86.7823 238.926 85.79 236.334 83.8316C235.075 82.8853 234.066 81.6481 233.393 80.2267C232.72 78.8052 232.404 77.242 232.471 75.6716C232.421 74.1925 232.722 72.7224 233.35 71.3814C233.978 70.0405 234.915 68.8666 236.085 67.9555" fill="white"/>
<path d="M152.567 26.79H142.355V88.2837C142.355 89.229 142.731 90.1356 143.401 90.804C144.072 91.4725 144.981 91.848 145.929 91.848C146.877 91.848 147.786 91.4725 148.456 90.804C149.127 90.1356 149.503 89.229 149.503 88.2837V33.2527H152.567C153.435 33.2527 154.267 32.9088 154.881 32.2967C155.495 31.6846 155.84 30.8544 155.84 29.9887C155.84 29.1231 155.495 28.2929 154.881 27.6807C154.267 27.0686 153.435 26.7247 152.567 26.7247" fill="white"/>
<path d="M194.254 127.582C192.977 127.582 191.729 127.96 190.668 128.667C189.606 129.374 188.779 130.379 188.291 131.556C187.802 132.732 187.674 134.026 187.923 135.275C188.172 136.523 188.787 137.67 189.69 138.57C190.592 139.47 191.743 140.083 192.995 140.332C194.247 140.58 195.545 140.453 196.724 139.965C197.903 139.478 198.911 138.653 199.621 137.595C200.33 136.536 200.709 135.292 200.709 134.019C200.709 132.312 200.028 130.675 198.818 129.467C197.608 128.26 195.966 127.582 194.254 127.582Z" fill="white"/>
<path d="M226.347 127.856L216.585 133.477L219.4 138.339L229.162 132.718L226.347 127.856Z" fill="white"/>
<path d="M227.114 125.003L213.735 132.706L218.638 141.175L232.017 133.472L227.114 125.003Z" fill="white"/>
<path d="M24.0624 213.752H22.1771L20.6322 209.704H13.9942L12.4754 213.752H10.5901L16.2854 199.168H18.3933L24.0624 213.752ZM14.6357 208.02H19.9906L17.3066 200.839L14.6357 208.02Z" fill="white"/>
<path d="M31.5514 198.946C32.7094 198.914 33.8558 199.184 34.877 199.73C35.846 200.28 36.6504 201.077 37.2075 202.04L35.728 203.189C35.2965 202.371 34.6549 201.682 33.8688 201.192C33.106 200.781 32.2478 200.578 31.3812 200.604C30.7198 200.581 30.0605 200.692 29.4435 200.931C28.9894 201.104 28.5974 201.409 28.3175 201.805C28.081 202.171 27.958 202.598 27.964 203.033C27.9721 203.51 28.143 203.971 28.4485 204.338C28.9865 204.84 29.669 205.159 30.3993 205.252L33.5808 205.97C34.6802 206.121 35.7052 206.609 36.5135 207.367C37.0706 208.017 37.3647 208.85 37.3384 209.704C37.3536 210.491 37.1098 211.262 36.6445 211.898C36.1389 212.567 35.4599 213.086 34.6806 213.399C33.7346 213.769 32.7242 213.946 31.7085 213.921C30.7568 213.938 29.8092 213.793 28.9067 213.491C28.1519 213.232 27.4508 212.838 26.8381 212.329C26.2803 211.862 25.7989 211.311 25.411 210.697L26.969 209.391C27.2416 209.946 27.6094 210.45 28.0557 210.879C28.5174 211.318 29.0659 211.656 29.6661 211.872C30.3591 212.117 31.0909 212.237 31.8264 212.224C32.4914 212.236 33.1541 212.143 33.7903 211.95C34.2982 211.81 34.7536 211.524 35.0995 211.127C35.4039 210.76 35.5704 210.298 35.5704 209.822C35.5704 209.345 35.4039 208.884 35.0995 208.516C34.6222 208.059 34.0133 207.762 33.3582 207.668L29.9149 206.897C29.144 206.737 28.4051 206.45 27.7284 206.049C27.219 205.73 26.8069 205.279 26.5369 204.743C26.2885 204.249 26.1627 203.703 26.1703 203.15C26.1678 202.383 26.3958 201.633 26.825 200.996C27.2948 200.302 27.9471 199.751 28.7103 199.403C29.6225 198.992 30.616 198.791 31.6169 198.816" fill="white"/>
<path d="M42.8373 199.155H41.0698V213.752H42.8373V199.155Z" fill="white"/>
<path d="M52.3295 198.946C53.4874 198.915 54.6334 199.185 55.655 199.73C56.6184 200.287 57.4212 201.083 57.9855 202.04L56.4929 203.189C56.0651 202.373 55.4282 201.684 54.6469 201.192C53.8793 200.781 53.0169 200.578 52.1462 200.604C51.4848 200.582 50.8257 200.693 50.2085 200.931C49.7579 201.104 49.3702 201.409 49.0956 201.805C48.859 202.171 48.736 202.598 48.7421 203.033C48.7448 203.511 48.9163 203.973 49.2265 204.338C49.7625 204.842 50.446 205.163 51.1773 205.252L54.3457 205.97C55.4451 206.121 56.4702 206.609 57.2785 207.367C57.8448 208.012 58.1443 208.848 58.1164 209.704C58.1259 210.491 57.8828 211.259 57.4225 211.898C56.9141 212.564 56.236 213.083 55.4586 213.399C54.5124 213.768 53.5022 213.945 52.4866 213.921C51.5348 213.939 50.5869 213.794 49.6848 213.491C48.9241 213.236 48.218 212.842 47.603 212.329C47.0457 211.865 46.5681 211.314 46.189 210.697L47.734 209.391C48.0157 209.941 48.3824 210.443 48.8206 210.879C49.28 211.343 49.8335 211.704 50.4441 211.937C51.1372 212.183 51.8689 212.302 52.6044 212.289C53.2695 212.303 53.9326 212.211 54.5683 212.015C55.0779 211.879 55.5342 211.592 55.8776 211.193C56.171 210.822 56.3239 210.359 56.3096 209.887C56.3225 209.411 56.1594 208.946 55.8514 208.581C55.3686 208.125 54.7557 207.828 54.097 207.733L50.6667 206.963C49.8951 206.805 49.1559 206.518 48.4802 206.114C47.9673 205.796 47.5509 205.345 47.2757 204.808C47.0332 204.312 46.9078 203.767 46.9091 203.216C46.9065 202.448 47.1346 201.698 47.5638 201.061C48.0399 200.373 48.6905 199.824 49.4491 199.468C50.3659 199.057 51.3637 198.856 52.3688 198.881" fill="white"/>
<path d="M71.4709 199.155V200.813H66.3648V213.752H64.5973V200.813H59.4912V199.155H71.4709Z" fill="white"/>
<path d="M74.5739 213.752V199.155H84.8385V200.813H76.3414V205.526H82.9532V207.185H76.3414V212.094H85.1658V213.752H74.5739Z" fill="white"/>
<path d="M100.196 199.155V213.752H98.0097L91.8824 203.973L90.3374 201.231H90.3113L90.4029 203.451V213.752H88.714V199.155H90.9135L97.0016 208.882L98.5858 211.689H98.5989L98.5073 209.456V199.155H100.196Z" fill="white"/>
<path d="M116.772 210.018C116.492 210.812 116.046 211.537 115.462 212.146C114.891 212.741 114.199 213.209 113.433 213.517C112.622 213.826 111.761 213.981 110.893 213.974C109.631 214.009 108.384 213.693 107.292 213.06C106.268 212.437 105.449 211.529 104.936 210.449C104.391 209.184 104.111 207.823 104.111 206.447C104.111 205.071 104.391 203.71 104.936 202.445C105.449 201.364 106.268 200.457 107.292 199.834C108.371 199.204 109.604 198.888 110.854 198.92C111.711 198.91 112.564 199.037 113.381 199.299C114.084 199.544 114.726 199.935 115.266 200.448C115.826 200.979 116.272 201.619 116.575 202.328L114.821 203.137C114.555 202.377 114.067 201.713 113.42 201.231C112.717 200.763 111.881 200.535 111.037 200.578C110.116 200.56 109.209 200.8 108.418 201.27C107.648 201.752 107.035 202.446 106.651 203.268C106.207 204.265 105.992 205.349 106.022 206.44C105.993 207.52 106.198 208.594 106.625 209.587C106.98 210.41 107.572 211.11 108.327 211.597C109.116 212.071 110.024 212.311 110.945 212.289C111.875 212.321 112.791 212.061 113.564 211.545C114.325 211.004 114.878 210.222 115.135 209.326L116.772 210.018Z" fill="white"/>
<path d="M121.969 199.155H120.202V213.752H121.969V199.155Z" fill="white"/>
<path d="M138.414 213.752H136.528L134.97 209.704H128.345L126.8 213.752H124.928L130.637 199.168H132.731L138.414 213.752ZM129 208.02H134.342L131.723 200.839L129 208.02Z" fill="white"/>
<path d="M148.063 213.752V199.155H158.328V200.813H149.83V205.526H156.442V207.185H149.83V212.094H158.655V213.752H148.063Z" fill="white"/>
<path d="M173.685 199.155V213.752H171.499L165.371 203.973L163.827 201.231H163.8L163.892 203.451V213.752H162.203V199.155H164.403L170.504 208.882L172.075 211.689H172.088L172.009 209.456V199.155H173.685Z" fill="white"/>
<path d="M195.72 199.155V200.813H190.627V213.752H188.847V200.813H183.754V199.155H195.72Z" fill="white"/>
<path d="M210.017 199.168V208.307C210.073 209.076 209.97 209.847 209.716 210.575C209.461 211.302 209.061 211.97 208.538 212.538C207.313 213.461 205.819 213.961 204.283 213.961C202.747 213.961 201.253 213.461 200.028 212.538C199.5 211.973 199.095 211.306 198.838 210.578C198.582 209.85 198.478 209.077 198.535 208.307V199.168H200.303V207.877C200.206 209.075 200.55 210.268 201.271 211.232C202.116 211.932 203.179 212.315 204.276 212.315C205.374 212.315 206.437 211.932 207.281 211.232C208.002 210.268 208.347 209.075 208.25 207.877V199.168H210.017Z" fill="white"/>
<path d="M223.856 213.752H222.076V199.168H223.856V213.752ZM232.615 207.224H223.005V205.566H232.615V207.224ZM233.558 213.752H231.79V199.168H233.558V213.752Z" fill="white"/>
<path d="M244.215 198.946C245.477 198.913 246.724 199.229 247.816 199.86C248.836 200.484 249.651 201.391 250.159 202.471C250.712 203.733 250.997 205.096 250.997 206.473C250.997 207.85 250.712 209.212 250.159 210.475C249.651 211.555 248.836 212.462 247.816 213.086C246.709 213.686 245.469 214 244.209 214C242.949 214 241.709 213.686 240.602 213.086C239.582 212.462 238.767 211.555 238.258 210.475C237.706 209.212 237.42 207.85 237.42 206.473C237.42 205.096 237.706 203.733 238.258 202.471C238.767 201.391 239.582 200.484 240.602 199.86C241.698 199.227 242.949 198.911 244.215 198.946ZM244.215 200.604C243.294 200.583 242.386 200.823 241.597 201.296C240.839 201.783 240.242 202.483 239.882 203.307C239.097 205.336 239.097 207.584 239.882 209.613C240.242 210.437 240.839 211.137 241.597 211.624C242.393 212.082 243.296 212.323 244.215 212.323C245.135 212.323 246.038 212.082 246.834 211.624C247.585 211.133 248.177 210.434 248.536 209.613C249.321 207.584 249.321 205.336 248.536 203.307C248.177 202.486 247.585 201.787 246.834 201.296C246.045 200.823 245.136 200.583 244.215 200.604Z" fill="white"/>
<path d="M260.83 213.974C259.568 214.009 258.321 213.693 257.23 213.06C256.209 212.433 255.391 211.526 254.873 210.449C254.294 209.193 254.012 207.822 254.048 206.44C254.01 205.057 254.312 203.686 254.925 202.445C255.469 201.356 256.32 200.448 257.374 199.834C258.473 199.209 259.722 198.893 260.987 198.92C262.217 198.869 263.438 199.148 264.522 199.73C265.484 200.343 266.252 201.217 266.735 202.249L265.111 203.137C264.825 202.347 264.281 201.676 263.566 201.231C262.777 200.762 261.866 200.535 260.948 200.578C260.027 200.558 259.119 200.798 258.329 201.27C257.552 201.756 256.929 202.454 256.536 203.281C256.078 204.266 255.854 205.342 255.881 206.427C255.858 207.507 256.049 208.581 256.444 209.587C256.786 210.414 257.376 211.117 258.133 211.597C258.963 212.078 259.91 212.318 260.869 212.289C261.445 212.294 262.018 212.215 262.571 212.054C263.072 211.92 263.54 211.685 263.946 211.362C264.339 211.047 264.652 210.645 264.863 210.187C265.094 209.666 265.206 209.099 265.19 208.529V208.02H260.542V206.362H266.813V213.726H265.412L265.334 211.01L265.7 211.075C265.343 211.982 264.694 212.745 263.854 213.243C262.917 213.768 261.852 214.025 260.778 213.987" fill="white"/>
<path d="M282.642 213.752H280.757L279.212 209.704H272.587L271.029 213.752H269.17L274.865 199.168H276.947L282.642 213.752ZM273.229 208.02H278.571L275.887 200.839L273.229 208.02Z" fill="white"/>
<path d="M291.166 199.168C292.462 199.104 293.737 199.512 294.753 200.317C295.189 200.705 295.533 201.186 295.76 201.723C295.986 202.261 296.09 202.842 296.062 203.424C296.097 204.002 295.997 204.58 295.77 205.112C295.543 205.645 295.195 206.117 294.753 206.493C293.718 207.265 292.444 207.653 291.153 207.589L290.995 207.694H287.421V213.752H285.641V199.168H291.166ZM291.166 206.036C291.996 206.106 292.824 205.874 293.496 205.383C293.996 204.853 294.274 204.152 294.274 203.424C294.274 202.697 293.996 201.996 293.496 201.466C292.824 200.974 291.996 200.742 291.166 200.813H287.421V206.036H291.166ZM292.187 206.388L297.018 213.752H294.884L290.668 207.367L292.187 206.388Z" fill="white"/>
</g>
<defs>
<filter id="filter0_d_1932_355" x="0" y="0" width="309" height="224" filterUnits="userSpaceOnUse" color-interpolation-filters="sRGB">
<feFlood flood-opacity="0" result="BackgroundImageFix"/>
<feColorMatrix in="SourceAlpha" type="matrix" values="0 0 0 0 0 0 0 0 0 0 0 0 0 0 0 0 0 0 127 0" result="hardAlpha"/>
<feOffset/>
<feGaussianBlur stdDeviation="5"/>
<feComposite in2="hardAlpha" operator="out"/>
<feColorMatrix type="matrix" values="0 0 0 0 0 0 0 0 0 0 0 0 0 0 0 0 0 0 0.2 0"/>
<feBlend mode="normal" in2="BackgroundImageFix" result="effect1_dropShadow_1932_355"/>
<feBlend mode="normal" in="SourceGraphic" in2="effect1_dropShadow_1932_355" result="shape"/>
</filter>
</defs>
</svg>
