<svg width="17" height="13" viewBox="0 0 17 13" fill="none" xmlns="http://www.w3.org/2000/svg">
<path d="M3.65785 4.31831C5.15697 5.71238 6.75353 7.1592 8.15521 8.41763C8.25562 8.53806 8.39745 8.61607 8.55247 8.63616C8.71261 8.61352 8.85911 8.5332 8.96474 8.4101C10.3514 7.15167 11.873 5.73499 13.3497 4.36352C14.5489 3.24827 15.7782 2.10287 16.94 1.0479C16.8208 0.733497 16.6076 0.463965 16.3298 0.27639C16.0519 0.0888151 15.723 -0.00758307 15.3885 0.000465977H1.61155C1.28601 -0.000518388 0.967966 0.0985632 0.700024 0.284427C0.432083 0.470292 0.227053 0.73406 0.112429 1.04037L3.65785 4.31831Z" fill="#867B2F"/>
<path d="M16.5128 3.48942L13.3796 6.3303C13.2972 6.40565 13.2672 6.4584 13.2672 6.51868C13.2672 6.57897 13.3122 6.6468 13.3946 6.71462L16.183 9.25408L17 10.0076V3.05989L16.5128 3.48942Z" fill="#867B2F"/>
<path d="M0.472226 9.63839L3.69532 6.71462C3.77777 6.63926 3.81525 6.57897 3.81525 6.51868C3.81525 6.4584 3.76279 6.38305 3.68783 6.31523L0.292328 3.22567L0 2.95439V10.0679L0.472226 9.63839Z" fill="#867B2F"/>
<path d="M14.8338 10.0076C13.9343 9.16365 13.0123 8.29707 12.2928 7.63395C12.2434 7.58175 12.1768 7.54956 12.1054 7.54351C12.0272 7.55203 11.955 7.58966 11.903 7.64901C11.2509 8.25185 10.5838 8.8547 9.96164 9.41233C9.58267 9.78967 9.07086 10.0014 8.53748 10.0014C8.0041 10.0014 7.49229 9.78967 7.11332 9.41233L6.90345 9.22394C6.34128 8.71153 5.75661 8.19157 5.19444 7.66409C5.13861 7.60038 5.06105 7.56005 4.97707 7.55106C4.93341 7.55473 4.89094 7.56732 4.85228 7.58805C4.81362 7.60878 4.77956 7.63721 4.7522 7.67162C4.00264 8.36488 2.96076 9.26915 1.96384 10.1433L0.0299773 11.8463C0.129404 12.1874 0.338646 12.4857 0.624881 12.6943C0.911116 12.903 1.25815 13.0102 1.61155 12.9992H15.3735C15.7064 13.0085 16.0339 12.9133 16.3106 12.727C16.5873 12.5407 16.7994 12.2724 16.9175 11.9593C16.2729 11.3866 15.5459 10.7009 14.8338 10.0076Z" fill="#867B2F"/>
</svg>
