<svg width="20" height="14" viewBox="0 0 20 14" fill="none" xmlns="http://www.w3.org/2000/svg">
<path d="M17.6921 -1.66264e-06H2.27722C1.97404 -0.0164334 1.67055 0.0271572 1.38672 0.127892C1.10289 0.228626 0.845141 0.38422 0.630399 0.584469C0.415657 0.784718 0.24879 1.02509 0.140765 1.28976C0.0327394 1.55443 -0.0139945 1.83742 0.0036265 2.12014V11.8445C-0.0139945 12.1272 0.0327394 12.4102 0.140765 12.6749C0.24879 12.9396 0.415657 13.18 0.630399 13.3802C0.845141 13.5804 1.10289 13.736 1.38672 13.8368C1.67055 13.9375 1.97404 13.9811 2.27722 13.9647H17.6921C17.9956 13.9822 18.2996 13.9395 18.584 13.8391C18.8684 13.7388 19.1267 13.5832 19.3417 13.3827C19.5567 13.1822 19.7235 12.9414 19.8311 12.6762C19.9387 12.411 19.9846 12.1275 19.9657 11.8445V2.13429C19.9868 1.85015 19.9426 1.56508 19.836 1.29817C19.7294 1.03126 19.563 0.788646 19.3477 0.586583C19.1324 0.384519 18.8734 0.227673 18.5879 0.126511C18.3024 0.0253497 17.997 -0.0177914 17.6921 -1.66264e-06ZM18.7531 3.88692V11.6608C18.7593 11.8667 18.7286 12.0721 18.6622 12.2686L13.3041 6.81273C14.9714 5.75973 16.6615 4.69259 18.3439 3.68199C18.45 3.61132 18.5637 3.47705 18.6774 3.52652C18.791 3.57598 18.7531 3.73851 18.7531 3.88692ZM1.37536 1.61838C1.47779 1.47603 1.62058 1.363 1.78785 1.29187C1.95511 1.22075 2.14027 1.19432 2.32269 1.21555H17.6164C17.8227 1.18968 18.0326 1.22405 18.2171 1.31389C18.4017 1.40374 18.5519 1.54467 18.647 1.71733C18.6774 1.75672 18.6979 1.80193 18.707 1.84967C18.7162 1.8974 18.7138 1.94646 18.7 1.99322C18.6862 2.03997 18.6613 2.08324 18.6272 2.11988C18.5932 2.15652 18.5507 2.18558 18.5031 2.20494C16.0097 3.74558 13.5239 5.30744 11.0229 6.841C10.7061 7.04849 10.3264 7.15624 9.93934 7.14862C9.55223 7.14099 9.17782 7.01836 8.87062 6.79858C6.41514 5.27915 3.97482 3.75266 1.51177 2.24029C1.19346 2.00707 1.21621 1.83039 1.37536 1.61838ZM1.26926 3.57597C1.41325 3.49116 1.54209 3.66785 1.66335 3.73852C3.39128 4.81273 5.12678 5.85867 6.84713 6.96821L1.29199 12.2686C1.23202 12.0782 1.2039 11.8803 1.20863 11.682V3.95053C1.20863 3.80918 1.13284 3.61838 1.26926 3.54064V3.57597ZM17.4799 12.8127H2.43636C2.21511 12.8164 1.99478 12.7854 1.7846 12.7208L7.45342 7.31449C7.65046 7.43463 7.8475 7.55476 8.03697 7.68197C8.61061 8.04812 9.28953 8.24406 9.98468 8.24406C10.6798 8.24406 11.3587 8.04812 11.9324 7.68197L12.6902 7.20141L18.1317 12.742C17.9199 12.7978 17.6998 12.8216 17.4799 12.8127Z" fill="#7879B7"/>
</svg>
