<svg width="22" height="29" viewBox="0 0 22 29" fill="none" xmlns="http://www.w3.org/2000/svg">
<path d="M19.9467 19.592C19.1811 19.1244 18.3793 18.6849 17.4689 18.225C16.8266 17.871 16.1032 17.6901 15.3699 17.7001C14.6366 17.7101 13.9185 17.9107 13.2861 18.2821L12.5668 18.6835L11.6944 19.1569C11.3403 18.8746 11.0005 18.5747 10.6764 18.2583C8.8374 16.4367 7.67413 14.0427 7.37847 11.4712L8.81074 10.6571C8.93479 10.5866 9.05886 10.5161 9.1765 10.4343C9.68982 10.1173 10.1249 9.68845 10.4494 9.17979C10.7739 8.67113 10.9794 8.09579 11.0506 7.49665L11.0991 7.04384C11.3077 5.78402 11.308 4.49849 11.0999 3.23859C11.0084 2.66123 10.7569 2.12107 10.374 1.67937C9.99107 1.23768 9.49206 0.912117 8.93352 0.739624C8.11805 0.510137 7.27373 0.399511 6.42667 0.411191C5.40563 0.380502 4.39868 0.655495 3.53496 1.20089C2.67124 1.74629 1.99012 2.53724 1.57892 3.47232C0.881692 4.92984 0.484859 6.51276 0.412053 8.12683C-0.0541141 12.9296 1.35215 17.7269 4.33748 21.5179C6.70175 24.5143 9.9169 26.7258 13.5608 27.8618L13.7199 27.9057C14.2866 28.0643 14.8682 28.1638 15.4554 28.2025C16.5661 28.3673 17.7003 28.1675 18.6879 27.6331C19.6754 27.0987 20.4631 26.2585 20.9328 25.2386C21.0403 25.0208 21.1454 24.8119 21.2441 24.5917L21.4106 24.2285C21.6355 23.8316 21.7763 23.3926 21.8241 22.9389C21.8718 22.4852 21.8256 22.0265 21.6883 21.5915C21.5509 21.1564 21.3254 20.7544 21.0257 20.4103C20.7261 20.0663 20.3588 19.7877 19.9467 19.592ZM7.70013 8.40117C7.08627 8.76499 6.43214 9.13677 5.57747 9.61507C5.30796 9.75019 5.08766 9.96648 4.94761 10.2335C4.80757 10.5004 4.75486 10.8046 4.79688 11.1032C4.95415 13.1923 5.57264 15.2205 6.60783 17.0419C7.64303 18.8633 9.06918 20.4326 10.7836 21.6366C11.0273 21.8243 11.3243 21.9296 11.6318 21.9372C11.9393 21.9449 12.2412 21.8545 12.4939 21.6792C13.1617 21.2922 13.8359 20.9165 14.5577 20.5062C14.8283 20.3292 15.1428 20.231 15.4661 20.2225C15.7893 20.214 16.1085 20.2956 16.388 20.4582L18.6217 21.7104C18.8277 21.8174 19.014 21.9588 19.1726 22.1284C19.2467 22.1856 19.3015 22.2643 19.3297 22.3536C19.3578 22.443 19.3579 22.5389 19.3299 22.6283C19.1119 23.4446 18.7272 24.2068 18.2 24.867C17.9155 25.1778 17.5603 25.4154 17.1645 25.5598C16.7687 25.7043 16.344 25.7512 15.9262 25.6968C15.3981 25.6842 14.8747 25.5946 14.3725 25.4309C10.7966 24.3108 7.71547 21.9935 5.64734 18.8687C3.5792 15.7438 2.65025 12.0021 3.01667 8.27285C3.09261 7.1641 3.33208 6.07268 3.72731 5.03399C4.35667 3.54231 5.1247 2.96405 6.4739 2.93581C7.01926 2.91507 7.56497 2.96611 8.09702 3.0876C8.24918 3.1215 8.38748 3.20077 8.49365 3.31492C8.59982 3.42907 8.66886 3.57273 8.69167 3.72695C8.79107 4.23151 8.81561 4.74797 8.76452 5.25969C8.75341 5.54204 8.73102 5.8308 8.70863 6.11956C8.68624 6.40832 8.66962 6.64159 8.65453 6.90382C8.64822 7.21696 8.55583 7.52232 8.38748 7.78644C8.21914 8.05056 7.98133 8.26323 7.70013 8.40117Z" fill="#FBD6BD"/>
</svg>
