<svg width="17" height="17" viewBox="0 0 17 17" fill="none" xmlns="http://www.w3.org/2000/svg">
<path d="M15.1808 10.5551C14.5818 10.3897 13.9701 10.237 13.2692 10.097C12.8004 9.98529 12.3105 9.99752 11.8479 10.1325C11.3853 10.2675 10.966 10.5206 10.6312 10.8669C10.2808 11.2041 9.99405 11.5031 9.6436 11.8212C9.34412 11.6876 9.00641 11.5349 8.68781 11.3568C7.06183 10.4373 5.80365 8.98555 5.12593 7.24681C5.34257 7.04322 5.54647 6.83327 5.76312 6.61059L6.00525 6.36883C6.07534 6.3052 6.13906 6.23522 6.20278 6.16523C6.47258 5.87569 6.67344 5.52907 6.79039 5.15122C6.90734 4.77338 6.93735 4.37406 6.8782 3.98301L6.8336 3.67762C6.74174 2.81239 6.5093 1.96789 6.14543 1.1773C5.9885 0.836411 5.73974 0.545802 5.42692 0.337952C5.11411 0.130103 4.74957 0.0131966 4.37405 0.000292366C3.80052 -0.00546589 3.22931 0.0738633 2.67913 0.235689C2.02152 0.398702 1.42764 0.754035 0.973557 1.25616C0.519474 1.75829 0.225874 2.38435 0.130372 3.05412C-0.0645231 4.13797 -0.040698 5.24976 0.200459 6.32429C0.719911 9.24471 2.22792 11.8985 4.47224 13.8418C6.71656 15.785 9.5611 16.8999 12.5301 17H12.6448C13.0281 16.9991 13.4103 16.9585 13.7853 16.8791C14.528 16.7892 15.2216 16.4618 15.7625 15.9457C16.3035 15.4297 16.6627 14.7528 16.7865 14.0161C16.7865 13.8507 16.8438 13.6917 16.8693 13.5326L16.9203 13.259C17.0022 12.9667 17.0213 12.6603 16.9761 12.3601C16.931 12.0599 16.8227 11.7727 16.6584 11.5172C16.494 11.2618 16.2774 11.044 16.0227 10.8782C15.7681 10.7124 15.4811 10.6023 15.1808 10.5551ZM3.85155 6.48334C3.71876 6.60312 3.62701 6.76155 3.58928 6.93621C3.55155 7.11088 3.56974 7.29296 3.64128 7.45675C4.12442 8.8036 4.90083 10.0266 5.91454 11.0377C6.92824 12.0487 8.15399 12.8226 9.50342 13.3036C9.66714 13.3738 9.84884 13.3906 10.0227 13.3518C10.1966 13.313 10.3538 13.2204 10.4719 13.0873C10.8543 12.6928 11.2493 12.3047 11.638 11.9166C11.8075 11.7306 12.0248 11.5943 12.2662 11.5226C12.5076 11.4508 12.7641 11.4463 13.008 11.5094C13.5878 11.6431 14.1613 11.7894 14.7347 11.9294C14.9066 11.9721 15.0718 12.0385 15.2254 12.1266C15.309 12.1668 15.3793 12.2302 15.4278 12.3091C15.4764 12.3881 15.5012 12.4793 15.4994 12.5719C15.5025 13.1796 15.3811 13.7815 15.1425 14.3406C14.9996 14.6232 14.7907 14.8672 14.5334 15.0521C14.2761 15.2371 13.978 15.3574 13.6643 15.4031C13.2935 15.4946 12.9117 15.5332 12.5301 15.5176C9.88788 15.4267 7.35827 14.4272 5.36929 12.6881C3.3803 10.9491 2.05408 8.57744 1.61502 5.97438C1.45543 5.20257 1.41248 4.41125 1.48758 3.62673C1.64051 2.46246 2.12477 1.87076 3.06144 1.60355C3.43495 1.48321 3.82274 1.41262 4.21475 1.39361C4.34815 1.39295 4.47897 1.43031 4.59184 1.50131C4.70471 1.57231 4.79494 1.674 4.85194 1.79443C5.01413 2.12981 5.13194 2.48483 5.20239 2.85055L5.31709 3.44223C5.35532 3.62037 5.38718 3.79851 5.42541 3.97665C5.47813 4.20468 5.46934 4.44259 5.39994 4.66612C5.33054 4.88965 5.203 5.09081 5.03035 5.24908C4.7245 5.63717 4.35493 6.00618 3.85155 6.48334Z" fill="#7879B7"/>
</svg>
