<svg width="14" height="18" viewBox="0 0 14 18" fill="none" xmlns="http://www.w3.org/2000/svg">
<path d="M12.7064 2.98914C12.6983 2.96853 12.6854 2.95021 12.6688 2.93576C12.556 2.77563 12.4356 2.61549 12.3153 2.47061L12.2326 2.37911C12.11 2.23449 11.9794 2.097 11.8415 1.96734C10.6221 0.778829 9.01853 0.0797193 7.32891 0H6.32864C5.63404 0.0642043 4.95378 0.239206 4.31302 0.518529L4.02722 0.640537C4.02722 0.640537 4.02723 0.640535 3.96706 0.686287C2.59526 1.31871 1.47084 2.39718 0.771958 3.7508C0.0730762 5.10443 -0.160295 6.6558 0.108814 8.15911C0.108814 8.3345 0.168985 8.50987 0.20659 8.67763C0.20659 8.67763 0.20659 8.74626 0.20659 8.77676C0.42794 9.69783 0.835104 10.5624 1.40242 11.316C2.15451 12.3607 3.0119 13.3672 3.82416 14.3661L6.44896 17.6984C6.51012 17.7912 6.59291 17.8673 6.68998 17.9199C6.78706 17.9725 6.89544 18 7.00552 18C7.11559 18 7.22397 17.9725 7.32105 17.9199C7.41813 17.8673 7.50092 17.7912 7.56207 17.6984L8.19383 16.8977L12.4356 11.56C13.082 10.7465 13.5442 9.79897 13.7894 8.78439C13.9278 8.22324 13.9986 7.64712 14 7.06869C13.997 5.60565 13.5449 4.17984 12.7064 2.98914ZM6.99047 10.3476C6.56125 10.3559 6.1348 10.2761 5.73681 10.113C5.33881 9.9498 4.9775 9.70665 4.67464 9.39816C4.37178 9.08967 4.13365 8.72223 3.97456 8.31796C3.81547 7.91369 3.73872 7.48095 3.74895 7.04581C3.75089 6.61463 3.8371 6.18811 4.00257 5.79091C4.16804 5.3937 4.4095 5.03368 4.71301 4.73164C5.01651 4.42959 5.37603 4.19151 5.77081 4.03117C6.16559 3.87082 6.5878 3.79137 7.01304 3.79742C7.87019 3.80946 8.6881 4.16368 9.28931 4.78323C9.89052 5.40278 10.2265 6.23768 10.2245 7.10681C10.2185 7.97106 9.87468 8.79763 9.2684 9.40518C8.66212 10.0127 7.8429 10.3516 6.99047 10.3476Z" fill="#867B2F"/>
</svg>
