<svg width="14" height="19" viewBox="0 0 14 19" fill="none" xmlns="http://www.w3.org/2000/svg">
<path d="M6.99349 3.6582C6.23504 3.65433 5.49254 3.87779 4.86012 4.30021C4.22771 4.72264 3.73389 5.325 3.44128 6.03095C3.14866 6.73689 3.07044 7.51462 3.21652 8.26547C3.3626 9.01633 3.72641 9.7065 4.26182 10.2485C4.79722 10.7905 5.48011 11.1598 6.22387 11.3098C6.96764 11.4597 7.73878 11.3834 8.43951 11.0906C9.14024 10.7977 9.739 10.3016 10.1599 9.665C10.5807 9.02842 10.8047 8.28011 10.8034 7.51493C10.8034 6.49432 10.4024 5.51532 9.68832 4.79242C8.97418 4.06951 8.00514 3.66165 6.99349 3.6582ZM6.99349 10.0426C6.66076 10.0471 6.33054 9.98391 6.02251 9.8569C5.71448 9.72989 5.43494 9.54164 5.20054 9.30334C4.96614 9.06505 4.78169 8.78158 4.65816 8.46985C4.53463 8.15813 4.47456 7.82451 4.48152 7.48887C4.4832 7.15582 4.55011 6.82639 4.6784 6.51951C4.80668 6.21263 4.99382 5.93434 5.22906 5.70066C5.46429 5.46698 5.74297 5.28251 6.04909 5.15784C6.35522 5.03316 6.68275 4.97073 7.01286 4.97417C7.68257 4.98787 8.31974 5.26813 8.78546 5.75384C9.25118 6.23955 9.50767 6.89133 9.49901 7.56704C9.48713 8.23176 9.21616 8.865 8.74478 9.32959C8.27339 9.79417 7.63956 10.0527 6.98059 10.0492L6.99349 10.0426Z" fill="#7879B7"/>
<path d="M12.7084 3.44972L12.6697 3.39761C12.5579 3.23667 12.4371 3.08225 12.308 2.93507L12.2305 2.84385C12.11 2.70053 11.9809 2.56372 11.8431 2.43342C10.6246 1.24523 9.01605 0.549755 7.32284 0.479004H6.88372C6.69645 0.479004 6.50919 0.479016 6.32192 0.511589C5.62804 0.577257 4.94842 0.750852 4.30717 1.02624L4.02304 1.15002C4.02304 1.15002 3.98429 1.15002 3.95846 1.18911C2.77874 1.75984 1.78195 2.65385 1.08197 3.76899C0.381991 4.88414 0.00705071 6.17546 0 7.49538C0.00147677 7.87772 0.0360506 8.25919 0.103323 8.63546C0.103323 8.80484 0.16144 8.98072 0.193728 9.15011C0.196761 9.18261 0.196761 9.21532 0.193728 9.24782C0.415077 10.1644 0.821799 11.025 1.38837 11.7755C2.17619 12.8114 3.00275 13.8212 3.8164 14.844L6.44461 18.16C6.50179 18.2572 6.58306 18.3377 6.68042 18.3937C6.77779 18.4496 6.88791 18.479 6.99996 18.479C7.11201 18.479 7.22213 18.4496 7.3195 18.3937C7.41686 18.3377 7.49813 18.2572 7.55531 18.16L8.20106 17.3587L12.4436 12.0166C13.0889 11.2069 13.5497 10.2638 13.7933 9.25434C13.9334 8.6965 14.0029 8.12297 13.9999 7.54749C14.0038 6.07907 13.5522 4.64621 12.7084 3.44972ZM11.4169 11.0785C9.97687 12.9091 8.52393 14.7267 7.0839 16.5574C6.96767 16.7072 6.90309 16.6681 6.80623 16.5574C5.41141 14.8201 4.01443 13.0589 2.6153 11.2739C2.11996 10.657 1.74327 9.95221 1.5046 9.19571C1.34677 8.65373 1.26206 8.09276 1.25276 7.52795V7.46279C1.28753 6.61812 1.48493 5.78835 1.83394 5.01977C2.39935 3.85945 3.33374 2.92367 4.48798 2.36177C5.78465 1.77168 7.25079 1.68184 8.60871 2.10928C9.96663 2.53671 11.122 3.45173 11.856 4.68101C12.3422 5.5444 12.5939 6.52196 12.5857 7.51492C12.6239 8.80027 12.22 10.0593 11.4427 11.0785H11.4169Z" fill="#7879B7"/>
</svg>
