<svg width="37" height="37" viewBox="0 0 37 37" fill="none" xmlns="http://www.w3.org/2000/svg">
<path d="M25.9055 18.5139C25.9052 18.7422 25.8556 18.9677 25.7603 19.1751C25.6649 19.3825 25.526 19.567 25.3529 19.7159L21.4429 23.6259L16.1789 28.9037C16.0126 29.1041 15.7997 29.2606 15.5588 29.3594C15.3178 29.4581 15.0563 29.4962 14.7973 29.4702C14.5137 29.4616 14.2386 29.3709 14.0056 29.209C13.7726 29.0472 13.5916 28.8211 13.4847 28.5583C13.3518 28.3149 13.2953 28.0372 13.3224 27.7612C13.3495 27.4852 13.459 27.2238 13.6367 27.0109C13.7357 26.8768 13.8467 26.7519 13.9683 26.6378L21.8712 18.7211C22.0784 18.5139 22.0784 18.5139 21.8712 18.2928L13.913 10.3346C13.7162 10.1654 13.5623 9.95194 13.4639 9.7118C13.3654 9.47167 13.3252 9.21164 13.3465 8.95298C13.3607 8.67285 13.4515 8.402 13.6089 8.16987C13.7664 7.93773 13.9845 7.75319 14.2395 7.63637C14.4945 7.51955 14.7766 7.47492 15.0552 7.5073C15.3338 7.53969 15.5982 7.64784 15.8196 7.82003C15.9305 7.8959 16.0324 7.98396 16.1236 8.08255L25.2562 17.2151C25.4558 17.3682 25.6181 17.5646 25.7306 17.7896C25.8431 18.0146 25.9029 18.2623 25.9055 18.5139Z" fill="#7879B7" fill-opacity="0.5"/>
<path d="M18.5138 37C22.1728 36.9973 25.7488 35.9096 28.7895 33.8745C31.8303 31.8394 34.1994 28.9484 35.5971 25.5669C36.9948 22.1854 37.3583 18.4654 36.6418 14.8773C35.9253 11.2892 34.1609 7.99413 31.5717 5.40879C28.9825 2.82345 25.6848 1.06393 22.0956 0.352786C18.5064 -0.358362 14.787 0.0107975 11.4076 1.41355C8.0282 2.81629 5.14068 5.18965 3.11015 8.23348C1.07961 11.2773 -0.00272176 14.8549 9.2455e-06 18.5138C0.0109761 23.4181 1.96594 28.1179 5.43637 31.5832C8.9068 35.0484 13.6095 36.9964 18.5138 37ZM18.5138 3.05343C21.5716 3.05343 24.5607 3.96014 27.1032 5.65895C29.6456 7.35776 31.6272 9.77238 32.7974 12.5974C33.9675 15.4224 34.2737 18.531 33.6772 21.53C33.0806 24.529 31.6082 27.2838 29.446 29.446C27.2838 31.6082 24.529 33.0806 21.53 33.6772C18.531 34.2737 15.4224 33.9676 12.5974 32.7974C9.77235 31.6272 7.35777 29.6456 5.65896 27.1032C3.96015 24.5607 3.05341 21.5716 3.05342 18.5138C3.04796 16.4794 3.44372 14.4639 4.21807 12.5826C4.99241 10.7013 6.13014 8.99113 7.56614 7.55C9.00213 6.10887 10.7082 4.96502 12.5867 4.18397C14.4653 3.40291 16.4794 2.99996 18.5138 2.99815L18.5138 3.05343Z" fill="#7879B7" fill-opacity="0.5"/>
</svg>
