<svg width="16" height="17" viewBox="0 0 16 17" fill="none" xmlns="http://www.w3.org/2000/svg">
<path d="M8.11981 16.8815C6.80915 16.8837 5.51721 16.5537 4.35294 15.9193C4.30521 15.8976 4.25377 15.8864 4.20178 15.8864C4.14979 15.8864 4.09834 15.8976 4.05062 15.9193L0.193047 16.9835H0.14468C0.00561359 17.0281 -0.0246222 16.9835 0.0177022 16.8369C0.162815 16.3017 0.295836 15.76 0.434902 15.2184C0.646524 14.4283 0.8521 13.6318 1.03954 12.8353C1.05547 12.7748 1.05993 12.7116 1.05267 12.6493C1.04541 12.5869 1.02656 12.5267 0.997212 12.4721C0.419944 11.3682 0.0949101 10.1377 0.0479358 8.87831C-0.0248766 7.60524 0.182234 6.33164 0.653129 5.15676C1.12402 3.98189 1.84598 2.93746 2.76274 2.10489C3.93743 0.979089 5.41785 0.270341 6.99519 0.0786034C8.09907 -0.0836321 9.22315 0.0059213 10.2913 0.341218C11.3595 0.676515 12.3469 1.24972 13.1866 2.02205C14.5949 3.23977 15.543 4.94863 15.8591 6.83927C16.0613 7.96233 16.0457 9.11692 15.8132 10.2334C15.5806 11.35 15.136 12.4053 14.5061 13.3359C13.8761 14.2665 13.074 15.0531 12.1479 15.6482C11.2218 16.2433 10.1909 16.6346 9.11746 16.7987C9.00739 16.8181 8.89635 16.8308 8.78491 16.8369C8.54305 16.8496 8.28911 16.8943 8.11981 16.8815ZM8.02307 15.4096C8.38176 15.4184 8.74037 15.3885 9.09328 15.3204C10.7656 15.0281 12.2689 14.0738 13.296 12.6527C14.3231 11.2315 14.7966 9.45068 14.6196 7.67399C14.5075 6.35991 14.0182 5.11301 13.2169 4.09932C12.4689 3.07304 11.4571 2.29454 10.3018 1.85629C9.1464 1.41805 7.89595 1.33847 6.69892 1.62699C5.85909 1.79165 5.05986 2.13472 4.34989 2.63535C3.63992 3.13598 3.03408 3.78369 2.56926 4.53899C1.67964 5.89531 1.28851 7.54633 1.46883 9.18415C1.56921 10.268 1.92005 11.3094 2.49066 12.2172C2.53169 12.276 2.55861 12.3444 2.56914 12.4165C2.57967 12.4886 2.57349 12.5623 2.55112 12.6314C2.35764 13.3387 2.1823 14.046 2.00091 14.7596C1.94649 14.9572 1.95858 14.9635 2.15207 14.9126C2.8474 14.7214 3.54273 14.5366 4.23806 14.3327C4.29873 14.313 4.36285 14.3079 4.42565 14.3178C4.48845 14.3277 4.54832 14.3524 4.60084 14.3901C5.62998 15.0573 6.81475 15.4103 8.02307 15.4096Z" fill="#7879B7"/>
<path d="M10.1212 12.4912C9.54991 12.4667 8.98978 12.317 8.47655 12.0515C7.11343 11.4462 5.93841 10.4507 5.08454 9.17779C4.69273 8.68464 4.37651 8.12994 4.14736 7.5338C3.96236 7.07815 3.91302 6.57403 4.00588 6.08817C4.09873 5.60231 4.3294 5.15764 4.66734 4.81298C4.75001 4.71648 4.85207 4.64065 4.9661 4.59104C5.08012 4.54143 5.20322 4.51929 5.3264 4.52623C5.45942 4.52623 5.59848 4.52623 5.7315 4.52623C5.80117 4.53819 5.86611 4.57096 5.91862 4.62066C5.97114 4.67035 6.00902 4.73489 6.02777 4.8066C6.21521 5.25901 6.36032 5.73054 6.57799 6.17021C6.68103 6.33525 6.72373 6.53409 6.69815 6.7298C6.67257 6.92551 6.58046 7.10478 6.43892 7.23432C6.34218 7.34264 6.26963 7.4701 6.17288 7.58479C6.12275 7.64333 6.095 7.71939 6.095 7.79825C6.095 7.87711 6.12275 7.95316 6.17288 8.0117C6.71713 9.01151 7.54052 9.81027 8.53096 10.2992C9.17792 10.6178 9.09932 10.5987 9.52256 10.0699C9.64953 9.91056 9.76442 9.74488 9.88535 9.58558C10.0063 9.42628 10.1151 9.36894 10.3086 9.45178C10.9132 9.70028 11.4332 9.99976 11.9895 10.2992C12.0506 10.3358 12.0988 10.3921 12.1272 10.4598C12.1555 10.5275 12.1623 10.603 12.1467 10.6752C12.1172 11.1665 11.909 11.6268 11.5655 11.9603C11.2219 12.2939 10.7696 12.4749 10.3025 12.4657L10.1212 12.4912Z" fill="#7879B7"/>
</svg>
